STARTFONT 2.1
FONT HAN-GB2312
SIZE 16 72 72
FONTBOUNDINGBOX 16 16 0 0
STARTPROPERTIES 1
BITCOUNT 8
ENDPROPERTIES
CHARS 6989
STARTCHAR  00A4
ENCODING  164
SWIDTH  1000 0
DWIDTH  15 0
BBX  9 10 3 -1
BITMAP
001000001000001000
20E060E0FFE080E000
00A0FFA060A0FF8000
00E080000000C0A000
30FF2000000060FF00
30FF2000000040FF10
00E060000000A0C000
00A0F0602080FF6000
20F0A0FFFFF0A0E000
002000204010002000
ENDCHAR
STARTCHAR  00A7
ENCODING  167
SWIDTH  1000 0
DWIDTH  15 0
BBX  7 12 4 -2
BITMAP
00002040100000
00A0FFFFFF8000
30FF600060C010
30FF6000000000
00E0FFFF601000
20FF8060E0C000
60FF800080FF10
00FFFFFFFF8000
000060E0FF8000
40A0000060FF10
30FFA060C0F000
0040E0FFE04000
ENDCHAR
STARTCHAR  00A8
ENCODING  168
SWIDTH  1000 0
DWIDTH  16 0
BBX  6 3 5 9
BITMAP
002000101000
30FF40A0E000
004000203000
ENDCHAR
STARTCHAR  00B0
ENCODING  176
SWIDTH  1000 0
DWIDTH  17 0
BBX  5 5 1 5
BITMAP
00A0F06000
20FFC0F000
30FF80FF10
00E0FFA000
0010400000
ENDCHAR
STARTCHAR  00B1
ENCODING  177
SWIDTH  1000 0
DWIDTH  16 0
BBX  8 12 4 -2
BITMAP
0000001000000000
000040FF10000000
000040FF10000000
000040FF10000000
FFFFFFFFFFFFFFFF
8080C0FF80808080
000040FF10000000
000040FF10000000
000040E010000000
2020202020202020
FFFFFFFFFFFFFFFF
6060606060606060
ENDCHAR
STARTCHAR  00B7
ENCODING  183
SWIDTH  1000 0
DWIDTH  16 0
BBX  3 3 7 3
BITMAP
80A000
F0FF20
A0E000
ENDCHAR
STARTCHAR  00D7
ENCODING  215
SWIDTH  1000 0
DWIDTH  16 0
BBX  9 10 3 -1
BITMAP
004000000000002020
10F0A000000020E0A0
0040FF800010E0E010
000060FF80E0E02000
00000060FFFF200000
000000A0FFFF600000
0000A0F03080FF4000
00A0F0400000A0F040
10E04000000000A0A0
000000000000000000
ENDCHAR
STARTCHAR  00F7
ENCODING  247
SWIDTH  1000 0
DWIDTH  16 0
BBX  9 9 3 0
BITMAP
000000101000000000
000000E0E000000000
000000C0C000000000
202020202020202020
FFFFFFFFFFFFFFFFFF
606060606060606060
000000101000000000
000000E0E000000000
000000C0C000000000
ENDCHAR
STARTCHAR  02C7
ENCODING  711
SWIDTH  1000 0
DWIDTH  16 0
BBX  5 4 5 9
BITMAP
0040001040
00E060A0A0
0040FFF020
0000403000
ENDCHAR
STARTCHAR  2014
ENCODING  8212
SWIDTH  1000 0
DWIDTH  17 0
BBX  15 2 1 4
BITMAP
FFFFFFFFFFFFFFFFFFFFFFFFFFFFFF
808080808080808080808080808080
ENDCHAR
STARTCHAR  2018
ENCODING  8216
SWIDTH  1000 0
DWIDTH  16 0
BBX  3 4 10 6
BITMAP
20C010
60E000
A0A000
001000
ENDCHAR
STARTCHAR  2019
ENCODING  8217
SWIDTH  1000 0
DWIDTH  16 0
BBX  3 4 3 6
BITMAP
10C030
40FF10
80C000
001000
ENDCHAR
STARTCHAR  201C
ENCODING  8220
SWIDTH  1000 0
DWIDTH  16 0
BBX  5 5 9 6
BITMAP
0000000000
30C060C000
20FF80FF20
00E080E040
0020001000
ENDCHAR
STARTCHAR  201D
ENCODING  8221
SWIDTH  1000 0
DWIDTH  16 0
BBX  5 5 1 6
BITMAP
0000000000
00E060E030
30FF80F000
60E080A000
0000001000
ENDCHAR
STARTCHAR  2026
ENCODING  8230
SWIDTH  1000 0
DWIDTH  9 0
BBX  9 3 0 3
BITMAP
001000001000001000
30FF0030FF0030FF00
003000003000003000
ENDCHAR
STARTCHAR  2030
ENCODING  8240
SWIDTH  1000 0
DWIDTH  16 0
BBX  12 13 2 -3
BITMAP
00A0F0600040600000000000
20FFC0F000A0600000000000
40FF60FF20F0100000000000
30FF80FF60C0000000000000
00E0FFC0A060000000000000
00206020F010000000000000
00000040C000100000100000
000000A080C0FF8080FFA000
000000E040FFA0F0E0A0FF00
000040E040FF60FFF060FF10
0000808020FFC0F0E0C0FF00
0000C03000A0F08060F08000
000000000000000000000000
ENDCHAR
STARTCHAR  2032
ENCODING  8242
SWIDTH  1000 0
DWIDTH  8 0
BBX  4 5 1 6
BITMAP
00001000
0020F030
00A0E000
40FF4000
40A00000
ENDCHAR
STARTCHAR  2033
ENCODING  8243
SWIDTH  1000 0
DWIDTH  8 0
BBX  6 5 1 6
BITMAP
000010000000
0020F03080C0
00A0E020F080
40FF40A0E010
40A000A06000
ENDCHAR
STARTCHAR  2103
ENCODING  8451
SWIDTH  1000 0
DWIDTH  16 0
BBX  11 12 2 -2
BITMAP
30C0600000000000000000
C020C00060E0FFF0A01000
60E0A080F0803040E0E020
000040FF40000000006000
0000A0A000000000000000
0000E06000000000000000
0000FF4000000000000000
0000E06000000000000000
0000A0A000000000000000
000040FF4000000010A010
00000080F0803060E0E010
0000000060E0FFE0A01000
ENDCHAR
STARTCHAR  2116
ENCODING  8470
SWIDTH  1000 0
DWIDTH  8 0
BBX  0 0 0 0
BITMAP
ENDCHAR
STARTCHAR  2160
ENCODING  8544
SWIDTH  1000 0
DWIDTH  16 0
BBX  5 12 5 -2
BITMAP
80FFFFFF60
40C0FF8020
0040FF1000
0040FF1000
0040FF1000
0040FF1000
0040FF1000
0040FF1000
0040FF1000
0040FF1000
40C0FF8020
80FFFFFF60
ENDCHAR
STARTCHAR  2161
ENCODING  8545
SWIDTH  1000 0
DWIDTH  16 0
BBX  9 12 3 -2
BITMAP
20FFFFFFFFFFFFFFF0
1080C0FF80C0FF8060
000040FF1040FF1000
000040FF1040FF1000
000040FF1040FF1000
000040FF1040FF1000
000040FF1040FF1000
000040FF1040FF1000
000040FF1040FF1000
000040FF1040FF1000
1080C0FF80C0FF8060
20FFFFFFFFFFFFFFF0
ENDCHAR
STARTCHAR  2162
ENCODING  8546
SWIDTH  1000 0
DWIDTH  17 0
BBX  11 13 3 -3
BITMAP
60FFFFFFFFFFFFFFFFFF30
40E0FFA0E0FFA0E0FFA020
0040FF1040FF1040FF1000
0040FF1040FF1040FF1000
0040FF1040FF1040FF1000
0040FF1040FF1040FF1000
0040FF1040FF1040FF1000
0040FF1040FF1040FF1000
0040FF1040FF1040FF1000
0040FF1040FF1040FF1000
30C0FF80C0FF80C0FF8010
60FFFFFFFFFFFFFFFFFF30
0000000000000000000000
ENDCHAR
STARTCHAR  2163
ENCODING  8547
SWIDTH  1000 0
DWIDTH  16 0
BBX  12 13 2 -3
BITMAP
FFFFFFFFFFA000000000A0FF
C0FF8080A0E000000000E0A0
40FF100030FF20000020FF30
40FF100000E060000060E000
40FF100000A0A00000A0A000
40FF10000060E00000E06000
40FF10000030FF1020FF3000
40FF10000000E06060E00000
40FF10000000A080A0A00000
60FF3020000060E0E0600000
FFFFFFFF000030FFFF300000
FFFFFFFF000000FFFF000000
000000000000000000000000
ENDCHAR
STARTCHAR  2164
ENCODING  8548
SWIDTH  1000 0
DWIDTH  15 0
BBX  9 12 3 -2
BITMAP
FFC00000000000E0FF
80FF1000000010FF80
00F06000000060F000
00C0A0000000A0C000
0060E0000000E06000
0020FF300030FF2000
0000E0800080E00000
0000A0C000C0A00000
000040F010FF400000
000010FFA0FF100000
000000C0FFC0000000
00000080FF80000000
ENDCHAR
STARTCHAR  2165
ENCODING  8549
SWIDTH  1000 0
DWIDTH  16 0
BBX  12 13 2 -3
BITMAP
FFA000000000A0FFFFFFFFFF
A0E000000000E0A080C0FF80
20FF20000020FF300040FF10
00E060000060E0000040FF10
00A0A00000A0A0000040FF10
0060E00000E060000040FF10
0030FF1010FF30000040FF10
0000F06060F000000040FF10
0000A080A0A000000040FF10
000060E0E06000002060FF30
000030FFFF300000FFFFFFFF
000000FFFF000000FFFFFFFF
000000000000000000000000
ENDCHAR
STARTCHAR  2166
ENCODING  8550
SWIDTH  1000 0
DWIDTH  16 0
BBX  14 13 1 -3
BITMAP
FFA0000000A0FFFFFFFFFFFFFF40
C0E0000000C0C0A0FF80C0FF8020
60FF000000FF6040FF1040FF1000
30FF400030FF3040FF1040FF1000
00F0800060F00040FF1040FF1000
00C0A000A0C00040FF1040FF1000
0080E000E0800040FF1040FF1000
0040FF30FF400040FF1040FF1000
0010FFA0FF100040FF1040FF1000
0000E0FFE0000060FF3060FF3010
0000A0FFA00000FFFFFFFFFFFF40
000060FF600000F0FFFFFFFFFF40
0000000000000000000000000000
ENDCHAR
STARTCHAR  2167
ENCODING  8551
SWIDTH  1000 0
DWIDTH  15 0
BBX  14 13 1 -3
BITMAP
FF60000060FFA0FFFFFFFFFFFF10
E0800000A0E040C0FFE0FFFF8000
80C00000C0800040FF60FFFF1000
60F00000F0600040FF60FFFF1000
20FF2020FF200040FF60FFFF1000
00F04060F0000040FF60FFFF1000
00C08080C0000040FF60FFFF1000
00A0A0C0A0000040FF60FFFF1000
0060E0E060000040FF60FFFF1000
0030FFFF30001060FF80FFFF3000
0000FFFF0000A0FFFFFFFFFFFF10
0000E0E00000A0FFFFFFFFFFFF10
0000000000000000000000000000
ENDCHAR
STARTCHAR  2168
ENCODING  8552
SWIDTH  1000 0
DWIDTH  16 0
BBX  12 13 3 -3
BITMAP
FFFFFFFFFF6000000060FF00
C0FF8080C0E0100000E0C000
40FF100020F0800060FF2000
40FF10000080F010E0A00000
40FF10000010F0F0F0200000
40FF1000000080FFA0000000
40FF1000000060FFC0000000
40FF10000000E0E0FF300000
40FF10000060F010E0C00000
60FF302000E0800040FF4000
FFFFFFFF60F0100000C0C000
FFFFFFFFE08000000030FF30
000000001010000000002000
ENDCHAR
STARTCHAR  2169
ENCODING  8553
SWIDTH  1000 0
DWIDTH  17 0
BBX  11 12 3 -2
BITMAP
00FF80000000000080FF00
00A0FF4000000040FFA000
0000A0F0200020F0A00000
000010E0C000C0E0100000
00000030FFFFFF30000000
00000000C0FFC000000000
00000020F0FFF020000000
000000C0E020E0C0000000
000080F0300030F0800000
0040FF6000000060FF4000
20F0A00000000000A0F020
20A010000000000010A020
ENDCHAR
STARTCHAR  216A
ENCODING  8554
SWIDTH  1000 0
DWIDTH  16 0
BBX  12 13 2 -3
BITMAP
00FF6000000060FFFFFFFFFF
00C0E0000010E0C080C0FF80
0020FF600080F0200040FF10
0000A0E010F080000040FF10
000020F0F0F010000040FF10
000000A0FF8000000040FF10
000000C0FF6000000040FF10
000030FFE0E000000040FF10
0000C0E010F060000040FF10
0040FF400080E0002060FF30
00E0C0000010F060FFFFFFFF
30FF3000000080E0FFFFFFFF
002000000000101000000000
ENDCHAR
STARTCHAR  216B
ENCODING  8555
SWIDTH  1000 0
DWIDTH  16 0
BBX  13 13 1 -3
BITMAP
00FF6000000060FFFFFFFFFFFF
00C0E0100010E0C0A0FFE0FF80
0020F0800080F01040FF60FF10
000080F020F0800040FF60FF10
000010F0FFE0100040FF60FF10
000000A0FF80000040FF60FF10
000000C0FFA0000040FF60FF10
000040FFA0FF200040FF60FF10
0000E0C000E0A00040FF60FF10
0060FF300040FF3060FF80FF30
00E0A0000000C0C0FFFFFFFFFF
30E02000000030E0E0FFFFFFF0
00000000000000000000000000
ENDCHAR
STARTCHAR  2170
ENCODING  8560
SWIDTH  1000 0
DWIDTH  17 0
BBX  3 10 7 0
BITMAP
40FF10
208010
000000
40FF10
40FF10
40FF10
40FF10
40FF10
40FF10
40FF10
ENDCHAR
STARTCHAR  2171
ENCODING  8561
SWIDTH  1000 0
DWIDTH  16 0
BBX  6 10 5 0
BITMAP
40FF1040FF10
208010208010
000000000000
40FF1040FF10
40FF1040FF10
40FF1040FF10
40FF1040FF10
40FF1040FF10
40FF1040FF10
40FF1040FF10
ENDCHAR
STARTCHAR  2172
ENCODING  8562
SWIDTH  1000 0
DWIDTH  16 0
BBX  9 10 3 0
BITMAP
40FF1040FF1040FF10
208010208010208010
000000000000000000
40FF1040FF1040FF10
40FF1040FF1040FF10
40FF1040FF1040FF10
40FF1040FF1040FF10
40FF1040FF1040FF10
40FF1040FF1040FF10
40FF1040FF1040FF10
ENDCHAR
STARTCHAR  2173
ENCODING  8563
SWIDTH  1000 0
DWIDTH  16 0
BBX  10 11 3 -1
BITMAP
40FF1000000000000000
20801000000000000000
00000000000000000000
40FF10FF8000000080FF
40FF10C0F0000000F0C0
40FF1030FF600060FF30
40FF1000C0C000C0C000
40FF100040FF60FF4000
40FF100000E0FFE00000
40FF10000060FF600000
00000000000000000000
ENDCHAR
STARTCHAR  2174
ENCODING  8564
SWIDTH  1000 0
DWIDTH  16 0
BBX  7 9 4 -1
BITMAP
20100000001020
FF8000000080FF
A0F0000000F0A0
20FF600060FF20
00C0C000C0C000
0060FF40FF6000
0000F0FFF00000
000080FF800000
00001060100000
ENDCHAR
STARTCHAR  2175
ENCODING  8565
SWIDTH  1000 0
DWIDTH  17 0
BBX  10 11 3 -1
BITMAP
00000000000000102000
0000000000000040FF10
00000000000000106000
20100000001020102000
FFA0000000A0FF40FF10
A0F0100010F0A040FF10
20FF600060FF2040FF10
00C0E000E0A00040FF10
0040FF80FF400040FF10
0000E0FFE0000040FF10
000060FF60000040FF10
ENDCHAR
STARTCHAR  2176
ENCODING  8566
SWIDTH  1000 0
DWIDTH  16 0
BBX  11 11 2 -1
BITMAP
0000000000001020102000
00000000000040FF60FF10
0000000000001060206000
2000000000201020102000
FF60000080FF40FF60FF10
A0C00000E0A040FF60FF10
40FF2020FF4040FF60FF10
00E08080E00040FF60FF10
0080E0E0800040FF60FF10
0030FFFF300040FF60FF10
0000E0E0000040FF60FF10
ENDCHAR
STARTCHAR  2177
ENCODING  8567
SWIDTH  1000 0
DWIDTH  16 0
BBX  12 11 2 -1
BITMAP
000000000040FF60FF60FF10
000000000020802080208010
000000000000000000000000
FF400040FF40FF60FF60FF10
E0800080E040FF60FF60FF10
80E000E08040FF60FF60FF10
30FF30FF2040FF60FF60FF10
00E0C0E00040FF60FF60FF10
00A0FF800040FF60FF60FF10
0040FF400040FF60FF60FF10
000000000000000000000000
ENDCHAR
STARTCHAR  2178
ENCODING  8568
SWIDTH  1000 0
DWIDTH  15 0
BBX  9 12 3 -2
BITMAP
102000000000000000
40FF10000000000000
106000000000000000
102000200000002000
40FF10FF600060FF00
40FF10A0F030F0A000
40FF1000E0FFE01000
40FF100080FFA00000
40FF1020F0F0F02000
40FF10C0C000C0C000
40FF20E0200020E020
000000000000000000
ENDCHAR
STARTCHAR  2179
ENCODING  8569
SWIDTH  1000 0
DWIDTH  15 0
BBX  7 9 4 -1
BITMAP
00200000002000
00FF400040FF00
00A0E020E0A000
0010E0FFE01000
000080FF800000
0010E0FFE01000
00A0E010E0A000
20F0300030F020
00200000002000
ENDCHAR
STARTCHAR  221E
ENCODING  8734
SWIDTH  1000 0
DWIDTH  16 0
BBX  12 5 2 1
BITMAP
20C0FFC0400030C0FFE03000
C0802060F0C0F0802080E000
FF20000080FFA0000010FF10
E0802060F0C0F0802080E000
30E0FFE0400030C0FFE03000
ENDCHAR
STARTCHAR  2234
ENCODING  8756
SWIDTH  1000 0
DWIDTH  16 0
BBX  8 8 4 0
BITMAP
000000C0C0000000
000000C0C0000000
0000000000000000
0000000000000000
0000000000000000
0000000000000000
C0C000000000E0C0
C0C000000000C0C0
ENDCHAR
STARTCHAR  2235
ENCODING  8757
SWIDTH  1000 0
DWIDTH  16 0
BBX  8 8 4 0
BITMAP
C0C000000000C0C0
C0C000000000E0C0
0000000000000000
0000000000000000
0000000000000000
0000000000000000
000000C0C0000000
000000C0C0000000
ENDCHAR
STARTCHAR  2460
ENCODING  9312
SWIDTH  1000 0
DWIDTH  16 0
BBX  13 12 1 -2
BITMAP
00000020A0E0FFE08010000000
000060FFE0A080A0F0F0300000
0030FFA010A0FF1010C0E01000
00C0E00040E0FF100010F08000
10FF60000040FF10000080E000
40FF20000040FF10000060FF00
40FF20000040FF10000060FF10
10FF60000040FF10000080E000
00C0E0000040FF100010F08000
0030FFA01040FF1020C0E01000
000060FFE08080A0F0F0300000
00000030A0E0FFE08010000000
ENDCHAR
STARTCHAR  2461
ENCODING  9313
SWIDTH  1000 0
DWIDTH  16 0
BBX  13 12 2 -2
BITMAP
00000020A0E0FFE08010000000
000060FFF0FFFFFFFFF0300000
0030FFA0A0C060E0E0E0E01000
00C0E000E0100060FF10F08000
10FF600020000080E00080E000
40FF2000000030F0400060FF00
40FF20000020E060000060FF10
10FF600010E08000000080E000
00C0E000C0A020202010F08000
0030FFA0FFFFFFFFFFE0E01000
000060FFFFE0C0F0FFF0300000
00000030A0E0FFE08010000000
ENDCHAR
STARTCHAR  2462
ENCODING  9314
SWIDTH  1000 0
DWIDTH  16 0
BBX  13 12 2 -2
BITMAP
00000030A0E0FFE08010000000
000060FFE0A080A0F0F0300000
0030FFA01060A06020E0E01000
00C0E000408000A0A010F08000
10FF600000000080E00080E000
40FF20000080FFFF400060FF10
40FF200000103060800060FF00
10FF600060100000600080E000
00C0E000808010406010F08000
0030FFA01080A06020E0E01000
000060FFE08080A0F0E0300000
00000020A0E0FFE08010000000
ENDCHAR
STARTCHAR  2463
ENCODING  9315
SWIDTH  1000 0
DWIDTH  16 0
BBX  13 12 2 -2
BITMAP
00000020A0E0FFE08010000000
000060FFE0A080A0F0F0300000
0030FFA01000C0FF30E0F01000
00C0E0000080E0FF1010F08000
10FF600040E060FF100080E000
40FF2010E04040FF100060FF10
40FF20C0A02060FF100060FF00
10FF60FFFFFFFFFF000080E000
00C0E060606080FF1010F08000
0030F0A0100040FF30E0E01000
000060F0E0A080A0F0F0300000
00000020A0E0FFE08010000000
ENDCHAR
STARTCHAR  2464
ENCODING  9316
SWIDTH  1000 0
DWIDTH  16 0
BBX  13 12 2 -2
BITMAP
00000020A0E0FFE08010000000
000060FFE0A0A0C0F0F0300000
0030FFA010F0FFFF30E0E01000
00C0E00020E060600010F08000
10FF600040A00000000080E000
40FF200060F0E0A0000060FF10
40FF200010400040600060FF00
10FF600060100000600080E000
00C0E000808010603010F08000
0030FFA01080A04020E0E01000
000060FFE0A080A0F0F0300000
00000020A0E0FFE08010000000
ENDCHAR
STARTCHAR  2465
ENCODING  9317
SWIDTH  1000 0
DWIDTH  16 0
BBX  13 12 1 -2
BITMAP
00000020A0E0FFE08010000000
000060F0E0A080A0F0F0300000
0030F0A01000A01010E0E01000
00C0E0000080C0000010F08000
10FF600060FFFFE0200080E000
40FF2000FFFF60E0C00060FF00
40FF2030FF400060FF0060FF10
10FF6040FF200060FF1080E000
00C0E010F0A030C0C010F08000
0030FFA060FFFFF040E0F01000
000060FFE0A0C0A0F0F0300000
00000020A0E0FFE08010000000
ENDCHAR
STARTCHAR  2466
ENCODING  9318
SWIDTH  1000 0
DWIDTH  16 0
BBX  13 12 2 -2
BITMAP
00000020A0E0FFE08010000000
000060F0F0C0A0C0FFE0300000
0030FFA080FFFFFF80E0E01000
00C0E000206060E01010F08000
10FF6000000000C0000080E000
40FF200000004080000060FF00
40FF200000008040000060FF10
10FF60000000E010000080E000
00C0E0000020C0000010F08000
0030FFA01020600020E0E01000
000060FFE0A080A0F0F0300000
00000020A0E0FFE08010000000
ENDCHAR
STARTCHAR  2467
ENCODING  9319
SWIDTH  1000 0
DWIDTH  16 0
BBX  13 12 2 -2
BITMAP
00000020A0E0FFE08010000000
000060F0E0A0A0A0F0F0300000
0030FFA080F0FFE060E0E01000
00C0E030FFA060C0F020F08000
10FF6030FF8040A0FF0080E000
40FF2000E0FFFFFFA00060FF00
40FF2010F0E0A0F0E00060FF10
10FF6040FF200060FF1080E000
00C0E020FF8030C0E010F08000
0030FFA080FFFFF060C0E01000
000060F0E0C0C0A0F0E0300000
00000020A0E0FFE08010000000
ENDCHAR
STARTCHAR  2468
ENCODING  9320
SWIDTH  1000 0
DWIDTH  16 0
BBX  13 12 2 -2
BITMAP
00000020A0E0FFE08010000000
000060FFE0A0A0A0F0F0300000
0030FFA060F0FFE040E0E01000
00C0E010F0C060E0E010F08000
10FF6040FF200040FF1080E000
40FF2020FF8030FFFF0060FF00
40FF200080FFFFFF800060FF10
10FF60000020C0E0000080E000
00C0E0000000E0300010F08000
0030FFA01030A00010E0E01000
000060FFE08080A0F0E0300000
00000020A0E0FFE08010000000
ENDCHAR
STARTCHAR  2469
ENCODING  9321
SWIDTH  1000 0
DWIDTH  16 0
BBX  13 12 2 -2
BITMAP
00000030A0E0FFE08010000000
000060FFFFA080C0F0E0300000
0030FFFFFF20C0FFF0E0E01000
00C0E0F0FF80E060F0C0F08000
10FF6060FFE0400080F080E000
40FF2040FFFF200040FF60FF00
40FF2040FFFF200040FF60FF10
10FF6040FFE0400080F080E000
00C0E040FFA0C030E0C0F08000
0030FFE0FF30E0FFFFF0E01000
000060FFFFA080E0FFE0300000
00000030A0E0FFE08010000000
ENDCHAR
STARTCHAR  2474
ENCODING  9332
SWIDTH  1000 0
DWIDTH  16 0
BBX  13 12 2 -2
BITMAP
00801000000000000000404000
30F0100000A0FF10000080C000
80A0000080F0FF10000020FF10
A08000002060FF10000000E040
E04000000040FF10000000C060
E04000000040FF10000000A060
E04000000040FF10000000A060
C06000000040FF10000000C060
A08000000040FF10000000F030
60C000000040FF10000030F000
10F0200000000000000080A000
00200000000000000000001000
ENDCHAR
STARTCHAR  2475
ENCODING  9333
SWIDTH  1000 0
DWIDTH  16 0
BBX  13 11 1 -2
BITMAP
00203000000020000000104000
0080A00020E0FFF0400040E000
00E04000A0C060E0E00000F030
20FF0000E0200040FF1000A060
40E00000000000A0C0000080A0
40C000000000A0E010000080A0
40E0000000A0E01000000080A0
30E00000A0E03020200000A080
00F02000FFFFFFFFFF1000E060
00C0800060606060600020F010
00406000000000000000308000
ENDCHAR
STARTCHAR  2476
ENCODING  9334
SWIDTH  1000 0
DWIDTH  16 0
BBX  13 12 1 -2
BITMAP
00206000000010100000108000
0080A00000C0FFF0600010FF20
00E0600080E060A0F01000C060
00FF200020200000F0300080A0
20F0000000103060FF100060C0
30E000000080FFFFE0000040E0
30E00000003080C0FF300040E0
20F0000020000000C0800060C0
00F02000E0400010E06000A080
00C0600040F0C0E0C00000E040
0060C00000104030000030F000
00001000000000000000001000
ENDCHAR
STARTCHAR  2477
ENCODING  9335
SWIDTH  1000 0
DWIDTH  17 0
BBX  13 12 2 -2
BITMAP
00802000000000000000308000
10FF10000000A0FF100030F000
60C000000040FFFF100000F030
8080000010E0A0FF100000A060
A060000080E040FF1000008080
C0600030F03040FF10000080A0
C06000C0A02060FF30000080A0
A08000FFFFFFFFFFFF0000A080
60A00060606080FF600000E060
30F01000000040FF100020FF10
00C0300000000000000040A000
00000000000000000000000000
ENDCHAR
STARTCHAR  2478
ENCODING  9336
SWIDTH  1000 0
DWIDTH  15 0
BBX  13 12 1 -2
BITMAP
00000000000000000000000000
00808000002020201000606000
00E0400010FFFFFF800060E000
20FF100030F06060300010FF20
40E0000060C00000000000E040
60C00000A0E0C080100000A060
60A0000080C080E0A00000A080
60C0000000000020F00000A060
40E00000C0200020F00000E040
10FF1000A0C060C0A00010FF10
00C0600010A0E080000060E000
00404000000000000000404000
ENDCHAR
STARTCHAR  2479
ENCODING  9337
SWIDTH  1000 0
DWIDTH  16 0
BBX  13 12 2 -2
BITMAP
00401000000000000000000000
00E040000000C0100000608000
30F000000040E000000040E000
60C0000000C06000000000F020
A080000060FFFFA0100000C060
A0800000FFFF80F0A00000A060
A0600030FF600060FF0000A080
A0800040FF200060FF1000A060
80A00010F0A030C0E00000E040
40E0000060FFFFF0300010FF10
00F0400000204010000080C000
00401000000000000000203000
ENDCHAR
STARTCHAR  247A
ENCODING  9338
SWIDTH  1000 0
DWIDTH  16 0
BBX  13 12 2 -2
BITMAP
00100000000000000000000000
00A06000202020202000608000
10F03000FFFFFFFFA00040F000
40E00000606060E0600000F030
60C00000000000F0200000C060
80A00000000040E0000000A080
80A000000000A0800000008080
80A000000000E040000000A080
60C000000030F000000000C060
20F010000080A000000010F020
00E0600000404000000060E000
00402000000000000000204000
ENDCHAR
STARTCHAR  247B
ENCODING  9339
SWIDTH  1000 0
DWIDTH  16 0
BBX  13 12 2 -2
BITMAP
00804000000020000000804000
00F0300040F0FFE0300080A000
40F00010F0C060E0E00030F000
60C00040FF200060FF1000FF20
80A00020FFA040C0E00000E040
A0800000C0FFFFFF800000E060
A0800010F0E0A0E0E00000E040
80A00040FF200040FF1000E030
60C00020FF8030C0E00010FF10
10FF100080FFFFF0400060E000
00C06000002040100000A08000
00100000000000000000001000
ENDCHAR
STARTCHAR  247C
ENCODING  9340
SWIDTH  1000 0
DWIDTH  16 0
BBX  13 12 2 -2
BITMAP
00000000000000000000000000
00C04000000020000000806000
20FF100040F0FFE0300060C000
60C00010F0C060E0E00010FF10
A0800040FF200060FF1000F030
A0800020FF8030FFFF0000E040
C060000080FFFFFFA00000E060
A08000000020A0F0000000E040
80A000000000E060000010FF10
30F000000030E010000040E000
00E04000002040000000808000
00100000000000000000000000
ENDCHAR
STARTCHAR  247D
ENCODING  9341
SWIDTH  1000 0
DWIDTH  16 0
BBX  13 12 2 -1
BITMAP
00100000000000000000000000
00C06000000000000000208000
10FF20A0FF1060E0F08010E000
40E060FFFF40F080A0FF60F010
80A04080FFC0800000C0E0E040
A0800040FFF030000060FFE060
A0800040FFFF10000040FFE060
A0800040FFF020000060FFE060
80A00040FFE0600000A0E0E040
40E00040FF80E04060FF80F010
00F03040FF10C0FFFFC020C000
00804000000000304000106000
ENDCHAR
STARTCHAR  247E
ENCODING  9342
SWIDTH  1000 0
DWIDTH  15 0
BBX  13 12 1 -1
BITMAP
00100000000000000000001000
00A08000000000000000808000
00F03000A0FF10A0FF1040E000
30F00080F0FF60F0FF1010FF10
60C0002060FF2060FF1000E030
80A0000040FF1040FF1000E060
80A0000040FF1040FF1000C060
60A0000040FF1040FF1000E040
40C0000040FF1040FF1000F030
20F0100040FF1040FF1020F000
00E0600040FF1040FF1060A000
00604000000000000000404000
ENDCHAR
STARTCHAR  247F
ENCODING  9343
SWIDTH  1000 0
DWIDTH  16 0
BBX  13 12 1 -2
BITMAP
0040800000000000000060A000
00A08080E01080E0A01060FF20
00F0C0FFFFA0C040E0A000F060
20FF3060FFFF300060F000A0A0
30E00040FF200000A0E00060C0
40E00040FF100040F0400040C0
40E00040FF1030F060000060C0
30F00040FF20E08000000080A0
00FF2040FFE0E040404000C080
00C06040FFFFFFFFFFFF30FF40
0060A01030303030303080E000
00000000000000000000001000
ENDCHAR
STARTCHAR  2480
ENCODING  9344
SWIDTH  1000 0
DWIDTH  16 0
BBX  13 11 2 -1
BITMAP
00803000000000101000304000
00F020A0FF10A0FFF06060A000
40E060FFFF80F06080F020F000
60A060A0FF30300000C030E030
80800040FF10102060F020A060
A0600040FF1040FFFFFF00A060
A0600040FF101060A0F080A060
80800040FF4010000080A0C040
40C00040FFE0800000C080F010
10F01040FF30A0E0E08040E000
00803000000000000000606000
ENDCHAR
STARTCHAR  2481
ENCODING  9345
SWIDTH  1000 0
DWIDTH  16 0
BBX  14 12 1 -2
BITMAP
0080600000000000000000600000
00E040A0FF100000A0FF20F02000
10F080F0FF100040FFFF10A08000
40C02060FF1000E0A0FF1060A000
60A00040FF1080C040FF1030E000
60A00040FF30F03040FF1020E000
60A00040FFC0C02060FF3020E000
40C00040FFFFFFFFFFFFFF30C000
20E00040FF60606080FF6060A000
00E03040FF10000040FF10C06000
0080600000000000000010C01000
0000000000000000000000000000
ENDCHAR
STARTCHAR  2482
ENCODING  9346
SWIDTH  1000 0
DWIDTH  16 0
BBX  13 12 2 -1
BITMAP
00200000000000000000000000
00C06010200010202010801000
10F010C0FF10C0FFFF60C06000
40C080FFFF10E060602060A000
80A03060FF20E000000030E000
80800040FF40E0A0800000FF00
A0600040FF60F0A0F0A000F010
80800040FF10100060F000F000
60A00040FF60300060FF20E000
30E00040FF80A020C0C060C000
00E03040FF10A0F0E020A06000
00603000000000000000801000
ENDCHAR
STARTCHAR  2483
ENCODING  9347
SWIDTH  1000 0
DWIDTH  16 0
BBX  13 12 2 -2
BITMAP
00604000000000000000803000
00E03060C0100080100080A000
20E030F0FF1020F0100040E000
60A080E0FF1080A0000000FF10
80801040FF10E040000000E030
80800040FF60FFFFE03000E040
80800040FFFFFF60E0E000E030
60A00040FFFF200040FF10E020
40C00040FFE08030C0E010F000
10F01040FF40F0FFFF6060C000
00A06010600010402000A06000
00100000000000000000000000
ENDCHAR
STARTCHAR  2484
ENCODING  9348
SWIDTH  1000 0
DWIDTH  16 0
BBX  13 12 2 -2
BITMAP
00401000000000000000402000
00E03010201020202020A08000
30E000C0FF60FFFFFFFF60C000
60A080FFFF30606080E010F000
80802060FF10000060A000E020
A0600040FF100000C06000E030
A0600040FF100000F01000E040
A0600040FF100040E00000E030
60A00040FF100080800000F010
30E00040FF1000E0400040E000
00E03040FF1000E01000A08000
00401000000000000000302000
ENDCHAR
STARTCHAR  2485
ENCODING  9349
SWIDTH  1000 0
DWIDTH  16 0
BBX  13 12 2 -2
BITMAP
00100000000000000000001000
00E04010200000101000608000
20F000C0FF1080FFF06030E000
60A080FFFF40FF80A0F010FF10
80801060FF40FF60A0FF10E040
A0600040FF20FFFFFFFF20E060
A0600040FFC0E0A0A0E0E0C060
80800040FFFF20000060FFE040
60A00040FFE0A03030C0E0F020
20E00040FF40E0FFFFF060E000
00E04010600000404010608000
00100000000000000000001000
ENDCHAR
STARTCHAR  2486
ENCODING  9350
SWIDTH  1000 0
DWIDTH  16 0
BBX  13 12 2 -1
BITMAP
00000000000000000000000000
00A04000000000100000A04000
10F010A0FF20C0FFE02080A000
40C060FFFFA0C060E0C030E000
80A060A0FFF0300060FF10F010
A0800040FFF0200080FF10E020
A0600040FFC0A030FFFF00C030
A0600040FF30E0FFFF8000E030
80800040FF1010E0E00000F010
40C00040FF1010F0400040E000
00F02040FF1040C00000A08000
00603000000000100000803000
ENDCHAR
STARTCHAR  2487
ENCODING  9351
SWIDTH  1000 0
DWIDTH  16 0
BBX  15 11 0 -2
BITMAP
0020A0000020000000001000604000
0080A020E0FFF04000C0FFE080A000
00C040A0E060E0E080E060F0E0E000
00F010E0400040FFE0400080F0FF20
10F000000000A0C0E0200040FFFF30
20E0000000A0E020E0200040FFFF40
10F00000A0E01000E0400080F0FF30
00F010A0E0302020A0C030E0C0FF10
00A060FFFFFFFFFF30E0FFF060E000
0060C0606060606000104010808000
000030000000000000000000201000
ENDCHAR
STARTCHAR  2488
ENCODING  9352
SWIDTH  1000 0
DWIDTH  16 0
BBX  9 12 3 -2
BITMAP
0000C0FF1000000000
00C0FFFF1000000000
30F080FF1000000000
001040FF1000000000
000040FF1000000000
000040FF1000000000
000040FF1000000000
000040FF1000000000
000040FF1000000000
000040FF1000000000
000040FF1000106000
000040FF100030E000
ENDCHAR
STARTCHAR  2489
ENCODING  9353
SWIDTH  1000 0
DWIDTH  15 0
BBX  10 12 3 -2
BITMAP
0030C0FFE06000000000
20F0E080A0FF60000000
A0E0000000A0F0000000
E06000000040FF100000
101000000080F0000000
0000000030F080000000
00000020F0A000000000
000020E0C00000000000
0020E0C0000000000000
20E0C000000000000000
E0F08080808080106000
FFFFFFFFFFFFFF40E000
ENDCHAR
STARTCHAR  248A
ENCODING  9354
SWIDTH  1000 0
DWIDTH  15 0
BBX  11 13 2 -2
BITMAP
0000000020100000000000
000080F0FFF08000000000
0060FFA06080FF80000000
006080000000A0E0000000
00000000000080E0000000
000000204060F080000000
000010FFFFFFFF10000000
00000060A0C0F0C0000000
00000000000040FF300000
00200000000000F0600000
20FF3000000010FF300000
00A0E0300020C0A0106000
000080E0F0E0800030E000
ENDCHAR
STARTCHAR  248B
ENCODING  9355
SWIDTH  1000 0
DWIDTH  16 0
BBX  12 12 2 -2
BITMAP
00000000C0FF100000000000
00000060FFFF100000000000
000010E0C0FF100000000000
000080E040FF100000000000
0020F04040FF100000000000
00A0C00040FF100000000000
40FF300040FF100000000000
E0A0202060FF302000000000
FFFFFFFFFFFFFFFF00000000
6060606080FF606000000000
0000000040FF100000106000
0000000040FF10000030E000
ENDCHAR
STARTCHAR  248C
ENCODING  9356
SWIDTH  1000 0
DWIDTH  16 0
BBX  11 12 3 -2
BITMAP
0040FFFFFFFFF000000000
0080F08080806000000000
00A0C00000000000000000
00E0800000000000000000
00FF604030000000000000
30FFFFFFFFE02000000000
20E0A04040E0E000000000
000000000010F040000000
000000000000E060000000
A08000000000F020000000
40F030000080A000106000
0040C0C0C080000030E000
ENDCHAR
STARTCHAR  248D
ENCODING  9357
SWIDTH  1000 0
DWIDTH  15 0
BBX  11 13 2 -2
BITMAP
0000000020000000000000
00000000E0800000000000
00000060FF200000000000
000000E0A0000000000000
000060FF20000000000000
0000FFFFFFE04000000000
00E0FFE080C0FF40000000
10FFFF000000C0C0000000
40FF3000000060FF100000
30FF2000000060FF000000
10F080000000C0C0000000
0060FFA080C0FF40106000
000060E0FFE0400030F000
ENDCHAR
STARTCHAR  248E
ENCODING  9358
SWIDTH  1000 0
DWIDTH  16 0
BBX  9 13 3 -3
BITMAP
C0FFFFFFFFFFE00000
6080808080E0A00000
0000000010FF400000
0000000060F0000000
00000000A0A0000000
00000000F060000000
00000040FF10000000
00000080C000000000
000000E08000000000
000010FF3000000000
000060E00000106000
0000A0A0000030F000
000010100000000000
ENDCHAR
STARTCHAR  248F
ENCODING  9359
SWIDTH  1000 0
DWIDTH  16 0
BBX  12 12 1 -2
BITMAP
000030E0FFC0200000000000
0010F0C080E0C00000000000
0040FF200060FF1000000000
0020FF8040C0F00000000000
0000F0FFFFFFA00000000000
0080FFC0A0C0FF6000000000
10F080000000A0E000000000
40FF2000000060FF10000000
30FF2000000060FF00000000
10F0A0000000C0E000000000
0060FFA080C0FF4000106000
000060E0FFE040000030F000
ENDCHAR
STARTCHAR  2490
ENCODING  9360
SWIDTH  1000 0
DWIDTH  15 0
BBX  10 13 2 -3
BITMAP
000060E0FFE040000000
0060FFC080E0FF400000
00F0A0000000C0C00000
30FF3000000060FF0000
40FF2000000040FF1000
10FF60000000FFFF0000
00A0F06030A0FFE00000
0010A0FFFFFFFF000000
0000002080FF60000000
00000000A0E000000000
00000030FF6000004000
000000A0E0000000E010
00000030300000000000
ENDCHAR
STARTCHAR  2491
ENCODING  9361
SWIDTH  1000 0
DWIDTH  16 0
BBX  15 13 0 -3
BITMAP
0000C0FF100040E0FFC03000000000
00A0FFFF1020F0C080E0E010000000
40FFA0FF10A0E0000010F080000000
003040FF10F060000000A0C0000000
000040FF40FF3000000060F0000000
000040FF60FF2000000040FF100000
000040FF60FF1000000040FF100000
000040FF40FF3000000060FF000000
000040FF20FF6000000080E0000000
000040FF10C0A0000000E080000000
000040FF1060FF8030A0F020106000
000040FF1000A0FFFFF0600030F000
000000000000002040100000000000
ENDCHAR
STARTCHAR  2492
ENCODING  9362
SWIDTH  1000 0
DWIDTH  16 0
BBX  12 12 1 -2
BITMAP
0010C0FF1000A0FF10000000
00C0FFFF1080FFFF10000000
30F080FF20E080FF10000000
001040FF101040FF10000000
000040FF100040FF10000000
000040FF100040FF10000000
000040FF100040FF10000000
000040FF100040FF10000000
000040FF100040FF10000000
000040FF100040FF10000000
000040FF100040FF10106000
000040FF100040FF1030F000
ENDCHAR
STARTCHAR  2493
ENCODING  9363
SWIDTH  1000 0
DWIDTH  16 0
BBX  16 12 0 -2
BITMAP
0000C0FF100030C0FFE0600000000000
00A0FFFF1020F0E080A0FF6000000000
40FFA0FF10A0E0100000A0E000000000
003040FF10E08000000040FF10000000
000040FF10301000000080F000000000
000040FF100000000020F0A000000000
000040FF1000000020E0E01000000000
000040FF10000020E0E0100000000000
000040FF100020E0C010000000000000
000040FF1020E0C01000000000000000
000040FF10E0F0808080808000106000
000040FF10FFFFFFFFFFFFFF0030F000
ENDCHAR
STARTCHAR  2494
ENCODING  9364
SWIDTH  1000 0
DWIDTH  15 0
BBX  15 13 0 -2
BITMAP
000000000000000000000000000000
0000C0FF100060E0FFE06000000000
00A0FFFF1060FFA080C0FF40000000
40FFA0FF106080000000E0C0000000
003040FF100000000000A0C0000000
000040FF100000204080FF80000000
000040FF100020FFFFFFFF10000000
000040FF10000060A0C0FFA0000000
000040FF10000000000060FF200000
000040FF10100000000000FF400000
000040FF40FF3000000010FF200000
000040FF10C0C0100010C0A0106000
000040FF100080E0E0E0800030F000
ENDCHAR
STARTCHAR  2495
ENCODING  9365
SWIDTH  1000 0
DWIDTH  16 0
BBX  16 12 0 -2
BITMAP
0010C0FF1000000010E0FF1000000000
10C0FFFF1000000080FFFF1000000000
20C060FF10000040FFA0FF1000000000
000040FF100010E0A040FF1000000000
000040FF1000A0E01040FF1000000000
000040FF1060FF400040FF1000000000
000040FF30F0A0000040FF1000000000
000040FFC0F030202060FF3000000000
000040FFFFFFFFFFFFFFFFFF00000000
000040FF606060606080FF6000000000
000040FF100000000040FF1000106000
000040FF100000000040FF100030F000
ENDCHAR
STARTCHAR  2496
ENCODING  9366
SWIDTH  1000 0
DWIDTH  15 0
BBX  15 12 0 -2
BITMAP
0000C0FF1000C0FFFFFFFF10000000
00C0FFFF1000F0A080808010000000
30F080FF1010FF2000000000000000
001040FF1040F00000000000000000
000040FF1060E04040200000000000
000040FF10A0FFFFFFFF8000000000
000040FF1060E0402080FF60000000
000040FF100000000000C0C0000000
000040FF100000000000A0E0000000
000040FF20FF20000000C0A0000000
000040FF10A0C0100060F030106000
000040FF100080E0E0C0400030F000
ENDCHAR
STARTCHAR  2497
ENCODING  9367
SWIDTH  1000 0
DWIDTH  16 0
BBX  15 13 0 -2
BITMAP
000000000000000010000000000000
0010C0FF10000000E0800000000000
10C0FFFF10000060FF200000000000
20E060FF100000E0A0000000000000
000040FF100060FF20000000000000
000040FF1000FFFFFFE04000000000
000040FF10E0FFE080C0FF40000000
000040FF20FFFF000000C0C0000000
000040FF40FF3000000060FF100000
000040FF40FF2000000060FF100000
000040FF20F080000000C0C0000000
000040FF1080FFA080C0FF40106000
000040FF100060E0FFE0400030F000
ENDCHAR
STARTCHAR  2498
ENCODING  9368
SWIDTH  1000 0
DWIDTH  15 0
BBX  14 13 0 -3
BITMAP
0010C0FF10F0FFFFFFFFFF400000
10C0FFFF1060808080A0FF100000
30F080FF100000000080C0000000
001040FF1000000000E080000000
000040FF1000000010FF30000000
000040FF1000000060E000000000
000040FF10000000A0A000000000
000040FF10000000F06000000000
000040FF10000030FF1000000000
000040FF10000080C00000000000
000040FF100000C0800000106000
000040FF100000F040000030F000
0000000000000010000000000000
ENDCHAR
STARTCHAR  2499
ENCODING  9369
SWIDTH  1000 0
DWIDTH  16 0
BBX  15 12 0 -2
BITMAP
0010C0FF100040E0FFC02000000000
00C0FFFF1010F0C080E0C000000000
30C080FF1040FF200060FF10000000
000040FF1020FF8040C0E000000000
000040FF1000F0FFFFFFA000000000
000040FF1080FFC0A0C0FF40000000
000040FF20F080000000A0E0000000
000040FF40FF2000000060FF100000
000040FF40FF2000000060FF000000
000040FF20F080000000C0C0000000
000040FF1060FFA080C0FF40106000
000040FF100060E0FFE0400030F000
ENDCHAR
STARTCHAR  249A
ENCODING  9370
SWIDTH  1000 0
DWIDTH  15 0
BBX  14 13 0 -3
BITMAP
0000C0FF100060E0FFE040000000
00A0FFFF1080FFA080C0FF600000
30FFC0FF30FF80000000A0E00000
003040FF60FF2000000040FF1000
000040FF40FF40000000E0FF0000
000040FF10C0E0602060FFF00000
000040FF1010C0FFFFFFFF100000
000040FF1000003040FF80000000
000040FF1000000060F010000000
000040FF10000000E0A000000000
000040FF10000040FF2000106000
000040FF100000C0A0000030F000
0000000000000010200000000000
ENDCHAR
STARTCHAR  249B
ENCODING  9371
SWIDTH  1000 0
DWIDTH  16 0
BBX  16 12 1 -2
BITMAP
0030C0FFE060000020C0FFE030000000
20F0C080A0FF6000E0C080E0F0100000
A0E0000000A0E060E0000010F0800000
E06000000040FFC060000000A0E00000
301000000080F0E03000000060FF0000
0000000030F0A0E02000000040FF1000
00000020F0E010E02000000040FF1000
000020E0E02000E03000000060F00000
0020E0E0100000A060000000A0E00000
20E0C01000000060E0000020F0800000
E0F0808080808010E0C080E0F0206000
FFFFFFFFFFFFFF1020C0F0E03030F000
ENDCHAR
STARTCHAR  3001
ENCODING  12289
SWIDTH  1000 0
DWIDTH  16 0
BBX  5 4 1 -2
BITMAP
0080300000
00A0F06000
000080FF60
0000006010
ENDCHAR
STARTCHAR  3002
ENCODING  12290
SWIDTH  1000 0
DWIDTH  16 0
BBX  3 3 2 -1
BITMAP
60E080
E020E0
80E0A0
ENDCHAR
STARTCHAR  3003
ENCODING  12291
SWIDTH  1000 0
DWIDTH  16 0
BBX  5 4 1 6
BITMAP
0040104000
10FF80FF30
60F080E000
2060404000
ENDCHAR
STARTCHAR  3005
ENCODING  12293
SWIDTH  1000 0
DWIDTH  16 0
BBX  8 10 4 -1
BITMAP
0000001000000000
000060F000000000
0010FFA030308040
00A0FFFFFFFFFF80
60FF400000A0E010
A060301040FF4000
0000E0F0FF800000
000010C0FF300000
00000000A0F03000
0000000000801000
ENDCHAR
STARTCHAR  3008
ENCODING  12296
SWIDTH  1000 0
DWIDTH  16 0
BBX  5 12 8 -2
BITMAP
0000000000
0000006080
000010F040
000080C000
0020F03000
00A0A00000
00E0600000
0060E00000
0000E06000
000040F010
000000C080
0000003040
ENDCHAR
STARTCHAR  3009
ENCODING  12297
SWIDTH  1000 0
DWIDTH  16 0
BBX  5 12 2 -2
BITMAP
0000000000
40C0000000
10E0400000
0060E00000
0000E06000
000040E010
000010FF30
000080C000
0020F03000
00A0A00000
30F0100000
2040000000
ENDCHAR
STARTCHAR  300A
ENCODING  12298
SWIDTH  1000 0
DWIDTH  16 0
BBX  6 12 8 -2
BITMAP
000010302020
000080A0C080
0020F060F010
00A0A0C08000
30F060E01000
A080E0600000
C060E0400000
60E080A00000
00E060F02000
0080A0A08000
0010F060F010
000060106010
ENDCHAR
STARTCHAR  300B
ENCODING  12299
SWIDTH  1000 0
DWIDTH  16 0
BBX  7 12 1 -2
BITMAP
00301030000000
30F060E0100000
00A0A0C0800000
0020F060F01000
0000A0A0C08000
000010F060F010
000000E060F030
000040E060C000
0000C080E06000
0020F060E00000
0080A0C0800000
00403060100000
ENDCHAR
STARTCHAR  300C
ENCODING  12300
SWIDTH  1000 0
DWIDTH  16 0
BBX  4 7 9 3
BITMAP
20FFFFE0
20FF1010
20FF0000
20FF0000
20FF0000
20FF0000
10800000
ENDCHAR
STARTCHAR  300D
ENCODING  12301
SWIDTH  1000 0
DWIDTH  16 0
BBX  3 7 3 -2
BITMAP
001080
0020FF
0020FF
0020FF
0020FF
1030FF
FFFFFF
ENDCHAR
STARTCHAR  300E
ENCODING  12302
SWIDTH  1000 0
DWIDTH  16 0
BBX  4 7 9 2
BITMAP
C0C0C0C0
C0C0C0A0
C0C00000
C0C00000
C0C00000
C0C00000
C0F00000
ENDCHAR
STARTCHAR  300F
ENCODING  12303
SWIDTH  1000 0
DWIDTH  16 0
BBX  4 8 3 -2
BITMAP
00A0E010
00C0C010
00C0C010
00C0C010
00C0C010
C0E0C010
C000C010
C0C0C010
ENDCHAR
STARTCHAR  3010
ENCODING  12304
SWIDTH  1000 0
DWIDTH  16 0
BBX  4 11 10 -2
BITMAP
FFFFF010
FFFF6000
FFF01000
FFC00000
FFA00000
FF800000
FFA00000
FFC00000
FFFF1000
FFFF8000
F0F0E010
ENDCHAR
STARTCHAR  3011
ENCODING  12305
SWIDTH  1000 0
DWIDTH  16 0
BBX  4 11 2 -2
BITMAP
10F0FFFF
0060FFFF
0010F0FF
0000C0FF
0000A0FF
000080FF
0000A0FF
0000C0FF
0010FFFF
0080FFFF
10E0F0F0
ENDCHAR
STARTCHAR  3013
ENCODING  12307
SWIDTH  1000 0
DWIDTH  16 0
BBX  7 5 4 2
BITMAP
20303030303030
C0FFFFFFFFFFFF
00000000000000
20303030303030
C0FFFFFFFFFFFF
ENDCHAR
STARTCHAR  3014
ENCODING  12308
SWIDTH  1000 0
DWIDTH  16 0
BBX  4 12 10 -2
BITMAP
00002000
0040FF30
10E0A000
20FF0000
20FF0000
20FF0000
20FF0000
20FF0000
20FF0000
20FF3000
0080F020
00006000
ENDCHAR
STARTCHAR  3015
ENCODING  12309
SWIDTH  1000 0
DWIDTH  16 0
BBX  3 12 2 -2
BITMAP
002000
60F020
00C0E0
0030FF
0030FF
0030FF
0030FF
0030FF
0030FF
0060FF
40FF60
106000
ENDCHAR
STARTCHAR  3220
ENCODING  12832
SWIDTH  1000 0
DWIDTH  16 0
BBX  15 11 1 -1
BITMAP
000000000000000000000000000000
008060000000000000000000A06000
00E04000000000000000000060C000
30F00000000000000000000020FF10
60C00000000000000000000000E030
80A000FFFFFFFFFFFFFFFFFF00E040
80A00010101010101010101000E040
60C00000000000000000000000E030
30F00000000000000000000020FF10
00E04000000000000000000080C000
006060000000000000000000804000
ENDCHAR
STARTCHAR  3221
ENCODING  12833
SWIDTH  1000 0
DWIDTH  16 0
BBX  15 11 0 -2
BITMAP
003030000000000000000000303000
00A08000101010101010100080C000
00F03030FFFFFFFFFFFFFF3020FF10
30F00000000000000000000000E040
40C00000000000000000000000C060
60C00000000000000000000000A060
40C00000000000000000000000C060
30F00010202020202020202000E040
00F040FFFFFFFFFFFFFFFFFF30F000
00A0A000000000000000000080A000
001010000000000000000000101000
ENDCHAR
STARTCHAR  3222
ENCODING  12834
SWIDTH  1000 0
DWIDTH  16 0
BBX  15 12 0 -2
BITMAP
000000000000000000000000000000
006080000000000000000000808000
00C06030FFFFFFFFFFFFFF3040E000
10FF1000202020202020200010FF20
30E00000000000000000000000E040
60C00000FFFFFFFFFFFF100000A060
60C00000101010101010000000A060
40E00000000000000000000000C060
20FF0010202020202020202000E030
00E040FFFFFFFFFFFFFFFFFF30F000
0080A000000000000000000080A000
001000000000000000000000001000
ENDCHAR
STARTCHAR  3223
ENCODING  12835
SWIDTH  1000 0
DWIDTH  16 0
BBX  15 11 1 -2
BITMAP
006030000000000000000000602000
00F0408080808080A08080E0A08000
40E020FFC0E0FFC0FFE0C0FF40E000
80A020FF0010FF00FF1020FF10FF10
A08020FF0030F000FF1020FF00F030
A08020FF10E08000FF3020FF00E030
808020FF60A00000FFFF60FF00F020
60C020FF10101010101030FF20F000
20F030FFFFFFFFFFFFFFFFA080C000
00C040000000000000000000A04000
000000000000000000000000000000
ENDCHAR
STARTCHAR  3224
ENCODING  12836
SWIDTH  1000 0
DWIDTH  16 0
BBX  15 11 1 -1
BITMAP
000000000000000000000000000000
00C030000000000000000000E02000
30F010A0FFFFFFFFFFFFFF00A08000
80A000102020A0A02020200060C000
A08000000000C0600000000030F000
C0600000A0FFFFFFFFFF200010FF00
C06000001040FF1010FF200010FF00
A08000000060C00000FF200030F000
80A010C0C0FFFFC0C0FFE06060C000
30F020C0C0C0E0C0C0C0C060C08000
00A030000000000000000000C01000
ENDCHAR
STARTCHAR  3225
ENCODING  12837
SWIDTH  1000 0
DWIDTH  16 0
BBX  15 11 1 -2
BITMAP
006040000000203000000000604000
00E04000000060E00000000080A000
20F00000000000801000000030F000
60C000FFFFFFFFFFFFFFFFFF00F030
80A00010104020103040101000E040
80A0000000E0600060E0000000E040
60A0000060E0000000E0600000E040
40E00020F04000000040F01010FF10
00F030C0A00000000000C08060E000
00A060300000000000002020A06000
000000000000000000000000000000
ENDCHAR
STARTCHAR  3226
ENCODING  12838
SWIDTH  1000 0
DWIDTH  16 0
BBX  16 11 0 -2
BITMAP
00004000000000000000000000400000
0020F0100010E0000000000010F02000
0060C0000010FF000000000000A08000
00A080000010FF00204060806060C000
00E04040A0E0FFFFF0E0C0A04040E000
00E040308080FF20000000000030E000
00E040000010FF00000000000040E000
00C060000010FF00000000801060C000
0080A0000010FF20202020FF10A08000
0020F0100010FFFFFFFFFFA010F03000
00004000000000000000000000400000
ENDCHAR
STARTCHAR  3227
ENCODING  12839
SWIDTH  1000 0
DWIDTH  16 0
BBX  15 11 1 -2
BITMAP
004060000040000000400000606000
00C0800020FF000010FF100060E000
10FF200020FF000010FF100010FF10
30F0000020FF000000FF100000E040
40E0000030F0000000F0300000C060
60C0000080C0000000C0600000A060
40E00000E06000000060E00000C060
20FF1080E00000000000E06000F030
00E060E030000000000030E040F000
006080100000000000000010808000
000000000000000000000000000000
ENDCHAR
STARTCHAR  3228
ENCODING  12840
SWIDTH  1000 0
DWIDTH  16 0
BBX  16 11 0 -1
BITMAP
00000000000000000000000000000000
0010E0100010E0000000000000A08000
0060E0000010FF00003020000060E000
00A08000F0FFFFFFFFFF80000010FF10
00C060001030FF2020E080000000E040
00E030000030F00000E080000000C060
00E030000080C00000E080000000C060
00C0600000E0600000E080004000E040
00A0800080E0000000E08020FF20FF10
0040E030F030000000E0FFFFA080C000
00008010400000000010201000604000
ENDCHAR
STARTCHAR  3229
ENCODING  12841
SWIDTH  1000 0
DWIDTH  16 0
BBX  15 10 1 -1
BITMAP
00804000000010E000000000A04000
00F03000000020FF0000000080A000
40E00000000020FF0000000030F000
60A00000000020FF0000000000FF20
808010FFFFFFFFFFFFFFFFF000E040
80800010101030FF1010101000E040
80A00000000020FF0000000000F030
40E00000000020FF0000000020F000
10F03000000020FF0000000080C000
00806000000010F000000000A04000
ENDCHAR
STARTCHAR  4E00
ENCODING  19968
SWIDTH  1000 0
DWIDTH  16 0
BBX  14 2 1 3
BITMAP
FFFFFFFFFFFFFFFFFFFFFFFFFF10
3030303030303030303030303000
ENDCHAR
STARTCHAR  4E01
ENCODING  19969
SWIDTH  1000 0
DWIDTH  16 0
BBX  16 13 0 -3
BITMAP
20FFFFFFFFFFFFFFFFFFFFFFFFFFFF30
0030303030303040FF30303030303000
0000000000000030FF00000000000000
0000000000000030FF00000000000000
0000000000000030FF00000000000000
0000000000000030FF00000000000000
0000000000000030FF00000000000000
0000000000000030FF00000000000000
0000000000000030FF00000000000000
0000000000000030FF00000000000000
0000000000000030FF00000000000000
000000000060FFFFC000000000000000
00000000001030200000000000000000
ENDCHAR
STARTCHAR  4E03
ENCODING  19971
SWIDTH  1000 0
DWIDTH  16 0
BBX  16 14 0 -3
BITMAP
00000000003000000000000000000000
0000000000FF30000000000000000000
0000000000FF30000000000000000000
0000000000FF30000000000000000000
0000000000FF4030406080A0C0E0FF10
3080A0C0E0FFFFFFF0E0C0A080604000
60C0A08060FF40100000000000000000
0000000000FF30000000000000000000
0000000000FF30000000000000000000
0000000000FF30000000000000000000
0000000000FF30000000000000108000
0000000000FF3000000000000030FF00
0000000000FFFFFFFFFFFFFFFFFFA000
00000000003030303030303030200000
ENDCHAR
STARTCHAR  4E07
ENCODING  19975
SWIDTH  1000 0
DWIDTH  16 0
BBX  14 13 1 -3
BITMAP
C0FFFFFFFFFFFFFFFFFFFFFFFFFF
20303040FF303030303030303030
00000030FF000000000000000000
00000030FF000000000000601000
00000030FFFFFFFFFFFFFFFF3000
00000060E0303030303030FF3000
000000A0A0000000000000FF3000
000010F040000000000000FF3000
000080E000000000000000FF3000
0030FF4000000000000000FF3000
20E0A00000000000000010FF2000
80E01000000040FFFFFFFFC00000
0010000000001020202020000000
ENDCHAR
STARTCHAR  4E08
ENCODING  19976
SWIDTH  1000 0
DWIDTH  16 0
BBX  14 13 1 -3
BITMAP
0000000000000020E00000000000
2030303030303040FF3030303030
F0FFFFFFFFFFFFFFFFFFFFFFFFFF
0000000000000030FF0000000000
0000100000000030F00000000000
0030F08010000060E00000000000
000060E0F06000C0800000000000
0000001080F0E0FF200000000000
000000000040FFFFC02000000000
0000000060F0C030C0FF80100000
002060C0FF8000000060E0E06000
C0FFF0A03000000000001080FF60
4030000000000000000000002010
ENDCHAR
STARTCHAR  4E09
ENCODING  19977
SWIDTH  1000 0
DWIDTH  16 0
BBX  14 12 1 -2
BITMAP
0000000000000000000000000000
00FFFFFFFFFFFFFFFFFFFFFFA000
0020202020202020202020202000
0000000000000000000000000000
0000000000000000000000000000
0010FFFFFFFFFFFFFFFFFFFF0000
0000303030303030303030300000
0000000000000000000000000000
0000000000000000000000000000
0000000000000000000000000000
60FFFFFFFFFFFFFFFFFFFFFFFF20
1030303030303030303030303000
ENDCHAR
STARTCHAR  4E0A
ENCODING  19978
SWIDTH  1000 0
DWIDTH  16 0
BBX  16 13 0 -3
BITMAP
00000000000020F00000000000000000
00000000000030FF0000000000000000
00000000000030FF0000000000000000
00000000000030FF3030303030301000
00000000000030FFFFFFFFFFFFFF4000
00000000000030FF0000000000000000
00000000000030FF0000000000000000
00000000000030FF0000000000000000
00000000000030FF0000000000000000
00000000000030FF0000000000000000
00101010101040FF1010101010101000
20FFFFFFFFFFFFFFFFFFFFFFFFFFFF30
00101010101010101010101010101000
ENDCHAR
STARTCHAR  4E0B
ENCODING  19979
SWIDTH  1000 0
DWIDTH  16 0
BBX  16 13 0 -3
BITMAP
20FFFFFFFFFFFFFFFFFFFFFFFFFFFF20
00303030303040FF3030303030303000
00000000000030FF0000000000000000
00000000000030FF0000000000000000
00000000000030FF0030000000000000
00000000000030FF60FFA01000000000
00000000000030FF0040E0F060000000
00000000000030FF00000080F0E00000
00000000000030FF0000000020600000
00000000000030FF0000000000000000
00000000000030FF0000000000000000
00000000000030FF0000000000000000
00000000000000200000000000000000
ENDCHAR
STARTCHAR  4E0C
ENCODING  19980
SWIDTH  1000 0
DWIDTH  16 0
BBX  16 14 0 -3
BITMAP
00000000000000000000000000000000
30FFFFFFFFFFFFFFFFFFFFFFFFFFFF20
0020202040FF20202020FF4020202000
0000000030FF00000000FF3000000000
0000000030FF00000000FF3000000000
0000000030FF00000000FF3000000000
0000000040F000000000FF3000000000
0000000080C000000000FF3000000000
00000000E08000000000FF3000000000
00000060FF2000000000FF3000000000
000010E0A00000000000FF3000000000
0000A0E0100000000000FF3000000000
0020E040000000000000FF3000000000
00001000000000000000401000000000
ENDCHAR
STARTCHAR  4E0D
ENCODING  19981
SWIDTH  1000 0
DWIDTH  16 0
BBX  14 13 1 -3
BITMAP
FFFFFFFFFFFFFFFFFFFFFFFFFFF0
303030303030C0C0303030303020
000000000040FF30000000000000
0000000020E08000002000000000
00000010E0C030FF20F060000000
000010C0E01030FF0080FF400000
0020E0E0200030FF000080FF4000
60F0C010000030FF00000080F040
A0800000000030FF000000008060
00000000000030FF000000000000
00000000000030FF000000000000
00000000000030FF000000000000
0000000000000010000000000000
ENDCHAR
STARTCHAR  4E0E
ENCODING  19982
SWIDTH  1000 0
DWIDTH  16 0
BBX  14 13 1 -3
BITMAP
000020C010000000000000000000
000040FF30303030303030303020
000080FFFFFFFFFFFFFFFFFFFFF0
0000A0A000000000000000000000
0000C08000000000000000004010
0000E0FFFFFFFFFFFFFFFFFFFF30
000020303030303030303030FF30
000000000000000000000000FF30
FFFFFFFFFFFFFFFFFFE00000FF30
303030303030303030200000FF30
000000000000000000000000FF20
00000000000000C0FFFFFFFFE000
0000000000000020303030200000
ENDCHAR
STARTCHAR  4E10
ENCODING  19984
SWIDTH  1000 0
DWIDTH  16 0
BBX  14 13 1 -3
BITMAP
FFFFFFFFFFFFFFFFFFFFFFFFFFF0
303030303030FF40303030303020
000020A01000FF30000000000000
0000A0E01000FFFFFFFFFFFFFF00
0030FF600000FF40303030303000
00C0E0000000FF30000000000000
40FF60303030FF4030303030A020
60FFFFFFFFFFFFFFFFFFFFFFFF30
000000000000000000000010FF30
000000000000000000000010FF30
000000000000000000000010FF30
0000000000FFFFFFFFFFFFFFE010
0000000000203030303030200000
ENDCHAR
STARTCHAR  4E11
ENCODING  19985
SWIDTH  1000 0
DWIDTH  16 0
BBX  16 13 0 -3
BITMAP
00003030303030303030303030200000
0000FFFFFFFFFFFFFFFFFFFFFFA00000
000000000030FF1000000000C0800000
000000000060F00000000000E0600000
000000000060E00000000000F0600000
0000103030A0C03030303030FF300000
000080FFFFFFFFFFFFFFFFFFFF200000
0000000000E0800000000040FF000000
0000000000F0600000000060E0000000
0000000010FF400000000080E0000000
0000000030FF2000000000A0A0000000
20FFFFFFFFFFFFFFFFFFFFFFFFFFFF20
00303030303030303030303030303000
ENDCHAR
STARTCHAR  4E13
ENCODING  19987
SWIDTH  1000 0
DWIDTH  16 0
BBX  14 14 1 -3
BITMAP
0000000000300000000000000000
0000000010F06000000000000000
00FFFFFFFFFFFFFFFFFFFFFFF000
00303060FF403030303030302000
000000E0A0000000000000000000
FFFFFFFFFFFFFFFFFFFFFFFFFFF0
3040FF8030303030303030303020
00A0F02010101010101010100000
00F0FFFFFFFFFFFFFFFFFFFF0000
001010101010101030C0FF800000
0060A08040100080F0C030000000
0060A0E0FFFFF0FFE06030000000
00000000103060A0C0F0FF400000
0000000000000000000020100000
ENDCHAR
STARTCHAR  4E14
ENCODING  19988
SWIDTH  1000 0
DWIDTH  16 0
BBX  16 13 0 -3
BITMAP
000000303030303030303040E0000000
000000FFFFFFFFFFFFFFFFFFFF000000
000000FF3000000000000030FF000000
000000FF4020202020202040FF000000
000000FFFFFFFFFFFFFFFFFFFF000000
000000FF3010101010101030FF000000
000000FF3000000000000030FF000000
000000FFFFFFFFFFFFFFFFFFFF000000
000000FF4030303030303040FF000000
000000FF3000000000000030FF000000
000000FF3000000000000030FF000000
20FFFFFFFFFFFFFFFFFFFFFFFFFFFF20
00303030303030303030303030303000
ENDCHAR
STARTCHAR  4E15
ENCODING  19989
SWIDTH  1000 0
DWIDTH  16 0
BBX  16 13 0 -3
BITMAP
20FFFFFFFFFFFFFFFFFFFFFFFFFFFF20
0030303030303060FF40303030303000
00000000000000C0C000000000000000
00000000000080FF4000000000000000
000000000080FFA0FF20A01000000000
00000010A0FF8030FF30E0E040000000
000060E0F0600030FF001080FFA01000
00E0FFA010000030FF00000040E0E000
0060200000000030FF00000000104000
0000000000000030FF00000000000000
00000000000000003000000000000000
20FFFFFFFFFFFFFFFFFFFFFFFFFFFF30
00303030303030303030303030303000
ENDCHAR
STARTCHAR  4E16
ENCODING  19990
SWIDTH  1000 0
DWIDTH  16 0
BBX  16 13 0 -3
BITMAP
000020A0000020E0000000E020000000
000030FF000030FF000000FF30000000
000030FF000030FF000000FF30000000
20FFFFFFFFFFFFFFFFFFFFFFFFFFFF30
002040FF202040FF202020FF40202000
000030FF000030FF000000FF30000000
000030FF000030FF000000FF30000000
000030FF000030FF000000FF30000000
000030FF000030FF303030FF20000000
000030FF000030FFFFFFFFC000000000
000030FF000000000000000000000000
000030FFFFFFFFFFFFFFFFFFFFFF6000
00000030303030303030303030301000
ENDCHAR
STARTCHAR  4E18
ENCODING  19992
SWIDTH  1000 0
DWIDTH  16 0
BBX  16 13 0 -3
BITMAP
00000030303030303030303080600000
000030FFFFFFFFFFFFFFFFF0C0600000
000030FF000000000000000000000000
000030FF000000000000000000000000
000030FF303030303030303030200000
000030FFFFFFFFFFFFFFFFFFFFE00000
000030FF00000000000030FF00000000
000030FF00000000000030FF00000000
000030FF00000000000030FF00000000
000030FF00000000000030FF00000000
000030FF00000000000030FF00000000
20FFFFFFFFFFFFFFFFFFFFFFFFFFFF00
00303030303030303030303030303000
ENDCHAR
STARTCHAR  4E19
ENCODING  19993
SWIDTH  1000 0
DWIDTH  16 0
BBX  16 13 0 -3
BITMAP
20FFFFFFFFFFFFFFFFFFFFFFFFFFFF20
0030303030303040FF30303030303000
0000202020202040FF20202020A01000
0020FFFFFFFFFFFFFFFFFFFFFFFF2000
0020FF1010101060E010101010FF2000
0020FF00000000E08020000010FF2000
0020FF000000A0F020F0600010FF2000
0020FF0000A0FF400060FF6010FF2000
0020FF10E0F04000000060FF40FF2000
0020FF00602000000000006010FF2000
0020FF00000000000000000010FF2000
0020FF0000000000000000FFFFE00000
00104000000000000000003020000000
ENDCHAR
STARTCHAR  4E1A
ENCODING  19994
SWIDTH  1000 0
DWIDTH  16 0
BBX  16 14 0 -3
BITMAP
00000000002000000000200000000000
0000000000FF30000030FF0000000000
0000000000FF30000030FF0000000000
0060400000FF30000030FF0000406000
0080C00000FF30000030FF0000A0A000
0030FF1000FF30000030FF0010F06000
0000E06000FF30000030FF0060F00000
000080C000FF30000030FF00C0A00000
000040FF10FF30000030FF10FF400000
0000004000FF30000030FF0040000000
0000000000FF30000030FF0000000000
0000000000FF30000030FF0000000000
20FFFFFFFFFFFFFFFFFFFFFFFFFFFF30
00303030303030303030303030303000
ENDCHAR
STARTCHAR  4E1B
ENCODING  19995
SWIDTH  1000 0
DWIDTH  16 0
BBX  16 13 0 -3
BITMAP
00000000FF2000000000FF2000000000
00000000FF3000000000FF2000000000
00000000FF3000000010FF2000000000
00000000FF2000000020FF1000000000
00000020FF6000000060FF4000000000
00000060FFF0200000C0F0E000000000
000000E080C0E00020FF40F080000000
000060F01010E080A0C00060FF300000
0020F06000003060FF300000C0E00000
00C0C000000010F08000000020F06000
00301000000000400000000000300000
20FFFFFFFFFFFFFFFFFFFFFFFFFFFF30
00303030303030303030303030303000
ENDCHAR
STARTCHAR  4E1C
ENCODING  19996
SWIDTH  1000 0
DWIDTH  16 0
BBX  14 13 1 -3
BITMAP
0000000000606000000000000000
2030303040F0A030303030303030
A0FFFFFFFFFFFFFFFFFFFFFFFFFF
000000C0E01020A0000000000000
0000A0E0200030FF000000000000
0080FF60303040FF303030303000
00FFFFFFFFFFFFFFFFFFFFFFFF30
00000030000030FF000020100000
000020F0600030FF0000E0A00000
0010E0C0000030FF000030F08000
20E0E010000030FF00000060FF40
80C0100040FFFFC000000000A0A0
0000000010302000000000000000
ENDCHAR
STARTCHAR  4E1D
ENCODING  19997
SWIDTH  1000 0
DWIDTH  16 0
BBX  14 14 1 -3
BITMAP
0000001000000000000010000000
000040E0100000000040E0100000
0020F0800000000020F080000000
00C0E00000100000C0E000001000
80F02000A0C00080F02000A0C000
E0FFFFFFFF4000E0FFFFFFFF4000
203080FF800000203080FF800000
0020F0A00000000020F0A0000000
00E0E01000000000E0E010000000
80FF402020200080FF4020202000
F0FFFFFFFFFF00F0FFFFFFFFFF00
0010101010100000101010101000
FFFFFFFFFFFFFFFFFFFFFFFFFFF0
3030303030303030303030303020
ENDCHAR
STARTCHAR  4E1E
ENCODING  19998
SWIDTH  1000 0
DWIDTH  16 0
BBX  16 13 0 -3
BITMAP
0000A0FFFFFFFFFFFFFFFFFFFF000000
00001030303030303060E0FFE0000000
0000000000108010C0FFE04000000000
00C0FFFFFFFFFF30FFF0000000603000
0020303030A0E030FFE0600060FF6000
0000000040F03030FF40F080FF600000
00000030F0800030FF00A0FF60000000
000030F0A0000030FF0010C0C0100000
0060F08000102040FF000010C0E03000
00C0600000C0FFFFC000000010A08000
00000000002030200000000000000000
10FFFFFFFFFFFFFFFFFFFFFFFFFFFF10
00303030303030303030303030303000
ENDCHAR
STARTCHAR  4E22
ENCODING  20002
SWIDTH  1000 0
DWIDTH  16 0
BBX  16 13 0 -3
BITMAP
00103030303030303030303060C02000
0060FFFFFFFFFFFFFFFFFFF0E0802000
00000000000000FF3000000000000000
0020FFFFFFFFFFFFFFFFFFFFFFFF2000
00003030303030FF4030303030300000
00000000000000FF3000000000000000
20FFFFFFFFFFFFFFFFFFFFFFFFFFFF20
0030303080FF60303030303030303000
00000030FF800000000030C010000000
000010E0C0000000000030FFA0000000
0000C0E010102030404060E0FF600000
0040FFF0FFFFFFFFF0E0C0C0C0FF3000
00104040302010000000000000600000
ENDCHAR
STARTCHAR  4E24
ENCODING  20004
SWIDTH  1000 0
DWIDTH  16 0
BBX  16 14 0 -3
BITMAP
00202020202020202020202020202000
20FFFFFFFFFFFFFFFFFFFFFFFFFFFF30
000000000030FF000030FF0000000000
000030303040FF303040FF3030A01000
0030FFFFFFFFFFFFFFFFFFFFFFFF3000
0030FF000040F0000040E00000FF3000
0030FF000080C0000080C00000FF3000
0030FF0010F0FF4000E0FF3000FF3000
0030FF0080F0A0E040F0A0C000FF3000
0030FF20F06010E0F08010F060FF3000
0030FFC0C0000060E010006030FF3000
0030FF20200000103000000000FF2000
0030FF0000000000000000A0FFE00000
00104000000000000000001020000000
ENDCHAR
STARTCHAR  4E25
ENCODING  20005
SWIDTH  1000 0
DWIDTH  16 0
BBX  15 13 0 -3
BITMAP
0040FFFFFFFFFFFFFFFFFFFFFFFFFF
001060403040FF303040FF30604030
0000C0C00030FF000030FF00A08000
000040FF6030FF000030FF10F02000
000000803030FF000030FF10600000
0000FFFFFFFFFFFFFFFFFFFFFFFF20
0000FF403030303030303030303000
0000FF200000000000000000000000
0020FF100000000000000000000000
0060E0000000000000000000000000
00E080000000000000000000000000
20F020000000000000000000000000
001000000000000000000000000000
ENDCHAR
STARTCHAR  4E27
ENCODING  20007
SWIDTH  1000 0
DWIDTH  16 0
BBX  16 13 0 -2
BITMAP
00000000000000106000000000000000
0020202020202040FF20202020200000
00FFFFFFFFFFFFFFFFFFFFFFFFFF2000
000000A040000030FF000030A0000000
00000080F0400030FF0010E080000000
00000000A0800030FF0040A000000000
10FFFFFFFFFFFFFFFFFFFFFFFFFFFF20
003040FF303030C0E030303030303000
000030FF00000020F0A00030C0600000
000030FF0000000040F0E0FFA0200000
000030FF104080800040F0E020000000
001080FFFFFFC080000020E0F0A01000
0000C0A0401000000000000060C00000
ENDCHAR
STARTCHAR  4E28
ENCODING  20008
SWIDTH  1000 0
DWIDTH  16 0
BBX  2 14 7 -3
BITMAP
0010
30FF
30FF
30FF
30FF
30FF
30FF
30FF
30FF
30FF
30FF
30FF
30FF
1060
ENDCHAR
STARTCHAR  4E2A
ENCODING  20010
SWIDTH  1000 0
DWIDTH  16 0
BBX  15 13 1 -3
BITMAP
0000004060A0FFFFFFFFFF40000000
000000C0A02030303030A0E0000000
000040FF30000000000010E0800000
0000E0A00000000000000060F02000
0080F010000030FF00000000C0A000
60FF4000000030FF0000000030FF30
20600000000030FF00000000003000
00000000000030FF00000000000000
00000000000030FF00000000000000
00000000000030FF00000000000000
00000000000030FF00000000000000
00000000000030FF00000000000000
000000000000108000000000000000
ENDCHAR
STARTCHAR  4E2B
ENCODING  20011
SWIDTH  1000 0
DWIDTH  16 0
BBX  15 13 1 -3
BITMAP
00804000000000000000000040A000
00A0FF800000000000000080FF8000
000060F0C01000000010C0F0600000
00000020E0E0400030E0E020000000
0000000000A0FF8020800000000000
00000000000060FF00000000000000
00000000000030FF00000000000000
00000000000030FF00000000000000
00000000000030FF00000000000000
00000000000030FF00000000000000
00000000000030FF00000000000000
00000000000030FF00000000000000
000000000000104000000000000000
ENDCHAR
STARTCHAR  4E2C
ENCODING  20012
SWIDTH  1000 0
DWIDTH  16 0
BBX  6 14 4 -3
BITMAP
000000000010
0000000030FF
0080800030FF
0060FF4030FF
0000A0F040FF
0000006030FF
0000000030FF
0000000030FF
00000010A0FF
000030E0F0FF
0060F0C040FF
40FF800030FF
0030000030FF
000000001040
ENDCHAR
STARTCHAR  4E2D
ENCODING  20013
SWIDTH  1000 0
DWIDTH  16 0
BBX  14 14 1 -3
BITMAP
0000000000000010000000000000
00000000000030FF000000000000
00000000000030FF000000000000
00303030303040FF303030303040
30FFFFFFFFFFFFFFFFFFFFFFFFFF
30FF0000000030FF0000000030FF
30FF0000000030FF0000000030FF
30FF0000000030FF0000000030FF
30FF0000000030FF0000000030FF
30FF3030303040FF3030303040FF
30FFFFFFFFFFFFFFFFFFFFFFFFA0
00000000000030FF000000000000
00000000000030FF000000000000
0000000000001040000000000000
ENDCHAR
STARTCHAR  4E30
ENCODING  20016
SWIDTH  1000 0
DWIDTH  16 0
BBX  16 14 0 -3
BITMAP
00000000000000100000000000000000
00000000000000FF3000000000000000
00303030303030FF4030303030301000
00FFFFFFFFFFFFFFFFFFFFFFFFFFA000
00000000000000FF3000000000000000
00000000000000FF3000000000000000
0010FFFFFFFFFFFFFFFFFFFFFFFF1000
00003030303030FF4030303030300000
00000000000000FF3000000000000000
00000000000000FF3000000000000000
20FFFFFFFFFFFFFFFFFFFFFFFFFFFF20
00303030303030FF4030303030303000
00000000000000FF3000000000000000
00000000000000401000000000000000
ENDCHAR
STARTCHAR  4E32
ENCODING  20018
SWIDTH  1000 0
DWIDTH  16 0
BBX  14 14 1 -3
BITMAP
0000000000000010000000000000
00000000000030FF00000020C000
0030FFFFFFFFFFFFFFFFFFFFFF00
0030FF30303040FF30303040FF00
0030FF00000030FF00000030FF00
0030FFFFFFFFFFFFFFFFFFFFC000
00003030303040FF303030200000
00303030303040FF303030303080
30FFFFFFFFFFFFFFFFFFFFFFFFFF
30FF0000000030FF0000000030FF
30FF3030303040FF3030303040FF
30FFFFFFFFFFFFFFFFFFFFFFFF80
00000000000030FF000000000000
0000000000001060000000000000
ENDCHAR
STARTCHAR  4E34
ENCODING  20020
SWIDTH  1000 0
DWIDTH  16 0
BBX  15 14 1 -3
BITMAP
000010000000100000000000000000
0000FF300000A0A000000000000000
0000FF300010F08030303030303000
FF30FF300080FFFFFFFFFFFFFFFF20
FF30FF3030FF601080000000000000
FF30FF30C0A00020F0C00000000000
FF30FF303010000030F06000000000
FF30FF301040404040604040408000
FF30FF3030FFFFFFFFFFFFFFFFFF00
FF30FF3030FF000030FF000030FF00
FF30FF3030FF000030FF000030FF00
FF30FF3030FF000030FF000030FF00
A020FF3030FFFFFFFFFFFFFFFFC000
000060100030303030303030200000
ENDCHAR
STARTCHAR  4E36
ENCODING  20022
SWIDTH  1000 0
DWIDTH  16 0
BBX  5 5 6 1
BITMAP
4060000000
60FF400000
0080F03000
0000A0F020
0000008010
ENDCHAR
STARTCHAR  4E38
ENCODING  20024
SWIDTH  1000 0
DWIDTH  16 0
BBX  15 14 1 -3
BITMAP
000000002000000000000000000000
00000000FF30000000000000000000
00102020FF40202020208010000000
00E0FFFFFFFFFFFFFFFFFF30000000
00101010FF3010101010FF30000000
00000010FF2000000000FF30000000
00803040F00000000000FF30000000
00A0F0C0C00000000000FF30000000
000080FFA00000000000FF30000000
0000A0F0F0A010000000FF30000000
0040FF6030E0C0000000FF30008010
20F0A000002040000000FF3010FF10
80C00000000000000000FFFFFFE000
000000000000000000003030200000
ENDCHAR
STARTCHAR  4E39
ENCODING  20025
SWIDTH  1000 0
DWIDTH  16 0
BBX  14 13 1 -3
BITMAP
0000303030303030303030E02000
0000FFFFFFFFFFFFFFFFFFFF2000
0000FF3000104000000010FF2000
0000FF300060FF40000010FF2000
0000FF300000A0F0300010FF2000
0000FF30000000A0300010FF2000
FFFFFFFFFFFFFFFFFFFFFFFFFFFF
3060F03030303030303030FF4030
0080C00000000000000010FF2000
00C0800000000000000010FF2000
30FF200000000000000010FF2000
80C000000000000000E0FFE00000
0010000000000000002020000000
ENDCHAR
STARTCHAR  4E3A
ENCODING  20026
SWIDTH  1000 0
DWIDTH  16 0
BBX  14 14 1 -3
BITMAP
0000000000200000000000000000
0080A00030FF0000000000000000
0060FFC030FF0000000000000000
103080E040FF303030303030E020
60FFFFFFFFFFFFFFFFFFFFFFFF30
0000000030FF000000000000FF30
0000000030F0006010000000FF30
0000000060E000C0E0100000FF30
00000000C0800010E0E01000FF30
00000040FF20000010E0A000FF30
000030F08000000000101000FF30
0060F0A00000000000000000FF20
40FF80000000000000F0FFFFE000
0020000000000000002030200000
ENDCHAR
STARTCHAR  4E3B
ENCODING  20027
SWIDTH  1000 0
DWIDTH  16 0
BBX  16 14 0 -3
BITMAP
00000000000000601000000000000000
00000000000010E08000000000000000
0040FFFFFFFFFFFFFFFFFFFFFFFFFF00
0010303030303040FF30303030303000
0000000000000030FF00000000000000
0000000000000030FF00000000000000
0000203030303040FF30303030300000
0000E0FFFFFFFFFFFFFFFFFFFFFF0000
0000000000000030FF00000000000000
0000000000000030FF00000000000000
0000000000000030FF00000000000000
0000000000000030FF00000000000000
10FFFFFFFFFFFFFFFFFFFFFFFFFFFF20
00303030303030303030303030303000
ENDCHAR
STARTCHAR  4E3D
ENCODING  20029
SWIDTH  1000 0
DWIDTH  16 0
BBX  16 13 0 -3
BITMAP
30FFFFFFFFFFFFFFFFFFFFFFFFFFFF10
00303030303030303030303030303000
003030303030E0203030303030E02000
00FFFFFFFFFFFF30FFFFFFFFFFFF3000
00FF30000000FF30FF30000000FF3000
00FF60A00000FF30FF60A00000FF3000
00FF40FF6000FF30FF60FF6000FF3000
00FF3080E010FF30FF3080E010FF3000
00FF3010E060FF30FF3010E040FF3000
00FF30000000FF30FF30000000FF3000
00FF30000000FF20FF30000000FF2000
00FF3000E0FFE000FF3000E0FFE00000
00300000202000003000002020000000
ENDCHAR
STARTCHAR  4E3E
ENCODING  20030
SWIDTH  1000 0
DWIDTH  16 0
BBX  15 12 1 -2
BITMAP
006060000010A01000000020800000
0080FF600010E0A0000010E0A00000
0030A060303060A03030A0F0302000
00FFFFFFFFFFFFFFFFFFFFFFFFE000
000040FF600010C01000A0F0200000
0010E0C0202040FF302030E0E02000
10E0E040FFFFFFFFFFFFFF40E0E010
60C02000000020FF1000000030C030
00000000000020FF10000000000000
00FFFFFFFFFFFFFFFFFFFFFFFF0000
00203030303040FF30303030300000
00000000000020FF10000000000000
ENDCHAR
STARTCHAR  4E3F
ENCODING  20031
SWIDTH  1000 0
DWIDTH  16 0
BBX  6 14 4 -3
BITMAP
000000001000
00000000FF30
00000000FF30
00000000FF30
00000000FF30
00000000FF20
00000010FF20
00000020FF10
00000060E000
000000E08000
000080E01000
0080FF400000
60F040000000
002000000000
ENDCHAR
STARTCHAR  4E43
ENCODING  20035
SWIDTH  1000 0
DWIDTH  16 0
BBX  14 13 1 -3
BITMAP
20FFFFFFFFFFFFFFFFFFFFFF3000
00303030FF403030303040FF3000
00000000FF3000000030F0C00000
00000000FF30000030F0C0102000
00000010FF200040F0E03030FF30
00000020FF1000C0FFFFFFFFFF30
00000060E000000000000000FF30
000000A0A000000000000000FF30
000030FF4000000000000000FF30
0000C0C00000000000000000FF30
00A0F0200000000000000000FF20
60F03000000000000060FFFFE000
0020000000000000001030200000
ENDCHAR
STARTCHAR  4E45
ENCODING  20037
SWIDTH  1000 0
DWIDTH  16 0
BBX  15 13 1 -2
BITMAP
000000201000000000000000000000
000000E0A000000000001040000000
000060FFFFFFFFFFFFFFFFFF000000
0010E08030303030303060FF000000
00A0E010000000000010E080000000
20E030000000000000C0E010000000
0000000000000010C0E02000000000
00000000000020E0E0200000000000
000000000040F0FFC0200000000000
00000010A0FFA030E0F06000000000
000060F0E04000000060F0E0300000
40E0F08010000000000020A0FF8000
60A02000000000000000000040A000
ENDCHAR
STARTCHAR  4E47
ENCODING  20039
SWIDTH  1000 0
DWIDTH  16 0
BBX  15 14 1 -3
BITMAP
000000000000000000000000200000
0000002030406080A0C0E0FFF00000
00E0FFFFF0F0FFC0A0806040200000
002020100030FF0000000000000000
000000000030FF0000000000000000
000000000030FF0000103040608010
1030406080A0FFE0F0FFFFFFE0E020
E0FFFFE0C0C0FF6060302000000000
202000000030FF0000000000000000
000000000030FF0000000000000000
000000000030FF0000000000008010
000000000030FF000000000010FF20
000000000030FFFFFFFFFFFFFFE000
000000000000303030303030200000
ENDCHAR
STARTCHAR  4E48
ENCODING  20040
SWIDTH  1000 0
DWIDTH  16 0
BBX  15 14 1 -3
BITMAP
000000000000000000000000000000
000000000010C06000000000000000
0000000010E0E02000000000000000
00000020E0E0100000301000000000
000030E0C010000040F08000000000
0040F0A000000060FF800000000000
40F0A000000080FF80000000000000
808000000080FF6000000000000000
00000000A0F0400000000000000000
000010C0F0400000000010C0200000
0010C0E030000000000000C0C00000
20E0F0806080A0C0E0E0F0FFFF6000
60FFFFF0E0C0A0A08060604080E000
102000000000000000000000001000
ENDCHAR
STARTCHAR  4E49
ENCODING  20041
SWIDTH  1000 0
DWIDTH  16 0
BBX  14 14 1 -3
BITMAP
0000000000000000000000000000
000000000040C000000000003000
30E040000010F08000000040FF60
00A0FF60000060F0200020F0A000
000060FFA00000C04020E0C00000
00000040F0C0100020E0E0100000
0000000020E0E040E0E010000000
000000000010C0FFE01000000000
000000000060F0E0FF6000000000
00000010A0FF800060FF80000000
000040E0E04000000040F0C01000
20A0FFA010000000000020E0E020
C0E040000000000000000010C0C0
1000000000000000000000000010
ENDCHAR
STARTCHAR  4E4B
ENCODING  20043
SWIDTH  1000 0
DWIDTH  16 0
BBX  14 14 1 -3
BITMAP
0000000000002000000000000000
000000000000E0A0000000000000
00102020202080FF40202030A000
00E0FFFFFFFFFFFFFFFFFFFFFF00
000000000000000000000060F000
0000000000000000000040F06000
00000000000000000060F0600000
000000000000000080F040000000
00000000000020C0E02000000000
000000000060F0A0100000000000
00000040E0E04000000000000000
10C0E0FF80100000000000000000
A0C080F0FFFFFFFFFFFFFFFFFFFF
1000000010202020202020202020
ENDCHAR
STARTCHAR  4E4C
ENCODING  20044
SWIDTH  1000 0
DWIDTH  16 0
BBX  14 14 1 -3
BITMAP
0000000000401000000000000000
0000000010F06000000010400000
0030FFFFFFFFFFFFFFFFFFFF0000
0030FF3030303030303040FF0000
0030FF0000000000000030FF0000
0030FF0000000000E0FFFFC00000
0030FF0000000000203020106000
0030FFFFFFFFFFFFFFFFFFFFFF10
000030303030303030303040FF10
303030303030303030303020FF10
FFFFFFFFFFFFFFFFFFFFFF40FF10
000000000000000000000020FF10
00000000000000C0FFFFFFFFC000
0000000000000020303030200000
ENDCHAR
STARTCHAR  4E4D
ENCODING  20045
SWIDTH  1000 0
DWIDTH  16 0
BBX  15 13 1 -3
BITMAP
000000408000000000000000000000
000000C0C030303030303030303000
000060FFFFFFFFFFFFFFFFFFFFFF00
0030F0800030FF0000000000000000
10E0A0000030FF0000000000000000
004000000030FFFFFFFFFFFFFF6000
000000000030FF3030303030301000
000000000030FF0000000000000000
000000000030FFFFFFFFFFFFFFF000
000000000030FF3030303030302000
000000000030FF0000000000000000
000000000030FF0000000000000000
000000000010800000000000000000
ENDCHAR
STARTCHAR  4E4E
ENCODING  20046
SWIDTH  1000 0
DWIDTH  16 0
BBX  14 13 1 -3
BITMAP
003030303030303030304080A000
30FFFFFFFFFFFFFFFFFFF0C06000
000000000000FF30000000000000
0080A0000000FF30000030E02000
0030FF400000FF300010E0A00000
000080E00000FF3000A0E0100000
000010300000FF30001030000000
FFFFFFFFFFFFFFFFFFFFFFFFFFF0
202020202020FF40202020202020
000000000000FF30000000000000
000000000000FF20000000000000
00000080FFFFE000000000000000
0000001030200000000000000000
ENDCHAR
STARTCHAR  4E4F
ENCODING  20047
SWIDTH  1000 0
DWIDTH  16 0
BBX  16 13 0 -3
BITMAP
0010303030303030303030304080A000
0080FFFFFFFFFFFFFFFFFFFFF0C06000
00000000000030E02000000000000000
00000000000000A0A000000000400000
0030FFFFFFFFFFFFFFFFFFFFFFFF0000
000020202020202020202020A0F00000
0000000000000000000020C0E0300000
00000000000000001080F0A010000000
0000000000001080E0E0400000000000
000030003080F0E06000000000000000
0040F0E0FFC040000000000000000000
10F060A0F0FFFFFFFFFFFFFFFFFFE000
00100000002020202020202020202000
ENDCHAR
STARTCHAR  4E50
ENCODING  20048
SWIDTH  1000 0
DWIDTH  16 0
BBX  14 13 1 -3
BITMAP
000030303030303030303060A040
0040FFFFFFFFFFFFFFFFFFE0A040
0060E00000000000000000000000
0080C000000020E0000000000000
00A0A000000030FF000000000000
00C0FFFFFFFFFFFFFFFFFFFFFF60
00203030303040FF303030303010
000000E0600030FF0000A0A00000
000060F0100030FF000040FF3000
0020F060000030FF000000A0E000
10E0A000000030FF00000020F060
20A0100030FFFFC00000000080A0
0000000000302000000000000000
ENDCHAR
STARTCHAR  4E52
ENCODING  20050
SWIDTH  1000 0
DWIDTH  16 0
BBX  14 12 1 -2
BITMAP
0000303030303030303040806000
0030FFFFFFFFFFFFFFFFF0C06000
0030FF0000000000000000000000
0030FFFFFFFFFFFFFFFFFFFFF000
0030FF303030303030FF40302000
0030FF000000000000FF30000000
0030FF000000000000FF30000000
FFFFFFFFFFFFFFFFFFFFFFFFFFC0
3030604030303030303030303020
0040F06000000000000000000000
40F0800000000000000000000000
2080000000000000000000000000
ENDCHAR
STARTCHAR  4E53
ENCODING  20051
SWIDTH  1000 0
DWIDTH  16 0
BBX  14 12 1 -2
BITMAP
0000303030303030303040806000
0030FFFFFFFFFFFFFFFFF0C06000
0030FF0000000000000000000000
0030FFFFFFFFFFFFFFFFFFFFF000
0030FF303030303030FF40302000
0030FF000000000000FF30000000
0030FF000000000000FF30000000
FFFFFFFFFFFFFFFFFFFFFFFFFFC0
3030303030303030303060303020
00000000000000000060F0600000
0000000000000000000080FF8000
0000000000000000000000604000
ENDCHAR
STARTCHAR  4E54
ENCODING  20052
SWIDTH  1000 0
DWIDTH  16 0
BBX  16 13 0 -3
BITMAP
000020303030303030303040A0100000
0000E0FFFFFFFFFFFFFFFFE0A0300000
00000000000000FF3000000000000000
00303030303060FF4030303030303000
10FFFFFFFFFFFFFFFFFFFFFFFFFFFF10
00000040A0E040000060E0A030000000
1080E0E080F000000000F080F0C03000
00A0600030FF00000000FF3010A03000
0000000060E000000000FF3000000000
00000040F06000000000FF3000000000
000040F0800000000000FF3000000000
00008080000000000000FF3000000000
00000000000000000000000000000000
ENDCHAR
STARTCHAR  4E56
ENCODING  20054
SWIDTH  1000 0
DWIDTH  16 0
BBX  15 13 0 -3
BITMAP
001030303030303030303040A04000
0030FFFFFFFFFFFFFFFFFFE0A04000
00000000000000FF30000000000000
00FFFFFFFFFFFFFFFFFFFFFFFFFF80
00202020202020FF40202020202010
00001010FF3000FF3010FF20000000
00A0FFFFFF3000FF3010FF80E0A000
00102020FF3000FF3010FFC0602000
00000010FF3000FF3010FF20008010
0060C0FFFF3000FF3010FF2000FF20
00E08040FF3000FF3010FFFFFFE000
00000000C02000FF30003030201000
00000000000000A020000000000000
ENDCHAR
STARTCHAR  4E58
ENCODING  20056
SWIDTH  1000 0
DWIDTH  16 0
BBX  14 13 1 -3
BITMAP
1030303030303030303060C03000
60FFFFFFFFFFFFFFFFF0E0802000
303030303030FF40303030303020
FFFFFFFFFFFFFFFFFFFFFFFFFFE0
000000801000FF30008010002000
A0E0E0FF3000FF3000FFC0F0FF20
606060FF3000FF3000FFA0603000
2060A0FF3000FF3000FF6040FF20
E0E0A0FF3060FF8010FFFFFFC000
10000060E0F0FFF0FFA030000000
0040C0FFA020FF3060E0FFC06000
E0FFA0300000FF30000040C0FF80
401000000000A020000000003010
ENDCHAR
STARTCHAR  4E59
ENCODING  20057
SWIDTH  1000 0
DWIDTH  16 0
BBX  14 12 1 -2
BITMAP
003030303030303030303030A010
20FFFFFFFFFFFFFFFFFFFFFFFF10
0000000000000000000010E0C000
00000000000000000020E0C01000
000000000000000040E0C0100000
0000000000000080FF8000000000
000000000020C0F0600000000000
0000000060F0C020000000000000
000040E0F0600000000000000000
20E0FFA0100000000000000020C0
40FF4030303030303030303040FF
40FFFFFFFFFFFFFFFFFFFFFFFFA0
ENDCHAR
STARTCHAR  4E5C
ENCODING  20060
SWIDTH  1000 0
DWIDTH  16 0
BBX  15 14 1 -3
BITMAP
000000300000000000000000000000
000030FF0000000000000000000000
000030FF0000000000002060A00000
000030FF00003060A0E0FFFFFF0000
000040FFC0F0FFF0C0804030FF0000
80F0FFFFA060300000000030FF0000
406040FF0000000000000030FF0000
000030FF0000000000103060F00000
000030FF000000000080FFFF800000
000030FF0000000000000000000000
000030FF0000000000000000008010
000030FF000000000000000000FF20
000030FFFFFFFFFFFFFFFFFFFFE000
000000303030303030303030200000
ENDCHAR
STARTCHAR  4E5D
ENCODING  20061
SWIDTH  1000 0
DWIDTH  16 0
BBX  15 13 1 -3
BITMAP
00000010E010000000000000000000
00000010FF20000000003000000000
60FFFFFFFFFFFFFFFFFFFF10000000
10303030FF4030303040FF10000000
00000020FF1000000020FF10000000
00000040E00000000020FF10000000
000000A0A00000000020FF10000000
000020F0400000000020FF10000000
0000A0C0000000000020FF10000000
0060F030000000000020FF1000A010
40F06000000000000020FF1010FF20
C0800000000000000020FFFFFFE000
100000000000000000003030200000
ENDCHAR
STARTCHAR  4E5E
ENCODING  20062
SWIDTH  1000 0
DWIDTH  16 0
BBX  15 14 0 -3
BITMAP
000000100000000000000000000000
000010F04000000000000000000000
000080FFFFFFFFFFFFFFFFFFFFFFFF
0040FF403030303030303030303030
00E080203030303030303030801000
002000FFFFFFFFFFFFFFFFFFFF3000
0000000000000000000020C0E01000
00000000000000000060F0C0100000
0000000000000040E0F06000000000
000000000030A0FFA0100000000010
00000040A0FFC030000000000080E0
000020FFA0300000000000000080C0
000030FFFFFFFFFFFFFFFFFFFFFF80
000000303030303030303030302000
ENDCHAR
STARTCHAR  4E5F
ENCODING  20063
SWIDTH  1000 0
DWIDTH  16 0
BBX  15 14 0 -3
BITMAP
000000000000001000000000000000
00000000000000FF30000000000000
000020E0000000FF30000000204000
000030FF000030FFA0A0E0F0FFFF00
004080FFE0F0FFFFE0A0806060FF00
00F0E0FF806020FF3000000030FF00
000030FF000000FF3000000030FF00
000030FF000000FF3000000030FF00
000030FF000000FF300080FFFFC000
000030FF000000FF30001030200000
000030FF0000006010000000001080
000030FF00000000000000000030FF
000030FFFFFFFFFFFFFFFFFFFFFFC0
000000303030303030303030302000
ENDCHAR
STARTCHAR  4E60
ENCODING  20064
SWIDTH  1000 0
DWIDTH  16 0
BBX  14 13 1 -3
BITMAP
60FFFFFFFFFFFFFFFFFFFFFFF020
103030303030303030303030FF30
000040400000000000000000FF30
000080FFC030000000000000FF30
00000040E0FF800000000000FF30
000000000060600000000000FF30
000000000000000060E04000FF30
00000000000060E0F0A02000FF30
0000000060E0F08020000000FF30
000060E0F080100000000000FF30
00E0F0801000000000000000FF20
0040100000000000E0FFFFFFE000
0000000000000000203030200000
ENDCHAR
STARTCHAR  4E61
ENCODING  20065
SWIDTH  1000 0
DWIDTH  16 0
BBX  14 13 1 -3
BITMAP
0000000000006080000000000000
0000000010A0FF80000000000000
00000040F0E03000000000304000
0010A0FFC03030303040C0FFA000
0060FFFFFFFFFFFFFFF080200000
0000000060C0FFC0600000000000
002080F0F0A040202020202040FF
00C0FFFFFFFFFFFFFFFFFFFFFFF0
00101010101010101040A0FFC010
0000000000002060C0FFC0400000
00003060A0E0FFE0A03000000000
30FFFFF0C0803000000000000000
1040200000000000000000000000
ENDCHAR
STARTCHAR  4E66
ENCODING  20070
SWIDTH  1000 0
DWIDTH  16 0
BBX  15 14 0 -3
BITMAP
000000000000100000000000000000
000000000000FF3000000030C01000
000000000000FF3000000010C0E010
0060FFFFFFFFFFFFFFFFFFF0306020
001030303030FF40303030FF300000
000000000000FF30000000FF300000
000000000000FF30000000FF300000
104040404040FF60404040FF608010
30FFFFFFFFFFFFFFFFFFFFFFFFFF30
000000000000FF300000000000FF30
000000000000FF300000000000FF30
000000000000FF300000203030FF20
000000000000FF300000F0FFFFC000
000000000000601000000000000000
ENDCHAR
STARTCHAR  4E69
ENCODING  20073
SWIDTH  1000 0
DWIDTH  16 0
BBX  14 14 1 -3
BITMAP
0000100000000000100000000000
0000FF3000000000FF3000000000
0000FF3000000000FF3000000000
0000FFFFFFFFA000FF3000000000
0000FF4030301000FF3000000000
0000FF3000000000FF3000000000
0000FF3000104000FF3000000000
FFFFFFFFFFFFFF00FF3000000000
FF4030303040FF00FF3000000000
FF3000000030FF00FF3000000000
FF3000000030FF00FF3000006010
FF3000000030FF00FF300000FF20
FFFFFFFFFFFFC000FFFFFFFFE000
3030303030200000303030200000
ENDCHAR
STARTCHAR  4E70
ENCODING  20080
SWIDTH  1000 0
DWIDTH  16 0
BBX  15 13 1 -3
BITMAP
40FFFFFFFFFFFFFFFFFFFFFFFF3000
103030603030308030303060FF2000
000060FFA03000FF300000E0A00000
00102040E0FF30FF300060F0100000
0080F0A0204000FF30001040000000
000060E0F01010FF20000000000000
00101010601080E010101010101000
40FFFFFFFFFFFFFFFFFFFFFFFFFF00
0020202080FF8020A0E04020202000
000020C0FF60000020C0FF80100000
1080F0E030000000000060F0E04000
40E060000000000000000020C0C000
000000000000000000000000000000
ENDCHAR
STARTCHAR  4E71
ENCODING  20081
SWIDTH  1000 0
DWIDTH  16 0
BBX  16 14 0 -3
BITMAP
00000000000000000000200000000000
0000303030303060C010FF3000000000
0030FFFFFFFFFFE0A020FF3000000000
0000000030FF00000000FF3000000000
0030303040FF30303010FF3000000000
00FFFFFFFFFFFFFFFF40FF3000000000
0000000030FF00000000FF3000000000
0000303040FF30306000FF3000000000
0030FFFFFFFFFFFFFF00FF3000000000
0030FF0000000030FF00FF3000000000
0030FF0000000030FF00FF3000006010
0030FF0000000030FF00FF301010FF20
0030FFFFFFFFFFFFC000FFFFFFFFE000
00003030303030200000303030200000
ENDCHAR
STARTCHAR  4E73
ENCODING  20083
SWIDTH  1000 0
DWIDTH  16 0
BBX  15 14 1 -3
BITMAP
000000000000000000100000000000
103030303030608000FF3000000000
40FFFFFFFFFFE0A020FF3000000000
00804060600020A000FF3000000000
00A0F080F030E0C000FF3000000000
0030A030A0A0FF4000FF3000000000
30FFFFFFFFFFFFFF00FF3000000000
0000000020A0FFC000FF3000000000
00000010FFC0402010FF3000000000
3080A0C0FFF0FFFF40FF3000000000
40A08080FF40201000FF3000106000
00000020FF10000000FF300020FF10
0080FFFFE000000000FFFFFFFFC000
001030300000000000303030200000
ENDCHAR
STARTCHAR  4E7E
ENCODING  20094
SWIDTH  1000 0
DWIDTH  16 0
BBX  15 14 1 -3
BITMAP
000000000000000030000000000000
202030FF30202030FF100000000000
E0FFFFFFFFFFE080FFFFFFFFFFFF00
103040FF404020F060303030303000
30FFFFFFFFFF40A010101010401000
30FF000000FF3000FFFFFFFFFF3000
30FFFFFFFFFF300020202060FF1000
30FF303030FF3000000000E0800000
30FF303030FF2000000080E0000000
30FFFFFFFFC000000060F030003010
303040FF4030200030F0600010FF30
FFFFFFFFFFFFFF00F080000010FF30
000010FF10000000FFFFFFFFFFE010
000000300000000030303030200000
ENDCHAR
STARTCHAR  4E86
ENCODING  20102
SWIDTH  1000 0
DWIDTH  16 0
BBX  14 13 1 -3
BITMAP
00FFFFFFFFFFFFFFFFFFFFFFFF40
0030303030303030303030C0FF40
00000000000000000060E0E04000
0000000000000020C0FF80100000
00000000000020F0C03000000000
00000000000030FF000000000000
00000000000030FF000000000000
00000000000030FF000000000000
00000000000030FF000000000000
00000000000030FF000000000000
00000000000030FF000000000000
00000010FFFFFFC0000000000000
0000000030302000000000000000
ENDCHAR
STARTCHAR  4E88
ENCODING  20104
SWIDTH  1000 0
DWIDTH  16 0
BBX  14 13 1 -3
BITMAP
0000FFFFFFFFFFFFFFFFFFFFE000
00003030303030303030A0FFA000
0000000000A0300030E0F0600000
0000000000A0F080F0C020000000
000000000000A0FF800000000000
60FFFFFFFFFFFFFFFFFFFFFFFFE0
10303030303030FF40303030A0E0
00000000000000FF30000020F060
00000000000000FF300000108000
00000000000000FF300000000000
00000000000000FF200000000000
0000000080FFFFE0000000000000
0000000010302000000000000000
ENDCHAR
STARTCHAR  4E89
ENCODING  20105
SWIDTH  1000 0
DWIDTH  16 0
BBX  16 14 0 -3
BITMAP
00000020100000000000000000000000
000000E0800000000000000000000000
000080FFFFFFFFFFFFFFFFFFFF400000
0060FF60303030303030A0FFC0100000
00A0A0303030303030A0FFE040A00000
000040FFFFFFFFFFFFFFFFFFFFFF0000
00000000000000FF3000000030FF0000
10FFFFFFFFFFFFFFFFFFFFFFFFFFFF10
00303030303030FF4030303040FF3000
00000030303030FF4030303040FF0000
000030FFFFFFFFFFFFFFFFFFFF800000
00000000000000FF2000000000000000
0000000080FFFFE01000000000000000
00000000103020000000000000000000
ENDCHAR
STARTCHAR  4E8B
ENCODING  20107
SWIDTH  1000 0
DWIDTH  16 0
BBX  14 14 1 -3
BITMAP
0000000000002000000000000000
303030303030FF40303030303010
FFFFFFFFFFFFFFFFFFFFFFFFFF40
0030FFFFFFFFFFFFFFFFFFFF1000
0030FF303030FF40303040FF1000
0030FFFFFFFFFFFFFFFFFFC00000
003060606060FF6060604040E000
00F0FFFFFFFFFFFFFFFFFFFFFF00
303030303030FF4030303040FF20
FFFFFFFFFFFFFFFFFFFFFFFFFFE0
00F0FFFFFFFFFFFFFFFFFFFFE000
002030303030FF40303030200000
00000020FFFFE000000000000000
0000000030200000000000000000
ENDCHAR
STARTCHAR  4E8C
ENCODING  20108
SWIDTH  1000 0
DWIDTH  16 0
BBX  14 9 1 -1
BITMAP
0030FFFFFFFFFFFFFFFFFFFFFF30
0000303030303030303030303000
0000000000000000000000000000
0000000000000000000000000000
0000000000000000000000000000
0000000000000000000000000000
0000000000000000000000000000
10FFFFFFFFFFFFFFFFFFFFFFFFFF
0030303030303030303030303030
ENDCHAR
STARTCHAR  4E8D
ENCODING  20109
SWIDTH  1000 0
DWIDTH  16 0
BBX  14 13 1 -3
BITMAP
00C0FFFFFFFFFFFFFFFFFFFFFF00
0020303030303030303030303000
0000000000000000000000000000
0000000000000000000000000000
F0FFFFFFFFFFFFFFFFFFFFFFFFFF
20303030303040FF303030303030
00000000000030FF000000000000
00000000000030FF000000000000
00000000000030FF000000000000
00000000000030FF000000000000
00000000000030FF000000000000
00000000A0FFFFC0000000000000
0000000010302000000000000000
ENDCHAR
STARTCHAR  4E8E
ENCODING  20110
SWIDTH  1000 0
DWIDTH  16 0
BBX  16 13 0 -3
BITMAP
0000FFFFFFFFFFFFFFFFFFFFFF600000
00003030303030FF4030303030100000
00000000000000FF3000000000000000
00000000000000FF3000000000000000
00101010101010FF4010101010101000
20FFFFFFFFFFFFFFFFFFFFFFFFFFFF10
00101010101010FF4010101010101000
00000000000000FF3000000000000000
00000000000000FF3000000000000000
00000000000000FF3000000000000000
00000000000000FF2000000000000000
00000000E0FFFFE00000000000000000
00000000203020000000000000000000
ENDCHAR
STARTCHAR  4E8F
ENCODING  20111
SWIDTH  1000 0
DWIDTH  16 0
BBX  14 13 1 -3
BITMAP
00FFFFFFFFFFFFFFFFFFFFFF4000
0030303030303030303030301000
0000000000000000000000000000
3030303030303030303030303020
FFFFFFFFFFFFFFFFFFFFFFFFFFE0
0000A0E010000000000000000000
0080F02000000000000000300000
00C0FFFFFFFFFFFFFFFFFFFF3000
0020303030303030303030FF3000
0000000000000000000000FF3000
0000000000000000000000FF2000
0000000060FFFFFFFFFFFFE00000
0000000010303030303020000000
ENDCHAR
STARTCHAR  4E91
ENCODING  20113
SWIDTH  1000 0
DWIDTH  16 0
BBX  14 13 1 -3
BITMAP
00A0FFFFFFFFFFFFFFFFFFFF0000
0020303030303030303030300000
0000000000000000000000000000
0000000000000000000000000000
FFFFFFFFFFFFFFFFFFFFFFFFFFE0
3030303060FF8030303030303020
00000030F0800000000000000000
000010E0A0000000003060000000
0000C0C0000000000060FF300000
00A0E010000000002030E0E01000
60FFA0A0A0E0E0FFFFFFF0F0A000
80F0E0C0A080604030100040F020
0000000000000000000000001000
ENDCHAR
STARTCHAR  4E92
ENCODING  20114
SWIDTH  1000 0
DWIDTH  16 0
BBX  14 13 1 -3
BITMAP
F0FFFFFFFFFFFFFFFFFFFFFFFF00
20303030F0A03030303030303000
00000040FF200000000000000000
000000C0FFFFFFFFFFFFFFFF0000
000030FF30303030303060F00000
0000A0A0000000000000A0A00000
0010FF40000000000010FF300000
0010FFFFFFFFFFFFFFFFE0000000
000030303030303030FF60000000
000000000000000060F010000000
2020202020202020E0A020202010
FFFFFFFFFFFFFFFFFFFFFFFFFFE0
1010101010101010101010101010
ENDCHAR
STARTCHAR  4E93
ENCODING  20115
SWIDTH  1000 0
DWIDTH  16 0
BBX  14 12 1 -2
BITMAP
0020FFFFFFFFFFFFFFFFFFFFFF00
0000303030303030303030303000
0000000000000000000000000000
0000000000000000000000000000
A0FFFFFFFFFFFFFFFFFFFFFFFFFF
20303040FF3030303040FF303030
00000030FF0000000030FF000000
00000060E00000000030FF000000
000010E0800000000030FF000000
0020E0E0100000000030FF000000
40F0C010000000000030FF000000
30800000000000000020E0000000
ENDCHAR
STARTCHAR  4E94
ENCODING  20116
SWIDTH  1000 0
DWIDTH  16 0
BBX  16 13 0 -3
BITMAP
0000FFFFFFFFFFFFFFFFFFFFFFFFA000
000030303030FF603030303030301000
000000000040FF100000000000000000
000000000080E0000000000030000000
000060FFFFFFFFFFFFFFFFFFFF000000
0000103030E0803030303040FF000000
0000000010FF300000000030FF000000
0000000040FF000000000030FF000000
0000000080E0000000000030FF000000
00000000A0A0000000000030FF000000
00101010E080101010101040FF101000
20FFFFFFFFFFFFFFFFFFFFFFFFFFFF20
00101010101010101010101010101000
ENDCHAR
STARTCHAR  4E95
ENCODING  20117
SWIDTH  1000 0
DWIDTH  16 0
BBX  16 14 0 -3
BITMAP
00000000100000000000001000000000
00000000FF300000000010FF10000000
00000000FF300000000010FF10000000
00FFFFFFFFFFFFFFFFFFFFFFFFFF6000
00303030FF403030303040FF40301000
00000000FF300000000010FF10000000
00000000FF200000000010FF10000000
00303030FF403030303040FF40303000
20FFFFFFFFFFFFFFFFFFFFFFFFFFFF20
000000A0C0000000000010FF10000000
000020FF40000000000010FF10000000
0000E0C000000000000010FF10000000
0060F02000000000000010FF10000000
00002000000000000000003000000000
ENDCHAR
STARTCHAR  4E98
ENCODING  20120
SWIDTH  1000 0
DWIDTH  16 0
BBX  14 13 1 -3
BITMAP
FFFFFFFFFFFFFFFFFFFFFFFFFF60
3030303030303030303030303010
0000303030303030303030E02000
0030FFFFFFFFFFFFFFFFFFFF3000
0030FF0000000000000000FF3000
0030FF3030303030303030FF3000
0030FFFFFFFFFFFFFFFFFFFF3000
0030FF0000000000000000FF2000
0030FFFFFFFFFFFFFFFFFFE00000
0000303030303030303020000000
0000000000000000000000000000
FFFFFFFFFFFFFFFFFFFFFFFFFFFF
3030303030303030303030303020
ENDCHAR
STARTCHAR  4E9A
ENCODING  20122
SWIDTH  1000 0
DWIDTH  16 0
BBX  16 13 0 -3
BITMAP
0040FFFFFFFFFFFFFFFFFFFFFFFFFF00
0010303030FF40303040FF3030303000
0000000000FF30000030FF0000000000
0000801000FF30000030FF0000604000
0000E04000FF30000030FF0000E08000
0000808000FF30000030FF0040FF2000
000040E000FF30000030FF00A0C00000
000000F020FF30000030FF00E0600000
0000008030FF30000030FF10C0100000
0000000000FF30000030FF0000000000
0010101010FF30101030FF1010101000
20FFFFFFFFFFFFFFFFFFFFFFFFFFFF20
00202020202020202020202020202000
ENDCHAR
STARTCHAR  4E9B
ENCODING  20123
SWIDTH  1000 0
DWIDTH  16 0
BBX  14 13 1 -3
BITMAP
00200020C0000020C00000000000
00FF2030FF000030FF000000A030
00FF2030FF302030FF0040E0F040
00FF2030FFFFE030FFC0FFA01000
00FF2030FF000030FFA040000000
00FF2030FF000030FF00000010A0
00FF4060FF80A060FF30303040FF
A0FFFFF0E0A08040FFFFFFFFFFA0
4060403030303030303030300000
00FFFFFFFFFFFFFFFFFFFFFF3000
0000000000000000000000000000
FFFFFFFFFFFFFFFFFFFFFFFFFFF0
3030303030303030303030303020
ENDCHAR
STARTCHAR  4E9F
ENCODING  20127
SWIDTH  1000 0
DWIDTH  16 0
BBX  16 13 0 -3
BITMAP
0000FFFFFFFFFFFFFFFFFFFFFFE00000
00003030303030303030A0FFFFC00000
000000000010000080F0E08030200000
0030FFFFFFFF3030FFC0E0E0E0FF3000
0030FF3030FF3030FF30606060FF3000
0030FF0000FF3030FF40800080F01000
0030FF0000FF3030FF40F0E0FF600000
0030FF2020FF2030FF00A0FFFF600000
0030FFFFFFE00030FFA0E06080F08000
000010101020FFFFC020000000100000
00000000000030200000000000000000
20FFFFFFFFFFFFFFFFFFFFFFFFFFFF30
00303030303030303030303030303000
ENDCHAR
STARTCHAR  4EA0
ENCODING  20128
SWIDTH  1000 0
DWIDTH  16 0
BBX  16 5 0 5
BITMAP
00000000000040A00000000000000000
00000000000020F08000000000000000
00000000000000403000000000000000
20FFFFFFFFFFFFFFFFFFFFFFFFFFFF20
00303030303030303030303030303000
ENDCHAR
STARTCHAR  4EA1
ENCODING  20129
SWIDTH  1000 0
DWIDTH  16 0
BBX  16 14 0 -3
BITMAP
00000000000000200000000000000000
00000000000000E08000000000000000
0000000000000060FF20000000000000
20FFFFFFFFFFFFFFFFFFFFFFFFFFFF20
003040FF303030303030303030303000
000020FF000000000000000000000000
000020FF000000000000000000000000
000020FF000000000000000000000000
000020FF000000000000000000000000
000020FF000000000000000000000000
000020FF000000000000000000000000
000020FF000000000000000000000000
000020FFFFFFFFFFFFFFFFFFFFE00000
00000030303030303030303030200000
ENDCHAR
STARTCHAR  4EA2
ENCODING  20130
SWIDTH  1000 0
DWIDTH  16 0
BBX  14 13 1 -3
BITMAP
0000000000008060000000000000
203030303030A0F0303030303030
F0FFFFFFFFFFFFFFFFFFFFFFFFFF
0000000000000000001060000000
000030FFFFFFFFFFFFFFFF000000
000030FF303030303040FF000000
000030FF000000000030FF000000
000040F0000000000030FF000000
0000A0C0000000000030FF000000
0020F040000000000030FF001060
10E0C000000000000030FF0030FF
60E01000000000000030FFFFFFC0
0010000000000000000030302000
ENDCHAR
STARTCHAR  4EA4
ENCODING  20132
SWIDTH  1000 0
DWIDTH  16 0
BBX  14 13 1 -2
BITMAP
0000000000004010000000000000
000000000010E080000000000000
FFFFFFFFFFFFFFFFFFFFFFFFFFFF
3030306030303030303060303030
0000A0E0000000000000E0C00000
0080FF6020000000002080F0A000
40FF60A0F060000040F0A040F030
0030000080FFC080FF8000002000
000000000040FFFFC00000000000
0000000060F0C080F0C020000000
000040E0F060000020C0F0800000
40E0FFA020000000000060F0E030
60A020000000000000000020A020
ENDCHAR
STARTCHAR  4EA5
ENCODING  20133
SWIDTH  1000 0
DWIDTH  16 0
BBX  14 12 1 -2
BITMAP
0000000000008040000000000000
303030303030C0E0303030303020
FFFFFFFFFFFFFFFFFFFFFFFFFFE0
000010A0E0400000308010000000
0040E0A0100030A0FF8000401000
30FFFFFFFFFFFFC0300080F04000
003060E0FFE0400020C0E0300000
40E0FFC040000060F0A010000000
60A030000060E0FFF06000000000
00001060E0F0801080F0E0400000
40A0FFE0601000000020A0FFA010
40A040000000000000000040A000
ENDCHAR
STARTCHAR  4EA6
ENCODING  20134
SWIDTH  1000 0
DWIDTH  16 0
BBX  14 14 1 -3
BITMAP
0000000000002000000000000000
000000000040F030000000000000
202020202020C0E0202020202020
FFFFFFFFFFFFFFFFFFFFFFFFFFFF
10101020FF20101020FF30101010
00000010FF10000010FF20000000
0040E020FF10000010FF30E03000
00E0A030F000000010FF20C0C000
60FF2080C000000010FF2030FF40
A0A010F06000000010FF2000A080
0000A0E00000000010FF20000000
0080F0300000000010FF20000000
00C04000000000FFFFE000000000
0000000000000030200000000000
ENDCHAR
STARTCHAR  4EA7
ENCODING  20135
SWIDTH  1000 0
DWIDTH  16 0
BBX  15 14 0 -3
BITMAP
000000000000002000000000000000
00000000000020FF40000000000000
00A0FFFFFFFFFFFFFFFFFFFFFFFFFF
002030308030303030306040303030
00000020FF6000000000E080000000
00003030A0C030303060FF40303000
0000FFFFFFFFFFFFFFFFFFFFFFFF30
0000FF300000000000000000000000
0000FF200000000000000000000000
0020FF100000000000000000000000
0060E0000000000000000000000000
00A080000000000000000000000000
20FF30000000000000000000000000
002000000000000000000000000000
ENDCHAR
STARTCHAR  4EA8
ENCODING  20136
SWIDTH  1000 0
DWIDTH  16 0
BBX  16 14 0 -3
BITMAP
00000000000000100000000000000000
00000000000040E01000000000000000
10FFFFFFFFFFFFFFFFFFFFFFFFFFFF20
00303030303030303030303060303000
000010FFFFFFFFFFFFFFFFFFFF300000
000010FF4030303030303030FF200000
000010FFFFFFFFFFFFFFFFFFE0000000
00001040404040404040403020100000
0030FFFFFFFFFFFFFFFFFFFFFFFF0000
000010101010102080E0FFE080200000
00000000000000F0E080300000000000
00000000000000FF2000000000000000
00000000A0FFFFE00000000000000000
00000000103020000000000000000000
ENDCHAR
STARTCHAR  4EA9
ENCODING  20137
SWIDTH  1000 0
DWIDTH  16 0
BBX  16 14 0 -3
BITMAP
00000000000000300000000000000000
00000000000060E01000000000000000
10FFFFFFFFFFFFFFFFFFFFFFFFFFFF10
00303030303030303030303040303000
0000FFFFFFFFFFFFFFFFFFFFFF300000
0000FF40303030FF40303030FF300000
0000FF30000000FF30000000FF300000
0000FF30000000FF30000000FF300000
0000FFFFFFFFFFFFFFFFFFFFFF300000
0000FF40303030FF40303030FF300000
0000FF30000000FF30000000FF300000
0000FF30000000FF30000000FF200000
0000FFFFFFFFFFFFFFFFFFFFE0000000
00003030303030303030302000000000
ENDCHAR
STARTCHAR  4EAB
ENCODING  20139
SWIDTH  1000 0
DWIDTH  16 0
BBX  16 14 0 -3
BITMAP
00000000000000001000000000000000
00101010101010A0C010101010101000
10FFFFFFFFFFFFFFFFFFFFFFFFFFFF20
00102040404040404040404060201000
000030FFFFFFFFFFFFFFFFFFFF300000
000030FF3030303030303030FF200000
000030FFFFFFFFFFFFFFFFFFC0000000
0010FFFFFFFFFFFFFFFFFFFFFFFF0000
000030303030303080E0FFF0A0400000
0000000000000030FFE0601000000000
20FFFFFFFFFFFFFFFFFFFFFFFFFFFF00
0030303030303040FF30303030303000
000000000020FFFFA000000000000000
00000000000030200000000000000000
ENDCHAR
STARTCHAR  4EAC
ENCODING  20140
SWIDTH  1000 0
DWIDTH  16 0
BBX  14 14 1 -3
BITMAP
0000000000002000000000000000
000000000060F010000000000000
FFFFFFFFFFFFFFFFFFFFFFFFFFF0
3030303030303030303030603020
0030FFFFFFFFFFFFFFFFFFFF3000
0030FF3030303030303030FF3000
0030FF0000000000000000FF2000
0030FFFFFFFFFFFFFFFFFFE00000
000030603030FF40304040000000
000060E00000FF3000C0E0100000
0030F0400000FF300020F0A00000
20E080000000FF20000040FF8000
60C00000E0FFE00000000080C000
0000000020200000000000000000
ENDCHAR
STARTCHAR  4EAD
ENCODING  20141
SWIDTH  1000 0
DWIDTH  16 0
BBX  16 14 0 -3
BITMAP
00000000000000001000000000000000
0000000000000080A000000000000000
10FFFFFFFFFFFFFFFFFFFFFFFFFFFF20
00203040404040404040404040302000
000030FFFFFFFFFFFFFFFFFFFF300000
000030FF3030303030303030FF200000
000030FFFFFFFFFFFFFFFFFFC0104000
00FFFFFFFFFFFFFFFFFFFFFFFFFFFF00
00FF403030303030303030303040FF00
006010A0FFFFFFFFFFFFFFFFFF106000
0000001030303040FF30303030000000
0000000000000030FF00000000000000
000000000060FFFFC000000000000000
00000000001030200000000000000000
ENDCHAR
STARTCHAR  4EAE
ENCODING  20142
SWIDTH  1000 0
DWIDTH  16 0
BBX  14 14 1 -3
BITMAP
0000000000001000000000000000
000000000060F010000000000000
FFFFFFFFFFFFFFFFFFFFFFFFFFA0
3030404040404040404060803010
0030FFFFFFFFFFFFFFFFFFFF0000
0030FF3030303030303060FF0000
0030FFFFFFFFFFFFFFFFFF800000
3030303030303030303030306010
FFFFFFFFFFFFFFFFFFFFFFFFFF30
FF3030FFFFFFFFFFFFFF3000FF30
000040F03030303030FF30000000
1080F0A00000000000FF3000E040
E0E080000000000000FFFFFFE010
2000000000000000003030201000
ENDCHAR
STARTCHAR  4EB2
ENCODING  20146
SWIDTH  1000 0
DWIDTH  16 0
BBX  16 14 0 -3
BITMAP
00000000000000300000000000000000
00000000000040F02000000000000000
00FFFFFFFFFFFFFFFFFFFFFFFFFF1000
00303060603030303030806030300000
00000080E01000000020F06000000000
20FFFFFFFFFFFFFFFFFFFFFFFFFFFF20
00303030303030FF4030303030303000
00000000000000FF3000000000000000
00F0FFFFFFFFFFFFFFFFFFFFFFFF0000
00203060403030FF4030306030300000
000040F0600000FF300080F040000000
0060FF80001020FF20000080FF600000
00C060000080FFE00000000060E01000
00000000001020000000000000000000
ENDCHAR
STARTCHAR  4EB3
ENCODING  20147
SWIDTH  1000 0
DWIDTH  16 0
BBX  14 14 0 -3
BITMAP
0000000000000010000000000000
00203030303080E0303030303030
00FFFFFFFFFFFFFFFFFFFFFFFFFF
0000303030303030303030306000
0000FFFFFFFFFFFFFFFFFFFFFF00
0000FFFFFFFFFFFFFFFFFFFFC000
0020404040404040404040406010
00FFFFFFFFFFFFFFFFFFFFFFFF30
00FF30303030303030406060FF30
008010E0FFFFFFFFFFF0E0808020
00001020304060FFE0F0FFFFFF60
20FFFFFFFFF0E0FF604030208010
00201000000010FFFFFFFFFFE000
0000000000000030303030200000
ENDCHAR
STARTCHAR  4EB5
ENCODING  20149
SWIDTH  1000 0
DWIDTH  16 0
BBX  16 14 0 -3
BITMAP
00000000000000000000000000000000
00202020202020808020202020202000
20FFFFFFFFFFFFFFFFFFFFFFFFFFFF20
00101030101010303030303030101000
00F0FFFFFF4000C0FFFFFFFFF0F00000
002060FF6010003080FF100030FF0000
00FFFFFFF0300080FFE0100030FF0000
00C0A0FF100020A0FFFFFF3030FFF020
00C0FFF00000A0FFFF60400030FFE000
006080A0C0F0FFFFC020001080800000
10FFF0E080401030E0A080F0E0400000
0010A0E0A0C0E01010A0F0FFA0603000
0010F0E0C080601000001060A0E0A000
00000000000000000000000000000000
ENDCHAR
STARTCHAR  4EBA
ENCODING  20154
SWIDTH  1000 0
DWIDTH  16 0
BBX  15 13 1 -3
BITMAP
00000000000020E000000000000000
00000000000030FF00000000000000
00000000000030FF00000000000000
00000000000060E000000000000000
000000000000C0A000000000000000
000000000040FF3060000000000000
0000000010E0A010F0A00000000000
00000000A0E0100030F08000000000
000000A0F03000000040F080000000
0000A0F040000000000040FF600000
20C0E0300000000000000060FF6000
A0C02000000000000000000080F010
100000000000000000000000002000
ENDCHAR
STARTCHAR  4EBB
ENCODING  20155
SWIDTH  1000 0
DWIDTH  16 0
BBX  6 13 4 -3
BITMAP
00000010E030
00000080E010
000030FF6000
0020E0FF3000
00E0C0FF3000
004010FF3000
000000FF3000
000000FF3000
000000FF3000
000000FF3000
000000FF3000
000000FF3000
000000601000
ENDCHAR
STARTCHAR  4EBF
ENCODING  20159
SWIDTH  1000 0
DWIDTH  16 0
BBX  15 13 0 -3
BITMAP
00000030A01030303030303030A010
000000C0C040FFFFFFFFFFFFFFFF30
000060F0200000000000000010FF20
0030FFFF0000000000000000A0E000
00E0C0FF0000000000000060F02000
003030FF00000000000040FF600000
000030FF000000000030F080000000
000030FF0000000040F08000000000
000030FF00000040F0800000000000
000030FF000080FF80000000001080
000030FF0020FF40000000000030FF
000030FF0030FFFFFFFFFFFFFFFFC0
000010800000303030303030302000
ENDCHAR
STARTCHAR  4EC0
ENCODING  20160
SWIDTH  1000 0
DWIDTH  16 0
BBX  15 14 0 -3
BITMAP
000000000000000000000000000000
00000040E00000000030FF00000000
000000C0A00000000030FF00000000
000040FF300000000030FF00000000
0000E0FF000000000030FF00000000
0080FFFF002030303040FF30303030
00C080FF00F0FFFFFFFFFFFFFFFFFF
000030FF000000000030FF00000000
000030FF000000000030FF00000000
000030FF000000000030FF00000000
000030FF000000000030FF00000000
000030FF000000000030FF00000000
000030FF000000000030FF00000000
000010400000000000104000000000
ENDCHAR
STARTCHAR  4EC1
ENCODING  20161
SWIDTH  1000 0
DWIDTH  16 0
BBX  15 13 0 -3
BITMAP
00000030C010000000000000000000
000000C0C010303030303030303000
000060FF2060FFFFFFFFFFFFFFFF20
0030F0FF0000000000000000000000
00E0C0FF0000000000000000000000
003030FF0000000000000000000000
000030FF0000000000000000000000
000030FF0000000000000000000000
000030FF0000000000000000000000
000030FF1030303030303030303030
000030FF80FFFFFFFFFFFFFFFFFFFF
000030FF0000000000000000000000
000010400000000000000000000000
ENDCHAR
STARTCHAR  4EC2
ENCODING  20162
SWIDTH  1000 0
DWIDTH  16 0
BBX  15 13 0 -3
BITMAP
00000040A0000020E0000000000000
000000C0C0000030FF000000000000
000040FF40103040FF3030303040FF
0010E0FF00A0FFFFFFFFFFFFFFFFFF
00A0FFFF00000030FF0000000030FF
00A060FF00000030FF0000000030FF
000030FF00000040F00000000030FF
000030FF00000080C00000000030FF
000030FF000010E0600000000030FF
000030FF000080E0100000000030FF
000030FF0060FF40000000101030FF
000030FF00E08000000000A0FFFFC0
000010600010000000000020303000
ENDCHAR
STARTCHAR  4EC3
ENCODING  20163
SWIDTH  1000 0
DWIDTH  16 0
BBX  15 13 0 -3
BITMAP
00000010A010303030303030303030
000000A0E020FFFFFFFFFFFFFFFFFF
000030FF400000000000FF30000000
0010E0FF000000000000FF30000000
00C0F0FF000000000000FF30000000
10C040FF000000000000FF30000000
000030FF000000000000FF30000000
000030FF000000000000FF30000000
000030FF000000000000FF30000000
000030FF000000000000FF30000000
000030FF000000000000FF20000000
000030FF00000080FFFFE000000000
000000300000002030301000000000
ENDCHAR
STARTCHAR  4EC4
ENCODING  20164
SWIDTH  1000 0
DWIDTH  16 0
BBX  14 13 1 -3
BITMAP
0030FFFFFFFFFFFFFFFFFFFFFFE0
0030FF3030303060303030303020
0030FF00000000FF300000000000
0030FF00000000FF300000000000
0030FF00000000FF200000000000
0030FF00000010FF100000000000
0030FF00000060E0000000000000
0040E0000000E080A08000000000
0080C00000A0E01060F0A0000000
00E0600080F030000040F0C01000
60F020A0F0400000000020E0E020
808030E02000000000000010C060
0000000000000000000000000000
ENDCHAR
STARTCHAR  4EC5
ENCODING  20165
SWIDTH  1000 0
DWIDTH  16 0
BBX  15 13 0 -3
BITMAP
00000030E010303030303030306010
000000E0A030FFFFFFFFFFFFFFFF30
0000A0FF100000000000000000FF30
0080FFFF001080100000000060E000
10E080FF0020E0C010000020F06000
000030FF000020E0C01000C0C00000
000030FF00000020E0E0A0F0200000
000030FF0000000020F0FF40000000
000030FF00000000A0F0E0E0100000
000030FF000010C0F04010E0E01000
000030FF0040E0E020000010E0E010
000030FF00E0A0100000000010E080
000010400010000000000000001000
ENDCHAR
STARTCHAR  4EC6
ENCODING  20166
SWIDTH  1000 0
DWIDTH  16 0
BBX  15 14 0 -3
BITMAP
000000000000000000000000000000
00000030E010000030FF0000000000
000000C0C000000030FF0000000000
000040FF4000000030FF0000000000
0010E0FF3000000030FF4000000000
00E0E0FF3000000030FFF0C0200000
006020FF3000000030FF20E0F04000
000000FF3000000030FF000080FF60
000000FF3000000030FF0000004010
000000FF3000000030FF0000000000
000000FF3000000030FF0000000000
000000FF3000000030FF0000000000
000000FF3000000030FF0000000000
000000401000000010600000000000
ENDCHAR
STARTCHAR  4EC7
ENCODING  20167
SWIDTH  1000 0
DWIDTH  16 0
BBX  16 13 0 -3
BITMAP
00000040C00000F02000000000000000
000010E0A00000FF3000000040000000
0000A0FF1060FFFFFFFFFFFFFF200000
0060FFFF001030FF40303030FF200000
00E0A0FF000000FF20000010FF200000
001030FF000020FF10000010FF200000
000030FF000040F000000010FF200000
000030FF000080C000000010FF200000
000030FF0000E06000000010FF200000
000030FF0060F01000000010FF201000
000030FF00E0A00000000010FF20FF20
000030FF40F0200000000010FFFFE010
00001060002000000000000040401000
ENDCHAR
STARTCHAR  4EC9
ENCODING  20169
SWIDTH  1000 0
DWIDTH  16 0
BBX  15 14 0 -3
BITMAP
000000000000000000000000000000
000030E030003030303030A0200000
0000A0E00030FFFFFFFFFFFF300000
0040FF400030FF00000000FF300000
10E0FF300030FF00000000FF300000
A0E0FF300030FF00000000FF300000
6030FF300030FF00000000FF300000
0000FF300030F000000000FF300000
0000FF300060E000000000FF300000
0000FF3000A0A000000000FF300000
0000FF3020FF4000000000FF301080
0000FF30A0E00000000000FF3030FF
0000FF40E0400000000000FFFFFFA0
000030000000000000000020202000
ENDCHAR
STARTCHAR  4ECA
ENCODING  20170
SWIDTH  1000 0
DWIDTH  16 0
BBX  16 14 0 -3
BITMAP
00000000000000000000000000000000
00000040E080FFFFFFFFFFFFA0000000
000000C0A010303030303040FF300000
000060FF2000008020000000A0C00000
0020F080000010E0E010000020FF4000
00E0E00000000020E080000000A0E000
00802030303030304030303030204000
000010FFFFFFFFFFFFFFFFFFFF100000
000000000000000000000060FF100000
0000000000000000000080FF60000000
000000000000000000A0F04000000000
0000000000000010A0F0400000000000
00000000000000C0E030000000000000
00000000000000402000000000000000
ENDCHAR
STARTCHAR  4ECB
ENCODING  20171
SWIDTH  1000 0
DWIDTH  16 0
BBX  15 14 1 -3
BITMAP
000000000000000000000000000000
000000E0A0FFFFFFFFFFFF80000000
000060F020303030303040FF300000
0020F08000000000000000A0E00000
00C0E0000000000000000010F08000
A0E02030FF0000000020FF1060E010
20300030FF0000000020FF10001000
00000030FF0000000020FF10000000
00000040E00000000020FF10000000
000000A0A00000000020FF10000000
000030FF300000000020FF10000000
0010E0A0000000000020FF10000000
0030E010000000000020FF10000000
000000000000000000003000000000
ENDCHAR
STARTCHAR  4ECD
ENCODING  20173
SWIDTH  1000 0
DWIDTH  16 0
BBX  15 13 0 -3
BITMAP
000000208000203030303030303010
000000A0C000A0FFFFFFFFFFFFFF40
000020FF40000030FF000000A0F020
0000C0FF00000030FF000060FF4000
0080FFFF00000030FF0030F0A040A0
00A060FF00000030FF0080FFFFFFFF
000030FF00000040E00000000030FF
000030FF000000A0A00000000030FF
000030FF000000F0600000000030FF
000030FF000060F0100000000030FF
000030FF0010F080000000000030FF
000030FF0080E01000000000A0FFC0
000000300000200000000000203000
ENDCHAR
STARTCHAR  4ECE
ENCODING  20174
SWIDTH  1000 0
DWIDTH  16 0
BBX  15 13 0 -3
BITMAP
00000000E02000000000E020000000
00000000FF3000000000FF30000000
00000000FF2000000000FF20000000
00000000FF2000000000FF20000000
00000020FF1000000020FF10000000
00000040FF2000000060E000000000
00000080FFE0200000A0A000000000
000000E060C0E02010F0F030000000
000060F01010C08080F0A0E0200000
0000E08000000020F06000C0E01000
0080F010000000C0E0000010E0C000
10F04000000060F02000000020E030
002000000000002000000000001000
ENDCHAR
STARTCHAR  4ED1
ENCODING  20177
SWIDTH  1000 0
DWIDTH  16 0
BBX  15 14 1 -3
BITMAP
000000100000000000000000000000
000010F080FFFFFFFFFFFFF0100000
000080E010303030303030E0800000
0030FF600000000000000040FF2000
10E0A0000000000000000000C0C000
A0E020A0000000000000106030FF30
201030FF000000002080F0E0002000
000030FF000030A0FFE06000000000
000030FF60E0FFC060000000000000
000030FFF0A0300000000000100000
000030FF0000000000000020FF0000
000030FF0000000000000020FF0000
000030FFFFFFFFFFFFFFFFFFC00000
000000303030303030303020000000
ENDCHAR
STARTCHAR  4ED3
ENCODING  20179
SWIDTH  1000 0
DWIDTH  16 0
BBX  16 14 0 -3
BITMAP
00000000000000000000000000000000
00000040E060FFFFFFFFFFFFFF300000
000000E08010303030303030A0A00000
000080E0100000000000000020FF2000
0040FF40000000000000001040A0A000
00C08030FFFFFFFFFFFFFFFFFF40A000
00000030FF30303030303040FF000000
00000030FF00000000000030FF000000
00000030FF00000000102040FF000000
00000030FF0000000080FFFFA0000000
00000030FF0000000000100000E02000
00000030FF0000000000000000FF2000
00000030FFFFFFFFFFFFFFFFFFE00000
00000000303030303030303020000000
ENDCHAR
STARTCHAR  4ED4
ENCODING  20180
SWIDTH  1000 0
DWIDTH  16 0
BBX  16 13 0 -3
BITMAP
00000040800030303030303030301000
000000E06000FFFFFFFFFFFFFFFF8000
000080FF0000000000000010C0E02000
0030FFFF00000000000030E0A0100000
10E0A0FF000000000020FF8000000000
004030FF000000000030FF0000000000
000030FF00FFFFFFFFFFFFFFFFFFFF40
000030FF003030303040FF3030303010
000030FF000000000030FF0000000000
000030FF000000000030FF0000000000
000030FF000000000030FF0000000000
000030FF00000040FFFFC00000000000
00000000000000103020000000000000
ENDCHAR
STARTCHAR  4ED5
ENCODING  20181
SWIDTH  1000 0
DWIDTH  16 0
BBX  16 14 -1 -3
BITMAP
00000000100000000000200000000000
00000020F03000000010FF1000000000
000000A0E00000000010FF1000000000
000030FF400000000010FF1000000000
0010E0FF303030303040FF4030303010
00A0F0FF30FFFFFFFFFFFFFFFFFFFF60
008030FF300000000010FF1000000000
000000FF300000000010FF1000000000
000000FF300000000010FF1000000000
000000FF300000000010FF1000000000
000000FF300000000010FF1000000000
000000FF300000000010FF1000000000
000000FF3000FFFFFFFFFFFFFFFFE000
00000030000020202020202020202000
ENDCHAR
STARTCHAR  4ED6
ENCODING  20182
SWIDTH  1000 0
DWIDTH  16 0
BBX  16 14 0 -3
BITMAP
00000000000000000000000000000000
00000060E00000000030FF0000000000
000000E0800080100030FF0000104000
000080FF1000FF404080FFC0F0FFFF00
0030F0FF20E0FFFFF0E0FF804040FF00
00E0E0FF1060FF300030FF000030FF00
003030FF0000FF300030FF000030FF00
000030FF0000FF300030FF000030FF00
000030FF0000FF300030FF0080FFC000
000030FF0000FF300030FF0010200000
000030FF0000FF300010400000001000
000030FF0000FF30000000000000FF20
000030FF0000FFFFFFFFFFFFFFFFE000
00000030000020202020202020200000
ENDCHAR
STARTCHAR  4ED7
ENCODING  20183
SWIDTH  1000 0
DWIDTH  16 0
BBX  16 14 0 -3
BITMAP
00000000000000000000000000000000
00000020E020000000000020E0000000
000000A0C000000000000030FF000000
000040FF30C0FFFFFFFFFFFFFFFFFF00
0010E0FF0020303030303040FF303000
00C0E0FF0000300000000060E0000000
008040FF0040FF80000000C080000000
000030FF000060F0E03040FF20000000
000030FF00000010C0FFF0A000000000
000030FF0000000020F0FFC020000000
000030FF00000060F0C030E0F0400000
000030FF0040C0FF80000000A0FF8000
000030FF00F0C030000000000060F030
00001040001000000000000000001000
ENDCHAR
STARTCHAR  4ED8
ENCODING  20184
SWIDTH  1000 0
DWIDTH  16 0
BBX  15 14 0 -3
BITMAP
000000001000000000000000000000
00000020F020000000000020FF1000
000000C0A000000000000020FF1000
000060FF10E0FFFFFFFFFFFFFFFFFF
0030F0FF0020303030303040FF3030
10E0C0FF0000006000000020FF1000
006030FF000020F080000020FF1000
000030FF00000060FF400020FF1000
000030FF00000000A0E01020FF1000
000030FF0000000010E04020FF1000
000030FF0000000000100020FF1000
000030FF0000000000000020FF1000
000030FF000000000060FFFFA00000
000000300000000000001010000000
ENDCHAR
STARTCHAR  4ED9
ENCODING  20185
SWIDTH  1000 0
DWIDTH  16 0
BBX  15 13 0 -3
BITMAP
000020C01000000020C00000000000
000080E00000000030FF0000000000
0010F0600000000030FF0000000000
00A0FF3020F0000030FF000000F020
60FFFF3030FF000030FF000000FF30
A080FF3030FF000030FF000000FF30
0000FF3030FF000030FF000000FF30
0000FF3030FF000030FF000000FF30
0000FF3030FF000030FF000000FF30
0000FF3030FF000030FF000000FF30
0000FF3030FF303040FF303030FF30
0000FF3030FFFFFFFFFFFFFFFFFF30
0000A0100000000000000000008010
ENDCHAR
STARTCHAR  4EDD
ENCODING  20189
SWIDTH  1000 0
DWIDTH  16 0
BBX  16 14 0 -3
BITMAP
00000000000000000000000000000000
00000060E040FFFFFFFFFFFFC0000000
000000E0A010303030303040F0600000
000080F0200000000000000080F01000
0040FF60000000000000000000E0A000
00E0800000000000000000000040E020
002000FFFFFFFFFFFFFFFFFFFF200000
0000003030303040FF30303030000000
0000000000000030FF00000000000000
0000000000000030FF00000000000000
0000000000000030FF00000000000000
0000000000000030FF00000000000000
0000FFFFFFFFFFFFFFFFFFFFFFFFA000
00003030303030303030303030302000
ENDCHAR
STARTCHAR  4EDE
ENCODING  20190
SWIDTH  1000 0
DWIDTH  16 0
BBX  15 14 1 -3
BITMAP
000000100000000000000000000000
000040F0102030303030303030C020
0000A0C000E0FFFFFFFFFFFFFFFF30
0030FF4000000030FF00000000FF30
00C0FF0000000030FF00000000FF30
80FFFF000080C030FF00000000FF30
8080FF0010F08030FF00000000FF30
0030FF0080F01040F000000000FF30
0030FF00A08000A0C000000000FF30
0030FF00000030FF4000000000FF30
0030FF000020E0A00000000000FF30
0030FF0030F0C0000000000000FF20
0030FF0080A00000000000F0FFE000
000030000000000000000020200000
ENDCHAR
STARTCHAR  4EDF
ENCODING  20191
SWIDTH  1000 0
DWIDTH  16 0
BBX  16 14 0 -3
BITMAP
00000000000000000000000000000000
00000010E03020202020202040808000
00000080E010FFFFFFFFFFFFF0C06000
000030FF400000000030FF0000000000
0010E0FF000000000030FF0000000000
00C0F0FF000000000030FF0000000000
008060FF000000000030FF0000000000
000030FF003030303040FF3030303010
000030FF20FFFFFFFFFFFFFFFFFFFF60
000030FF000000000030FF0000000000
000030FF000000000030FF0000000000
000030FF000000000030FF0000000000
000030FF000000000030FF0000000000
00001040000000000010400000000000
ENDCHAR
STARTCHAR  4EE1
ENCODING  20193
SWIDTH  1000 0
DWIDTH  16 0
BBX  15 14 0 -3
BITMAP
000000400000300000000000000000
000060F01040FF2000000000000000
0000E0A000C0FFFFFFFFFFFFFFFF60
0040FF3030FF603030303030303010
10E0FF30A0C0000000000000000000
A0E0FF300010F0FFFFFFFFFFFFFF00
3030FF300000203030303030E0F000
0000FF3000000000000020C0F03000
0000FF30000000000040F0E0200000
0000FF3000000010A0FFC010003010
0000FF30000060F0FF80000000FF40
0000FF3000E0FFE03010101010FF40
0000FF3000F0FFFFFFFFFFFFFFF010
000060100030404040404040301000
ENDCHAR
STARTCHAR  4EE3
ENCODING  20195
SWIDTH  1000 0
DWIDTH  16 0
BBX  16 14 0 -3
BITMAP
00000000000000000000000000000000
00000020F020000020F0008060000000
000000A0C000000030FF0060FFA00000
000030FF3000000030FF000040C00000
0010E0FF0000000030FF20406080A040
00C0F0FF0080A0C0E0FFFFFFE0C0A040
008040FF00C0A08080FF401000000000
000030FF0000000000E0600000000000
000030FF0000000000A0C00000000000
000030FF000000000030FF4000000000
000030FF00000000000080F040003000
000030FF0000000000000080FF80E080
000030FF000000000000000060E0F010
00001060000000000000000000002000
ENDCHAR
STARTCHAR  4EE4
ENCODING  20196
SWIDTH  1000 0
DWIDTH  16 0
BBX  16 14 0 -3
BITMAP
00000000000000000000000000000000
00000040E0A0FFFFFFFFFFFF80000000
000000C0A010303030303060F0200000
000060FF200000A030000000E0A00000
0020F080000000C0F030000040FF3000
10E0E00000000010C0A0000000C0C000
00A0203030303030303030303030A000
000010FFFFFFFFFFFFFFFFFFFF000000
0000000000000000000040F0A0000000
00000000000000000040F08000000000
000000001060100040FF800000000000
0000000030F0FFC0FFA0000000000000
00000000000040A0E0FFC01000000000
00000000000000000040800000000000
ENDCHAR
STARTCHAR  4EE5
ENCODING  20197
SWIDTH  1000 0
DWIDTH  16 0
BBX  14 14 1 -3
BITMAP
0010000000000000001000000000
00FF30000000000000FF40000000
00FF30000000000000FF40000000
00FF3040C010000000FF30000000
00FF3010E0A0000020FF20000000
00FF300030FF600040F000000000
00FF300000608000A0A000000000
00FF300000000010F04010000000
00FF300000000080E040E0200000
00FF3000000020F06000E0C00000
00FF3060C000C0C0000030FF6000
10FFF0F08080F02000000080F010
C0E0601000E0600000000000E0A0
1000000000100000000000002010
ENDCHAR
STARTCHAR  4EE8
ENCODING  20200
SWIDTH  1000 0
DWIDTH  16 0
BBX  16 14 -1 -3
BITMAP
00000000000000000000000000000000
00000030E01010101010101010101000
000000C0A020FFFFFFFFFFFFFFFFFF10
000040FF400020202020202020202000
0020E0FF300000000000000000000000
00C0C0FF300000000000000000000000
003010FF3000FFFFFFFFFFFFFFFF1000
000000FF300030303030303030300000
000000FF300000000000000000000000
000000FF300000000000000000000000
000000FF300000000000000000000000
000000FF300000000000000000000000
000000FF30FFFFFFFFFFFFFFFFFFFF80
00000030001010101010101010101010
ENDCHAR
STARTCHAR  4EEA
ENCODING  20202
SWIDTH  1000 0
DWIDTH  16 0
BBX  16 14 0 -3
BITMAP
00000000000000000000000000000000
00000060E00000003080000000100000
000000E08020800040FF60000080C000
000060FF1030F0800060FF4020FF6000
0020F0FF000040FF60008020C0C00000
10E0E0FF00000060FF400080F0200000
008040FF0000000080F060FF60000000
000030FF0000000000C0FFA000000000
000030FF0000000010E0FFC010000000
000030FF00000010E0E030E0A0000000
000030FF000020E0E0100030F0800000
000030FF0040E0C01000000040FF6000
000030FF00E0A000000000000060E000
00001060001000000000000000001000
ENDCHAR
STARTCHAR  4EEB
ENCODING  20203
SWIDTH  1000 0
DWIDTH  16 0
BBX  16 13 0 -3
BITMAP
00000030800000000030000000000000
000000A0A000000080F0100000000000
000030FF30000060FF40000060000000
0000E0FF000030F0800000A0F0200000
0080FFFF0020E0A0000080F040000000
10E060FF10E0C0000060FF6000000000
000030FF60E0100040F0800000000000
000030FF00100020F0A0000000000000
000030FF000010E0C000000020300000
000030FF0000C0E010000000A0E00000
000030FF00A0F0201020304060FF8000
000030FF30FFFFFFFFFFF0E0E0C0FF20
00001080104030201000000000006000
ENDCHAR
STARTCHAR  4EEC
ENCODING  20204
SWIDTH  1000 0
DWIDTH  16 0
BBX  16 14 0 -3
BITMAP
00000000000000000000000000000000
00000080A020E0300010202020206010
000020F06000C0F030E0FFFFFFFFFF20
0000C0F000C020C0602030303030FF20
0080FFFF00FF3000000000000000FF20
00C080FF00FF3000000000000000FF20
000030FF00FF3000000000000000FF20
000030FF00FF3000000000000000FF20
000030FF00FF3000000000000000FF20
000030FF00FF3000000000000000FF20
000030FF00FF3000000000000000FF20
000030FF00FF3000000000000000FF20
000030FF00FF300000000060FFFFE000
00000010000000000000001030200000
ENDCHAR
STARTCHAR  4EF0
ENCODING  20208
SWIDTH  1000 0
DWIDTH  16 0
BBX  15 13 0 -2
BITMAP
000000102000000000000000000000
000000A0C000000060601010101020
000040FF4030FFFFF060FFFFFFFFFF
0010E0FF0030FF201000FF401040FF
00C0F0FF0030FF000000FF300030FF
00A060FF0030FF000000FF300030FF
000030FF0030FF000000FF300030FF
000030FF0030FF000000FF300030FF
000030FF0030FF000000FF300030FF
000030FF0030FF000000FF300030FF
000030FF0030FF40C020FF300030FF
000030FF0080FFF0A020FF30E0FFC0
000030FF003040000000FF20202000
ENDCHAR
STARTCHAR  4EF2
ENCODING  20210
SWIDTH  1000 0
DWIDTH  16 0
BBX  15 14 0 -3
BITMAP
000000000000000000000000000000
00000060E00000000030FF00000000
000000E0A00000000030FF00000000
000060FF303030303040FF30302000
0010F0FF00FFFFFFFFFFFFFFFFFFFF
00C0F0FF00FF30000030FF000030FF
00A040FF00FF30000030FF000030FF
000030FF00FF30000030FF000030FF
000030FF00FF30000030FF000030FF
000030FF00FF40303040FF303040FF
000030FF00FFFFFFFFFFFFFFFFFFA0
000030FF000000000030FF00000000
000030FF000000000030FF00000000
000010600000000000106000000000
ENDCHAR
STARTCHAR  4EF3
ENCODING  20211
SWIDTH  1000 0
DWIDTH  16 0
BBX  16 14 0 -3
BITMAP
00000000000000000000000000000000
00000060E020F0000000F02000000000
000000E0A030FF000000FF3000000000
000040FF3030FF000000FF300060A000
0000E0FF0030FF303020FF60C0FFA000
00A0FFFF0030FFFFFFC0FFFFA0200000
10E080FF0030FF000000FF4000000000
000030FF0030FF000000FF3000000000
000030FF0030FF000000FF3000000000
000030FF0030FF000000FF3000003000
000030FF0030FF001040FF300000FF20
000030FF0030FFC0FFC0FF301010FF20
000030FF00E0F0A04000FFFFFFFFE000
00001060002000000000404040401000
ENDCHAR
STARTCHAR  4EF5
ENCODING  20213
SWIDTH  1000 0
DWIDTH  16 0
BBX  16 14 0 -3
BITMAP
00000000000000000000000000000000
00000060E00060E00000000000000000
000000E0A000E0C01010101010100000
000060FF2040FFFFFFFFFFFFFFFF8000
0010E0FF00E0A0202040FF2020201000
00A0FFFF60E010000030FF0000000000
10E080FF003000000030FF0000000000
001030FF000000000030FF0000000000
000030FF003030303040FF3030303000
000030FF00FFFFFFFFFFFFFFFFFFFF10
000030FF000000000030FF0000000000
000030FF000000000030FF0000000000
000030FF000000000030FF0000000000
00001040000000000000300000000000
ENDCHAR
STARTCHAR  4EF6
ENCODING  20214
SWIDTH  1000 0
DWIDTH  16 0
BBX  15 14 0 -3
BITMAP
000000000000000000001000000000
00000060E00080C00030FF00000000
000000E06000E0800030FF00000000
000080FF0040FFFFFFFFFFFFFFFF60
0040FFFF00C0C0303040FF30303010
10F0C0FF10E030000030FF00000000
004030FF000000000030FF00000000
000030FF000000000030FF00000000
000030FF000000000030FF00000000
000030FF00FFFFFFFFFFFFFFFFFFFF
000030FF002030303040FF30303030
000030FF000000000030FF00000000
000030FF000000000030FF00000000
000010600000000000104000000000
ENDCHAR
STARTCHAR  4EF7
ENCODING  20215
SWIDTH  1000 0
DWIDTH  16 0
BBX  16 14 0 -3
BITMAP
00000020000000000000000000000000
000060F02000C0A0FFFFFFFFFFA00000
0020F0800030FF303030303060FF2000
20E0FF3000C0C0000000000000C0A000
80C0FF3080F02000000000000040FF20
1000FF30104020FF10000030FF004000
0000FF30000020FF10000030FF000000
0000FF30000030FF00000030FF000000
0000FF30000060E000000030FF000000
0000FF300000A0A000000030FF000000
0000FF300020FF4000000030FF000000
0000FF3000A0C00000000030FF000000
0000FF3010E0300000000030FF000000
00002000000000000000000020000000
ENDCHAR
STARTCHAR  4EFB
ENCODING  20219
SWIDTH  1000 0
DWIDTH  16 0
BBX  16 14 0 -3
BITMAP
00000000100000000000000000000000
00000040F02000000000000010406000
000020E08000E0FFFFFFFFFFFFF08000
0030E0FF000020303040FF3020000000
00E0E0FF000000000030FF0000000000
003030FF000000000030FF0000000000
000030FF002030303040FF3030303000
000030FF00FFFFFFFFFFFFFFFFFFFF00
000030FF000000000030FF0000000000
000030FF000000000030FF0000000000
000030FF000000000030FF0000000000
000030FF000000000030FF0000000000
000030FF0060FFFFFFFFFFFFFFFFFF10
00001040001030303030303030303000
ENDCHAR
STARTCHAR  4EFD
ENCODING  20221
SWIDTH  1000 0
DWIDTH  16 0
BBX  15 14 1 -3
BITMAP
000000100000100000000000000000
000030F03000C080FFFFFFFFC00000
0020E0A00040FF2020303030F04000
20E0FF0010E0A0000000000080E000
C0E0FF00C0E010000000000010F060
2030FF006030202020202020606030
0030FF0000A0FFFFFFFFFFFFFF0000
0030FF00001030FF10101030FF0000
0030FF00000030FF00000030FF0000
0030FF00000080C000000030FF0000
0030FF000020F06000000030FF0000
0030FF0010E0C00000000030FF0000
0030FF0060E0100000C0FFFFC00000
001040000010000000203020000000
ENDCHAR
STARTCHAR  4EFF
ENCODING  20223
SWIDTH  1000 0
DWIDTH  16 0
BBX  15 14 1 -3
BITMAP
000000000000000000000000000000
000030E01000000080C00000000000
0020E0A03030303060FFA030303000
20E0FF10FFFFFFFFFFFFFFFFFFFF30
C0E0FF000000FF3000000000000000
1030FF000000FF3000000000104000
0030FF000000FFFFFFFFFFFFFFFF00
0030FF000000FF403030303040FF00
0030FF000030F0000000000030FF00
0030FF000080A0000000000030FF00
0030FF0010F040000000000030FF00
0030FF00A0C000000000000030FF00
0030FF20F0200000000000C0FFC000
001040001000000000000020200000
ENDCHAR
STARTCHAR  4F01
ENCODING  20225
SWIDTH  1000 0
DWIDTH  16 0
BBX  16 14 0 -3
BITMAP
00000000000000000000000000000000
000000E080FFFFFFFFFFFFFFC0000000
000080F01030303030303030F0800000
0010F080000000000000000080FF3000
00A0E00000000000E020000000E0E000
00A0300000000000FF30000000406000
00000000F0200000FF30000000000000
00000000FF300000FFFFFFFFFF200000
00000000FF300000FF40303030000000
00000000FF300000FF30000000000000
00000000FF300000FF30000000000000
00000000FF300000FF30000000000000
00FFFFFFFFFFFFFFFFFFFFFFFFFFFF20
00303030303030303030303030303000
ENDCHAR
STARTCHAR  4F09
ENCODING  20233
SWIDTH  1000 0
DWIDTH  16 0
BBX  15 14 1 -3
BITMAP
000000000000000000000000000000
000030E020000000C0300000000000
0020E0A020202020A0E02020202000
20E0FF10E0FFFFFFFFFFFFFFFFFF00
C0E0FF000000000000000060100000
2030FF000030FFFFFFFFFFFF300000
0030FF000030FF30303030FF300000
0030FF000030FF00000000FF300000
0030FF000030FF00000000FF300000
0030FF000040F000000000FF300000
0030FF0000A0C000000000FF302000
0030FF0040FF4000000000FF30FF20
0030FF00E0800000000000FFFFE000
000030002000000000000030200000
ENDCHAR
STARTCHAR  4F0A
ENCODING  20234
SWIDTH  1000 0
DWIDTH  16 0
BBX  15 14 1 -3
BITMAP
000000000000000000000000000000
000020E02030303030303040A00000
0010E0C010FFFFFFFFFFFFFFFF0000
10C0FF1000000020FF000030FF0000
C0F0FF0030303040FF303040FF3000
3040FF00FFFFFFFFFFFFFFFFFFFF20
0030FF0000000020FF000030FF0000
0030FF0000000060E0000030FF0000
0030FF0010FFFFFFFFFFFFFFC00000
0030FF00002080F030202020000000
0030FF000040F06000000000000000
0030FF0040F0800000000000000000
0030FF10F080000000000000000000
001060002000000000000000000000
ENDCHAR
STARTCHAR  4F0D
ENCODING  20237
SWIDTH  1000 0
DWIDTH  16 0
BBX  15 14 1 -3
BITMAP
000000000000000000000000000000
000030E02020202020202020202000
0010E0A020FFFFFFFFFFFFFFFFFF00
10E0FF1000000040FF100000000000
C0F0FF0000000080E0000000000000
3040FF00002030C0A0303030600000
0030FF0000E0FFFFFFFFFFFFFF0000
0030FF00000020FF20000030FF0000
0030FF00000060F000000030FF0000
0030FF000000A0C000000030FF0000
0030FF000000E08000000030FF0000
0030FF002030FF6020202040FF2010
0030FF30FFFFFFFFFFFFFFFFFFFF40
001060002020202020202020202010
ENDCHAR
STARTCHAR  4F0E
ENCODING  20238
SWIDTH  1000 0
DWIDTH  16 0
BBX  15 14 1 -3
BITMAP
000000200000000000200000000000
000040FF2000000030FF0000000000
0030F08060FFFFFFFFFFFFFFFFFF00
30E0FF001030303040FF3030303000
C0E0FF000000000030FF0000401000
1030FF0030FFFFFFFFFFFFFFFF3000
0030FF000040303030303080F01000
0030FF0000E0C020000030F0600000
0030FF000030C0FFA040F0A0000000
0030FF0000000060F0FFE000000000
0030FF00000060E0F0A0F0C0300000
0030FF0080E0F0A0100020C0FF8010
0030FF00A08010000000000060E010
000010000000000000000000000000
ENDCHAR
STARTCHAR  4F0F
ENCODING  20239
SWIDTH  1000 0
DWIDTH  16 0
BBX  14 14 1 -3
BITMAP
0000001000000000100000000000
000030F020000000FF3040800000
0020E0A000000000FF3040FF8000
20E0FF0000000000FF3000604000
C0E0FF00E0FFFFFFFFFFFFFFFFFF
1030FF0020303030FF4030303030
0030FF0000000040F00000000000
0030FF00000000C0A08060000000
0030FF00000060F02080F0200000
0030FF000030F0800000C0E00000
0030FF0020E0A000000020F0A000
0030FF30E0C0000000000040FF60
0030FF40A0000000000000008080
0000200000000000000000000000
ENDCHAR
STARTCHAR  4F10
ENCODING  20240
SWIDTH  1000 0
DWIDTH  16 0
BBX  14 14 1 -3
BITMAP
0000000000000000000000000000
000020E0300000F0208060000000
0010E0C0000000FF3080FFA00000
10C0FF10000000FF300030804000
C0F0FF00406080FFE0E0FFFFFF10
4040FF00E0E0C0FF806040200000
0030FF00000000FF300000206000
0030FF00000000F0400030F0C000
0030FF00000000C0A060FFA00000
0030FF0000000060FFFF80000000
0030FF00000040E0FFE020004060
0030FF0030C0FF8010C0F080C0A0
0030FF0060A02000000060E0FF60
0010600000000000000000002010
ENDCHAR
STARTCHAR  4F11
ENCODING  20241
SWIDTH  1000 0
DWIDTH  16 0
BBX  15 14 1 -3
BITMAP
000000000000000000000000000000
000020E020000000FF300000000000
0000E08000000000FF300000000000
00A0FF0030303030FF403030303010
A0FFFF00FFFFFFFFFFFFFFFFFFFF30
6060FF000010FF20FF301020000000
0030FF000060E000FF30A0C0000000
0030FF0000A0A000FF3040FF300000
0030FF0000F06000FF3000E0800000
0030FF0040F01000FF300080F01000
0030FF00C0A00000FF300020FF6000
0030FF20FF300000FF300000C0C000
0030FF60C0000000FF30000040E010
000000000000000030000000000000
ENDCHAR
STARTCHAR  4F17
ENCODING  20247
SWIDTH  1000 0
DWIDTH  16 0
BBX  15 14 0 -3
BITMAP
000000000000000000000000000000
000000C0A0FFFFFFFFFFFFFFE00000
000040F02030303030303030E08000
0010E080000000000000000060FF30
00C0E000F02000000000F02000A0C0
00602000FF3000000010FF20001010
00000000FF2000000010FF20000000
00000030FF0000000040F010000000
00000080E0C0100000A0F0E0000000
000020F060E0A00030FF40E0800000
0000C0E00030FF60E0A00040FF4000
00A0F020000040C0E0100000A0E010
00A03000000020E02000000010C030
000000000000000000000000000000
ENDCHAR
STARTCHAR  4F18
ENCODING  20248
SWIDTH  1000 0
DWIDTH  16 0
BBX  15 14 1 -3
BITMAP
000000400000001040002000000000
000060F020000030FF10F0A0000000
0020F06000000030FF0060FFA00000
10E0FF0020202040FF202080402000
C0F0FF00FFFFFFFFFFFFFFFFFFFF20
4040FF0010101040F0101010101000
0030FF0000000060C0801000000000
0030FF00000000C080FF3000000000
0030FF00000020FF40FF3000000000
0030FF000000A0E000FF3000000000
0030FF000040FF4000FF3000108000
0030FF0020F0A00000FF301030FF00
0030FF0080C0000000FFFFFFFFA000
000000000010000000202020100000
ENDCHAR
STARTCHAR  4F19
ENCODING  20249
SWIDTH  1000 0
DWIDTH  16 0
BBX  16 14 0 -3
BITMAP
00000000300000000000200000000000
00000080F01000000030FF0000000000
000040FF600010000030FF0000001000
0040F0F00080E0000030FF000040F010
10F0A0FF0020F0800030FF0010E0A000
002030FF000080F02040E000A0E01000
000030FF000000E080A0A020F0300000
000030FF0000001020F0401010000000
000030FF00000000A0C010E060000000
000030FF00000060F0300080FF400000
000030FF000060FF60000000A0F03000
000030FF0080FF600000000000A0E020
000030FF00A06000000000000010C040
00000000000000000000000000000000
ENDCHAR
STARTCHAR  4F1A
ENCODING  20250
SWIDTH  1000 0
DWIDTH  16 0
BBX  15 14 1 -3
BITMAP
000010000000000000000000000000
0000A0A0E0FFFFFFFFFFFFFF600000
0030FF602030303030303080E00000
00C0C0000000000000000010F06000
80FF3030303030303030302080E000
808000FFFFFFFFFFFFFFFFA010C010
000000000000000000000000000000
A0FFFFFFFFFFFFFFFFFFFFFFFFFF00
20303060FF80303030303030303000
000010E0A000000000008080000000
0000C0E010000000001080F0200000
0080FFC0A0C0E0E0F0FFFFFFA00000
0080E0C0A080806040402030F01000
000000000000000000000000100000
ENDCHAR
STARTCHAR  4F1B
ENCODING  20251
SWIDTH  1000 0
DWIDTH  16 0
BBX  14 14 1 -3
BITMAP
0000004000000000000000000000
000060F020FFFFFFFFFFFFFFFF80
0040FF6010FF4030303030303010
60FFFF0010FF2080100000108010
A0A0FF0010FF30E0C00000A0E010
0030FF0010FF2020F0A040FF4000
0030FF0010FF200040FFF0A00000
0030FF0010FF200010E0FF400000
0030FF0010FF2010C0E0C0E02000
0030FF0010FF40E0E02010E0C000
0030FF0010FF40C020000020E030
0030FF0010FF2000000000000000
0030FF0010FFFFFFFFFFFFFFFFA0
0000300000404040404040404030
ENDCHAR
STARTCHAR  4F1E
ENCODING  20254
SWIDTH  1000 0
DWIDTH  16 0
BBX  15 13 0 -2
BITMAP
000000000000000000000000000000
000010E080FFFFFFFFFFFFFF800000
0000A0C01030303030303060FF3000
0080F020000000A010000000A0E010
20FF6040000000FF3000004030E080
002030FF400000FF300010E0A01000
000000A0E00000FF300080F0100000
00000020FF6000FF3030FF60000000
00000000804000FF3030A000000000
00303030303030FF40303030303010
00FFFFFFFFFFFFFFFFFFFFFFFFFF80
00000000000000FF30000000000000
00000000000000FF30000000000000
ENDCHAR
STARTCHAR  4F1F
ENCODING  20255
SWIDTH  1000 0
DWIDTH  16 0
BBX  15 13 1 -3
BITMAP
000020C020000000FF300000000000
0010E0C030303030FF403030302000
10C0FF10FFFFFFFFFFFFFFFFFFFF00
A0C0FF0000000000FF300000000000
0030FF0060FFFFFFFFFFFFFFFF1000
0030FF0010303030FF403030300000
0030FF0000000000FF300000000000
0030FF00E0E0E0E0FFE0E0E0E0FF30
0030FF0080808080FF80808080FF30
0030FF0000000000FF30000000FF30
0030FF0000000000FF30002030FF20
0030FF0000000000FF3000A0FFC000
001040000000000060100000000000
ENDCHAR
STARTCHAR  4F20
ENCODING  20256
SWIDTH  1000 0
DWIDTH  16 0
BBX  15 14 1 -3
BITMAP
000000300000000020100000000000
000060FF20000000C0A00000000000
0040FF6000FFFFFFFFFFFFFFFFF000
40F0FF00003030E0A0303030302000
C0E0FF00000060FF20000000000000
2030FF20FFFFFFFFFFFFFFFFFFFF40
0030FF003080F03030303030303010
0030FF0000E0A03030303030301000
0030FF0000FFFFFFFFFFFFFFFF6000
0030FF0000000000000010C0F03000
0030FF00003030000030E0E0200000
0030FF0000C0FFF0C0FFE030000000
0030FF000000206080C0F0FFF00000
001040000000000000000020400000
ENDCHAR
STARTCHAR  4F22
ENCODING  20258
SWIDTH  1000 0
DWIDTH  16 0
BBX  15 13 1 -3
BITMAP
000010A02030303030303030303000
0000C0E000FFFFFFFFFFFFFFFFFF00
10C0FF2000006030000000FF300000
A0E0FF000020F040000000FF300000
1030FF0000C0A000000000FF300000
0030FF0020FFFFFFFFFFFFFFFFFF30
0030FF0000303080F03030FF403000
0030FF00000010E0800000FF300000
0030FF000000A0E0000000FF300000
0030FF000060FF30000000FF300000
0030FF0060FF6000000000FF200000
0030FF00C060000010FFFFE0000000
000030000000000000202000000000
ENDCHAR
STARTCHAR  4F24
ENCODING  20260
SWIDTH  1000 0
DWIDTH  16 0
BBX  15 14 1 -3
BITMAP
000020400000000000000000000000
0000A0E00080A02020202020202000
0060FF3010F0FFFFFFFFFFFFFFFF10
30F0FF00A0C0102010101010101000
C0E0FF20F03000FF30000000000000
2030FF00102030FF4030303040A000
0030FF0000A0FFFFFFFFFFFFFFFF00
0030FF00000040F00000000030FF00
0030FF000000A0A00000000030FF00
0030FF000010F0400000000030FF00
0030FF0000A0E0000000000030FF00
0030FF0040FF40000000000030FF00
0030FF0080800000000060FFFFC000
000010000000000000001030200000
ENDCHAR
STARTCHAR  4F25
ENCODING  20261
SWIDTH  1000 0
DWIDTH  16 0
BBX  15 13 1 -3
BITMAP
000010A020E02000000030C0100000
0000C0E000FF30000060F0A0000000
00A0FF2000FF301080FF8000000000
A0FFFF0000FF30A0E0400000000000
4040FF0030FF404030303030303010
0030FF10FFFFFFFFFFFFFFFFFFFF60
0030FF0000FF300060FF2000000000
0030FF0000FF300000E0A000000000
0030FF0000FF30000040FF40000000
0030FF0000FF30106000A0E0200000
0030FF0000FFC0F0E01010E0E01000
0030FF0080FFE06000000020E08000
001080003040000000000000100000
ENDCHAR
STARTCHAR  4F26
ENCODING  20262
SWIDTH  1000 0
DWIDTH  16 0
BBX  15 14 1 -3
BITMAP
000000100000000000000000000000
000040F02010E080FFFFFFFFE00000
0020F08000A0E01030303030F06000
30E0FF0040FF40000000000080E000
C0E0FF20F08000000000000010E060
2030FF108020C00000000060404010
0030FF000030FF00000060FF800000
0030FF000030FF000080FF80000000
0030FF000030FF10A0F06000000000
0030FF000030FFE0E0300000000000
0030FF000030FFA01000000020C000
0030FF000030FF000000000030FF00
0030FF000030FFFFFFFFFFFFFFE000
000030000000202020202020201000
ENDCHAR
STARTCHAR  4F27
ENCODING  20263
SWIDTH  1000 0
DWIDTH  16 0
BBX  15 14 1 -3
BITMAP
000000000010000000000000000000
000030E020C080E0FFFFFFFF200000
0010E0A040FF3020303030A0C00000
10C0FF10E0A0000000000020FF4000
C0FFFFA0E01000000000000080E000
6060FF40403030303030306020C020
0030FF0000FFFFFFFFFFFFFF300000
0030FF0000FF3000000000FF300000
0030FF0000FF3000000000FF300000
0030FF0000FF3000002030FF200000
0030FF0000FF300000E0FFC0108010
0030FF0000FF30000000000010FF10
0030FF0000FFFFFFFFFFFFFFFFE000
000030000030303030303030200000
ENDCHAR
STARTCHAR  4F2A
ENCODING  20266
SWIDTH  1000 0
DWIDTH  16 0
BBX  15 14 1 -3
BITMAP
000000000000000000000000000000
000030E020A03000F0200000000000
0020E0A000C0E020FF300000000000
10E0FF001040F060FF40303030A020
C0F0FF0060FFFFFFFFFFFFFFFFFF30
3030FF0000000000FF20000000FF30
0030FF0000000030FF00000000FF30
0030FF0000000080C060C00000FF30
0030FF00000010F04020F0A000FF30
0030FF000000A0C0000040FF60FF30
0030FF000080F0200000006010FF30
0030FF0080FF40000000000000FF20
0030FF10E04000000000A0FFFFE000
000030000000000000001030200000
ENDCHAR
STARTCHAR  4F2B
ENCODING  20267
SWIDTH  1000 0
DWIDTH  16 0
BBX  16 14 0 -3
BITMAP
00000000200000000000000000000000
00000080F010000010A0300000000000
000060FF4060606060E0E06060608000
0060FFFF00FFE0C0C0C0C0C0C0E0FF10
00E0C0FF00FF3000000000000020FF10
003030FF00FF3000000000000020FF10
000030FF000000000000000000000000
000030FF000000000000000000000000
000030FF000000000000000000000000
000030FF000000000000000000000000
000030FF000000000000000000000000
000030FF003030303030303030303000
000030FF00FFFFFFFFFFFFFFFFFFFF30
00000010000000000000000000000000
ENDCHAR
STARTCHAR  4F2F
ENCODING  20271
SWIDTH  1000 0
DWIDTH  16 0
BBX  14 14 1 -3
BITMAP
0000000000000000100000000000
000030E020000020F04000000000
0010E0A0002020E0E020202030A0
20E0FF1020FFFFFFFFFFFFFFFFFF
C0F0FF0020FF10101010101030FF
3040FF0020FF10000000000030FF
0030FF0020FF10000000000030FF
0030FF0020FF30303030303040FF
0030FF0020FFFFFFFFFFFFFFFFFF
0030FF0020FF10000000000030FF
0030FF0020FF10000000000030FF
0030FF0020FF10000000000030FF
0030FF0020FFFFFFFFFFFFFFFFC0
0000300000303030303030302000
ENDCHAR
STARTCHAR  4F30
ENCODING  20272
SWIDTH  1000 0
DWIDTH  16 0
BBX  15 14 1 -3
BITMAP
000000000000000000000000000000
000030E02000000020E00000000000
0020E0A01010101040FF1010101000
20E0FF10FFFFFFFFFFFFFFFFFFFF40
C0E0FF001010101040FF1010101000
1030FF000000000030FF0000000000
0030FF000030303040FF303040A000
0030FF0020FFFFFFFFFFFFFFFFFF00
0030FF0020FF10000000000030FF00
0030FF0020FF10000000000030FF00
0030FF0020FF10000000000030FF00
0030FF0020FF10000000000030FF00
0030FF0020FFFFFFFFFFFFFFFFC000
000030000030303030303030300000
ENDCHAR
STARTCHAR  4F32
ENCODING  20274
SWIDTH  1000 0
DWIDTH  16 0
BBX  15 14 0 -3
BITMAP
000000102000000000000000000000
000000A0E000303030303030303060
000060F03010FFFFFFFFFFFFFFFFF0
0030F0FF0010FF20000000000040F0
10E0F0FF0010FF40303030303060E0
008040FF0010FFFFFFFFFFFFFFFF80
000030FF0010FF20A0100000104000
000030FF0010FF20FF200030E0E000
000030FF0020FF20FF2060F0C01000
000030FF0040F010FFE0F060000000
000030FF0080C010FFA02000001060
000030FF00E08010FF2000000030FF
000030FF30F01010FFFFFFFFFFFFC0
000000100000000030303030302000
ENDCHAR
STARTCHAR  4F34
ENCODING  20276
SWIDTH  1000 0
DWIDTH  16 0
BBX  15 14 1 -3
BITMAP
000000000000000000100000000000
000020E02060100030FF0000402000
0010E0C010E0A00030FF0000E08000
10C0FF100060FF4030FF0080E01000
C0F0FF000000A08030FF00A0600000
3040FF000030303040FF3030302000
0030FF0000FFFFFFFFFFFFFFFFC000
0030FF000000000030FF0000000000
0030FF000000000030FF0000000000
0030FF003030303040FF3030303000
0030FF00FFFFFFFFFFFFFFFFFFFF30
0030FF000000000030FF0000000000
0030FF000000000030FF0000000000
001040000000000010400000000000
ENDCHAR
STARTCHAR  4F36
ENCODING  20278
SWIDTH  1000 0
DWIDTH  16 0
BBX  15 14 1 -3
BITMAP
000000200000000000000000000000
000040FF2060E0C0FFFFFFFF800000
0030F06000E0A02030303080F01000
30E0FF0060F01020A0100000E08000
C0E0FF20F0600030F0E0200060FF20
2030FF108000000020E08000004000
0030FF001030303030403030300000
0030FF0080FFFFFFFFFFFFFFFF0000
0030FF0000000000000040E0C00000
0030FF00001010000060FFA0000000
0030FF000060F0A0A0F06000000000
0030FF00000040A0F0F0A040000000
0030FF00000000001060C0A0000000
000010000000000000000000000000
ENDCHAR
STARTCHAR  4F38
ENCODING  20280
SWIDTH  1000 0
DWIDTH  16 0
BBX  15 14 0 -3
BITMAP
000000003000000000000000000000
00000060FF2000000030FF00000000
000060FF600010101030FF10106010
0040FFFF1030FFFFFFFFFFFFFFFF30
00E0C0FF1030FF202040FF2020FF30
001020FF1030FF000030FF0000FF30
000020FF1030FFFFFFFFFFFFFFFF30
000020FF1030FF303040FF3030FF30
000020FF1030FF000030FF0000FF30
000020FF1030FF000030FF0000FF20
000020FF1030FFFFFFFFFFFFFFE010
000020FF100030303040FF30301000
000020FF100000000030FF00000000
000000100000000000104000000000
ENDCHAR
STARTCHAR  4F3A
ENCODING  20282
SWIDTH  1000 0
DWIDTH  16 0
BBX  15 14 1 -3
BITMAP
000000000000000000000000000000
000030E020C0C0C0C0C0C0C0C0FF30
0020E0A0008080808080808080FF30
20E0FF00000000000000000000FF30
C0E0FF00C0FFFFFFFFFFFFFF00FF30
2030FF00203030303030303000FF30
0030FF0000F0FFFFFFFFFFF000FF30
0030FF0000F08030303040FF00FF30
0030FF0000F06000000030FF00FF30
0030FF0000F06000000030FF00FF30
0030FF0000F0FFFFFFFFFFC000FF30
0030FF00002030303030200000FF20
0030FF000000000000A0FFFFFFE000
000030000000000000203030300000
ENDCHAR
STARTCHAR  4F3C
ENCODING  20284
SWIDTH  1000 0
DWIDTH  16 0
BBX  15 14 1 -3
BITMAP
000000000000000000000000000000
000030E020200000000020E0000000
0010E0A020FF10C0600030FF000000
10C0FF1020FF10A0C00030FF000000
A0F0FF0020FF1040FF2030FF000000
2040FF0020FF1000E08030FF000000
0030FF0020FF1000808040F0000000
0030FF0020FF1000000080C0000000
0030FF0020FF10000000E060400000
0030FF0020FF10100060F040FF2000
0030FF0020FF80F040F08000C0A000
0030FF0020FFFF80C0E0000040FF30
0030FF00A0E04040F020000000C0A0
001040001020000020000000001000
ENDCHAR
STARTCHAR  4F3D
ENCODING  20285
SWIDTH  1000 0
DWIDTH  16 0
BBX  15 14 1 -3
BITMAP
000000000000000000000000000000
000040E01020E00000001010103000
0020E0803040FF306010FFFFFFFF30
10E0FF00FFFFFFFFFF30FF6040FF30
A0F0FF000020FF10FF30FF3000FF30
1040FF000020FF00FF30FF3000FF30
0030FF000040F000FF30FF3000FF30
0030FF000060E000FF30FF3000FF30
0030FF0000C08000FF30FF3000FF30
0030FF0010FF4000FF30FF3000FF30
0030FF0060F00000FF30FF3000FF30
0030FF00E0A00000FF20FF3000FF20
0030FF40FF30E0FFE000FFF0E0E010
000030001000202000004040401000
ENDCHAR
STARTCHAR  4F43
ENCODING  20291
SWIDTH  1000 0
DWIDTH  16 0
BBX  14 14 1 -3
BITMAP
0000001000000000000000000000
000030F030202020202020203080
0020E0A030FFFFFFFFFFFFFFFFFF
20E0FF1030FF101030FF101030FF
A0C0FF1030FF000030FF000030FF
0020FF1030FF000030FF000030FF
0020FF1030FFFFFFFFFFFFFFFFFF
0020FF1030FF303040FF303040FF
0020FF1030FF000030FF000030FF
0020FF1030FF000030FF000030FF
0020FF1030FF000030FF000030FF
0020FF1030FF101030FF101030FF
0020FF1030FFFFFFFFFFFFFFFFC0
0010400010303030303030303000
ENDCHAR
STARTCHAR  4F46
ENCODING  20294
SWIDTH  1000 0
DWIDTH  16 0
BBX  16 14 0 -3
BITMAP
00000000100000000000000000000000
00000040F02000000000000000601000
000030F08030FFFFFFFFFFFFFFFF3000
0020E0FF0030FF303030303030FF3000
00E0F0FF0030FF000000000000FF3000
00A060FF0030FF303030303030FF3000
000030FF0030FFFFFFFFFFFFFFFF3000
000030FF0030FF000000000000FF3000
000030FF0030FF000000000000FF2000
000030FF0030FFFFFFFFFFFFFFE00000
000030FF000030303030303020000000
000030FF003030303030303030303020
000030FF00FFFFFFFFFFFFFFFFFFFFC0
00001040000000000000000000000000
ENDCHAR
STARTCHAR  4F4D
ENCODING  20301
SWIDTH  1000 0
DWIDTH  16 0
BBX  15 13 1 -3
BITMAP
000020C020000030C0000000000000
0010E0C030303040FF603030301000
10C0FF10FFFFFFFFFFFFFFFFFF4000
C0F0FF000000000000000010000000
3030FF0020E02000000000C0A00000
0030FF0000E08000000020FF400000
0030FF000080E000000080E0000000
0030FF000020FF300000E080000000
0030FF000000C0A00060F010000000
0030FF00000060C000C0A000000000
0030FF000000000040FF3000000000
0030FF20FFFFFFFFFFFFFFFFFFFF40
000030004040404040404040404010
ENDCHAR
STARTCHAR  4F4E
ENCODING  20302
SWIDTH  1000 0
DWIDTH  16 0
BBX  15 14 1 -3
BITMAP
000000000000000000000000000000
000020E02030303030303040806000
0010E0C030FFFFFFFFFFFFF0C06000
10C0FF1030FF10101030FF00000000
C0F0FF0030FF00000030FF00000000
4040FF0030FF30303040FF30301000
0030FF0030FFFFFFFFFFFFFFFF6000
0030FF0030FF00000020FF10000000
0030FF0030FF00000010FF30000000
0030FF0030FF00406000E060000000
0030FF0030FF80FFA01060E0101000
0030FF0030FFF06040F020E0C0F030
0030FF00E0C0200000C0C030E0C000
001060003000000000102000101000
ENDCHAR
STARTCHAR  4F4F
ENCODING  20303
SWIDTH  1000 0
DWIDTH  16 0
BBX  15 14 1 -3
BITMAP
000000000000000000000000000000
000030E020000000C0400000000000
0010E0C020303030C0C03030303000
10E0FF10A0FFFFFFFFFFFFFFFFFF00
C0E0FF000000000030FF0000000000
2030FF000000000030FF0000000000
0030FF000030303040FF3030302000
0030FF0000FFFFFFFFFFFFFFFFE000
0030FF000000000030FF0000000000
0030FF000000000030FF0000000000
0030FF000000000030FF0000000000
0030FF000000000030FF0000000000
0030FF00FFFFFFFFFFFFFFFFFFFF30
000020003030303030303030303000
ENDCHAR
STARTCHAR  4F50
ENCODING  20304
SWIDTH  1000 0
DWIDTH  16 0
BBX  15 13 1 -3
BITMAP
000010A01000A01000000000000000
0000C0E03030FF4030303030303000
10A0FF20E0FFFFFFFFFFFFFFFFFF00
A0E0FF000030F00000000000000000
1030FF000060A00000000000000000
0030FF0000C0FFFFFFFFFFFFFF6000
0030FF0030F0303030FF4030301000
0030FF00C080000000FF2000000000
0030FF60F010000000FF2000000000
0030FF204000000000FF2000000000
0030FF000000000000FF2000000000
0030FF0000FFFFFFFFFFFFFFFFFFC0
000030000030303030303030303020
ENDCHAR
STARTCHAR  4F51
ENCODING  20305
SWIDTH  1000 0
DWIDTH  16 0
BBX  14 13 1 -3
BITMAP
000020C0200010A0000000000000
0010C0E0203040FF303030303030
10C0FF20E0FFFFFFFFFFFFFFFFFF
C0F0FF00000080A0000000000000
3040FF000000E060000000000000
0030FF000040FF40303030306010
0030FF0000E0FFFFFFFFFFFFFF30
0030FF0080FFFF1000000000FF30
0030FF40FF80FF1000000000FF30
0030FF206020FF1000000000FF30
0030FF000020FF1000000000FF20
0030FF000020FFFFFFFFFFFFE010
0000300000003030303030301000
ENDCHAR
STARTCHAR  4F53
ENCODING  20307
SWIDTH  1000 0
DWIDTH  16 0
BBX  15 14 1 -3
BITMAP
000000000000000000000000000000
000040E010000000FF300000000000
0020F08010101010FF301010100000
20E0FF00FFFFFFFFFFFFFFFFFFE000
C0E0FF002020F060FF40A040202000
1030FF000030FF20FF30E080000000
0030FF000080E000FF3080E0000000
0030FF0000C0A000FF3020FF400000
0030FF0020FF4000FF3000C0A00000
0030FF0080F00000FF300060FF1000
0030FF00E0A0C0FFFFFFE010F08000
0030FF40FF302030FF402000A0E000
0030FF40A0000000FF30000040A010
001040000000000040100000000000
ENDCHAR
STARTCHAR  4F55
ENCODING  20309
SWIDTH  1000 0
DWIDTH  16 0
BBX  14 13 1 -3
BITMAP
000010A030303030303030303030
0000C0E0A0FFFFFFFFFFFFFFFFFF
00A0FF200000000000000000FF30
A0FFFF000030303030306000FF30
6060FF0000FFFFFFFFFFFF10FF30
0030FF0000FF30000020FF10FF30
0030FF0000FF30000020FF10FF30
0030FF0000FF30000020FF10FF30
0030FF0000FF40303040FF00FF30
0030FF0000FFFFFFFFFFA000FF30
0030FF000000000000000000FF20
0030FF000000000060FFFFFFE000
0000200000000000103030200000
ENDCHAR
STARTCHAR  4F57
ENCODING  20311
SWIDTH  1000 0
DWIDTH  16 0
BBX  15 14 1 -3
BITMAP
000000200000000000200000000000
000060F02000000080E00000000000
0040FF80C0C0C0C0E0FFC0C0C0FF30
40F0FF00FFA0A0A0A0A0A0A0A0FF30
A0C0FF00FF3000000000000000FF30
1030FF004030C00000000040204010
0030FF000030FF00000060F0800000
0030FF000030FF0020A0FF80000000
0030FF000030FF80F0E03000000000
0030FF000030FFE060000000000000
0030FF000030FF0000000000108000
0030FF000030FF000000000030FF00
0030FF000030FFFFFFFFFFFFFFC000
000030000000202020202020200000
ENDCHAR
STARTCHAR  4F58
ENCODING  20312
SWIDTH  1000 0
DWIDTH  16 0
BBX  15 14 1 -3
BITMAP
000010000000000000000000000000
0000A0C0A0FFFFFFFFFFFFFF600000
0060FF402030303030303060F03000
40FF60000000000000000000A0E000
408000FFFFFFFFFFFFFFFFFF106000
000000303030303030303030000000
000000000000000000000000000000
C0FFFFFFFFFFFFFFFFFFFFFFFFFF00
20303030303040FF30303030303000
000010E0300030FF0000E060000000
0000C0E0000030FF000060FF300000
10C0E020000030FF000000A0E01000
30C0200000C0FFC000000000A03000
000000000020200000000000000000
ENDCHAR
STARTCHAR  4F59
ENCODING  20313
SWIDTH  1000 0
DWIDTH  16 0
BBX  15 14 1 -3
BITMAP
000000000000000000000000000000
0000C060E0FFFFFFFFFFFFFF600000
0060F0202030303030303080F01000
40FF60000000000000000000E0A000
C0A000FFFFFFFFFFFFFFFFFF30E000
00000030303040FF30303030000000
00000000000030FF00000000000000
E0FFFFFFFFFFFFFFFFFFFFFFFFF000
20303030303040FF30304030302000
000020F0300030FF0000E0A0000000
0010E0C0000030FF000040FF600000
10C0E010000030FF00000080F02000
40C0100000C0FFC000000000A04000
000000000020200000000000000000
ENDCHAR
STARTCHAR  4F5A
ENCODING  20314
SWIDTH  1000 0
DWIDTH  16 0
BBX  15 13 1 -3
BITMAP
000020A01030A00020C00000000000
0000C06000C0E03040FF3030301000
00A0FF0060FFFFFFFFFFFFFFFF6000
A0FFFF30F080000030FF0000000000
6060FF10A000000030FF0000000000
0030FF002030303060FF3030303000
0030FF00F0FFFFFFFFFFFFFFFFFF00
0030FF0000000030FF404000000000
0030FF00000010E0A010E0A0000000
0030FF000000C0E0100020E0A00000
0030FF0010C0F03000000030F08000
0030FF00C0E020000000000030C010
000010004010000000000000000000
ENDCHAR
STARTCHAR  4F5B
ENCODING  20315
SWIDTH  1000 0
DWIDTH  16 0
BBX  15 14 1 -3
BITMAP
000000000000001000001000000000
000020E0300020FF1000FF30000000
0010C0E0203040FF3030FF4040F000
10C0FF3060FFFFFFFFFFFFFFFFFF00
A0E0FF00000020FF1000FF3030FF00
2030FF0040FFFFFFFFFFFFFFFFA000
0030FF0060E040FF3030FF40200000
0030FF0080C020FF0000FF30000000
0030FF00A0C060F03030FF40308010
0030FF00C0FFFFFFFFFFFFFFFFFF20
0030FF000030FF200000FF3010FF20
0030FF0010E0A0000000FF3030FF10
0030FF00C0E010000000FF30FFA000
001060004020000000006010000000
ENDCHAR
STARTCHAR  4F5C
ENCODING  20316
SWIDTH  1000 0
DWIDTH  16 0
BBX  15 13 1 -3
BITMAP
000010801000801000000000000000
0000C0E01080FF4030303030303010
00A0FF2030FFFFFFFFFFFFFFFFFF30
A0F0FF10E0A000FF30000000000000
3040FF00600000FF40303030301000
0030FF00000000FFFFFFFFFFFF4000
0030FF00000000FF30000000000000
0030FF00000000FF30000000000000
0030FF00000000FF40303030301000
0030FF00000000FFFFFFFFFFFF8000
0030FF00000000FF30000000000000
0030FF00000000FF30000000000000
0010A000000000A010000000000000
ENDCHAR
STARTCHAR  4F5D
ENCODING  20317
SWIDTH  1000 0
DWIDTH  16 0
BBX  14 14 1 -3
BITMAP
0000000000000000000000000000
000020E03020E030000000000000
0000E0E000A0FF403030303040E0
00A0FF3040FFFFFFFFFFFFFFFFFF
A0FFFF20E0A000000000000030FF
2030FF106030FFFFFFFFFFF030FF
0030FF000030FF30303040FF30FF
0030FF000030FF00000030FF30FF
0030FF000030FF00000030FF30FF
0030FF000030FF30303040FF30FF
0030FF000030FFFFFFFFFFA030FF
0030FF00000000000000000030FF
0030FF00000000000060FFFFFFA0
0000300000000000000010101000
ENDCHAR
STARTCHAR  4F5E
ENCODING  20318
SWIDTH  1000 0
DWIDTH  16 0
BBX  15 13 1 -3
BITMAP
000010801030303030303030301000
0010C0E020FFFFFFFFFFFFFFFF6000
30E0FF100000000000000000000000
A0C0FF00A0FFFFFFFFFFFFFFFFFF00
0030FF002030803030303030303000
0030FF003030E08030303030303010
0030FF00FFFFFFFFFFFFFFFFFFFF40
0030FF0000E08000000010FF300000
0030FF0030FFE0600030E0C0100000
0030FF000030A0F0F0FFC010000000
0030FF002060C0FFC0E0FFC0601000
0030FF30FFF0A04000003080F0C000
001060003000000000000000002000
ENDCHAR
STARTCHAR  4F5F
ENCODING  20319
SWIDTH  1000 0
DWIDTH  16 0
BBX  15 14 1 -3
BITMAP
000000200000300000000000000000
000030FF4040FF4000000000104000
0020F08020E0FFFFFFFFFFFFFFFF00
40F0FF20E0C0403030303060E0E000
80C0FF30C040FFC06040A0FFA01000
0030FF00000040E0FFFFFF80000000
0030FF1060A0F0F0A060C0FFE08010
0030FF30F0C080200000002080E0A0
0030FF000000A0FFE0A06040100010
0030FF000010104080A0E0FFC00000
0030FF0010FFE0A060300010200000
0030FF00004080A0E0FFF0C0803000
0030FF000000000000206080C06000
000000000000000000000000000000
ENDCHAR
STARTCHAR  4F60
ENCODING  20320
SWIDTH  1000 0
DWIDTH  16 0
BBX  15 13 1 -3
BITMAP
000010801010601000000000000000
0010C0E00080FF4030303030303010
10C0FF2040FFFFFFFFFFFFFFFFFF40
A0E0FF20F0C0000020C00000A0E000
2030FF006000000030FF0000203000
0030FF000000A03030FF0060600000
0030FF000040FF2030FF0080E00000
0030FF0000A0C00030FF0010FF4000
0030FF0020FF600030FF0000C0A000
0030FF00A0E0000030FF000060F010
0030FF10E040000030FF000000F060
0030FF00100040FFFFC00000003010
000030000000103020000000000000
ENDCHAR
STARTCHAR  4F63
ENCODING  20323
SWIDTH  1000 0
DWIDTH  16 0
BBX  15 14 1 -3
BITMAP
000000000000000000000000000000
000030E0203030303030303030C020
0020E0C030FFFFFFFFFFFFFFFFFF30
20E0FF1030FF000020FF100000FF30
C0E0FF0030FF202030FF202020FF30
1030FF0030FFFFFFFFFFFFFFFFFF30
0030FF0030FF101030FF201010FF30
0030FF0030FF000020FF100000FF30
0030FF0040FFFFFFFFFFFFFFFFFF30
0030FF0080C0303040FF303030FF30
0030FF00C080000020FF100000FF30
0030FF10FF30000020FF100010FF20
0030FF60E000000020FF10F0FFE010
001060001000000000400030301000
ENDCHAR
STARTCHAR  4F64
ENCODING  20324
SWIDTH  1000 0
DWIDTH  16 0
BBX  15 13 1 -3
BITMAP
000020C04030303030303030303000
0010E0C0F0FFFFFFFFFFFFFFFFFF00
10C0FF100080C00000000000000000
C0F0FF0000A0C01010101040100000
3030FF0000A0FFFFFFFFFFFF300000
0030FF0000C08020202020FF300000
0030FF0000E06030800000FF300000
0030FF0000F06030F06000FF300000
0030FF0000FF400060F030FF300000
0030FF0020FF2000006010FF306010
0030FF0030FFA0E0A00000FF30FF20
0030FF00E0E0A060300000FFFFE000
000030001000000000000010100000
ENDCHAR
STARTCHAR  4F65
ENCODING  20325
SWIDTH  1000 0
DWIDTH  16 0
BBX  15 14 1 -3
BITMAP
000000000000000000000000000000
000030E080FFFFFFFFFFFFFF800000
0010E0A01030303030303040FF3000
00A0E0100000000000000000A0C000
40F03030303030303030303020F060
001000FFFFFFFFFFFFFFFFFF004010
000000000000300000000020000000
000020C01010FF40000000E0800000
000000E08000A0C0000060F0100000
00000060F01020FF4000E0A0000000
00000000E0A000A08040FF20000000
000000004060000000E0A000000000
00FFFFFFFFFFFFFFFFFFFFFFFFFF00
003030303030303030303030303000
ENDCHAR
STARTCHAR  4F67
ENCODING  20327
SWIDTH  1000 0
DWIDTH  16 0
BBX  14 12 1 -2
BITMAP
000020C0200020FF000000000000
0010E0C0000020FF303030302000
10C0FF10000020FFFFFFFFFFFF00
C0F0FF00000020FF000000000000
3040FF00203040FF303030303030
0030FF00F0FFFFFFFFFFFFFFFFFF
0030FF00000020E0000000000000
0030FF00000020FF00A020000000
0030FF00000020FF10C0F0600000
0030FF00000020FF000080FFA010
0030FF00000020FF00000030C010
0030FF00000020FF000000000000
ENDCHAR
STARTCHAR  4F69
ENCODING  20329
SWIDTH  1000 0
DWIDTH  16 0
BBX  15 14 0 -3
BITMAP
000000000000000000000000000000
000010E0403030303030303040F000
0000A0F020FFFFFFFFFFFFFFFFFF00
0060FF6010FF30303030303030FF00
60FFFF3010FFE0FFFFFFFFFF30FF00
2030FF3010FF203040FF30A040FF00
0000FF3010FF40FFFFFFFFFF60FF00
0000FF3010FF40FF20FF00FF60FF00
0000FF3010FF40FF20FF00FF60FF00
0000FF3020FF40FF20FF00FF60FF00
0000FF3040F030FF20FF00FF40FF00
0000FF30C0A030FF20FF80E030FF00
0000FF40E030002020FF101030FFE0
000030000000000000200000002010
ENDCHAR
STARTCHAR  4F6C
ENCODING  20332
SWIDTH  1000 0
DWIDTH  16 0
BBX  15 14 1 -3
BITMAP
000000400000000000000000000000
000060F020000000F0200000400000
0040FF6000FFFFFFFFFFFFFFF02000
60F0FF0000303030FF40A0FF600000
A0A0FF0000000000FFA0FF80000000
0030FF00FFFFFFFFFFFFFFFFFFFF60
0030FF00303040E0F0403030303010
0030FF000060F0E020000020100000
0030FF20C0FFA0100030A0FF600000
0030FF60E0F08040C0FFC060000000
0030FF0000E0F0FFA0300000401000
0030FF0000E0C02000000000FF2000
0030FF0000E0FFFFFFFFFFFFE00000
000030000010202020202010000000
ENDCHAR
STARTCHAR  4F6F
ENCODING  20335
SWIDTH  1000 0
DWIDTH  16 0
BBX  15 14 1 -3
BITMAP
000000100000000000000010000000
000040F02000C08000000080C00000
0030F080000060E0100020FF600000
40F0FF0080FFFFFFFFFFFFFFFFFF00
A0C0FF001030303040FF3030303000
0030FF000000000030FF0000000000
0030FF0000FFFFFFFFFFFFFFFFC000
0030FF000030303040FF3030302000
0030FF000000000030FF0000000000
0030FF000000000030FF0000000000
0030FF003030303040FF3030303000
0030FF00FFFFFFFFFFFFFFFFFFFF10
0030FF000000000030FF0000000000
0020C0000000000020C00000000000
ENDCHAR
STARTCHAR  4F70
ENCODING  20336
SWIDTH  1000 0
DWIDTH  16 0
BBX  14 14 1 -3
BITMAP
0000002000000000000000000000
000080F030303030303030303030
0040FF60E0FFFFFFFFFFFFFFFFFF
40F0FF0000000080E02000000010
A0A0FF0000FFFFFFFFFFFFFFFFFF
0030FF0000FF40303030303040FF
0030FF0000FF30000000000030FF
0030FF0000FF40303030303040FF
0030FF0000FFFFFFFFFFFFFFFFFF
0030FF0000FF30000000000030FF
0030FF0000FF30000000000030FF
0030FF0000FF30000000000030FF
0030FF0000FFFFFFFFFFFFFFFFA0
0000100000303030303030302000
ENDCHAR
STARTCHAR  4F73
ENCODING  20339
SWIDTH  1000 0
DWIDTH  16 0
BBX  15 14 1 -3
BITMAP
000000000000000010400000000000
000000801000000030FF0000000000
0000A0E01030303040FF3030302000
0080FF4000FFFFFFFFFFFFFFFFE000
A0E0FF000000000030FF0000000000
1030FF00FFFFFFFFFFFFFFFFFFFF00
0030FF002030303030303030303000
0030FF000000000020FF0000000000
0030FF000030303040FF3030302000
0030FF0000FFFFFFFFFFFFFFFFE000
0030FF000000000030FF0000000000
0030FF000000000030FF0000000000
0030FF30FFFFFFFFFFFFFFFFFFFF30
000030003030303030303030303010
ENDCHAR
STARTCHAR  4F74
ENCODING  20340
SWIDTH  1000 0
DWIDTH  16 0
BBX  15 13 1 -3
BITMAP
000010A03030303030303030303000
0000C0E080FFFFFFFFFFFFFFFFFF00
00A0FF200030FF0000000000FF3000
A0F0FF000030FF3030303030FF3000
3040FF000030FFFFFFFFFFFFFF3000
0030FF000030FF0000000000FF3000
0030FF000030FF3030303030FF3000
0030FF000030FFFFFFFFFFFFFF3000
0030FF000030FF0000000000FF3000
0030FF000030FF0000000020FF8020
0030FF001060FF80A0E0F0FFFFF040
0030FF00E0FFF0E0A0806030FF3000
001080002010000000000000C02000
ENDCHAR
STARTCHAR  4F76
ENCODING  20342
SWIDTH  1000 0
DWIDTH  16 0
BBX  14 13 1 -3
BITMAP
000010A01000000010A000000000
0000C0E03030303040FF30303030
00A0FF30E0FFFFFFFFFFFFFFFFFF
A0FFFF000000000030FF00000000
6060FF000030303040FF30303030
0030FF0030FFFFFFFFFFFFFFFFFF
0030FF0000000000000000006010
0030FF0030FFFFFFFFFFFFFFFF30
0030FF0030FF303030303030FF30
0030FF0030FF000000000000FF30
0030FF0030FF000000000000FF20
0030FF0030FFFFFFFFFFFFFFE000
0000300000202020202020100000
ENDCHAR
STARTCHAR  4F7B
ENCODING  20347
SWIDTH  1000 0
DWIDTH  16 0
BBX  15 14 1 -3
BITMAP
000010400000001000001000000000
000080E0100030FF0030FF00000000
0040FF60801030FF0030FF00603000
40F0FF10F0A030FF0030FF30F04000
A0C0FF0040FF60FF0030FF80A00000
1030FF00003030FF0030FF00100000
0030FF00000030FF0030FF00000000
0030FF000030E0FF0030FFC0200000
0030FF10A0FFF0E00030FFE0F04000
0030FF10E060C0A00030FF00806000
0030FF000060FF200030FF00004010
0030FF0040F080000030FF0000FF20
0030FF00A0A000000030FFFFFFE000
000010001000000000003030201000
ENDCHAR
STARTCHAR  4F7C
ENCODING  20348
SWIDTH  1000 0
DWIDTH  16 0
BBX  15 14 1 -3
BITMAP
000000300000000000000000000000
000060F020000060A0000000000000
0040FF6030303060F0A03030303000
20F0FF00FFFFFFFFFFFFFFFFFFFF10
C0F0FF000010C02000003080000000
3030FF0010C0E010000040F0A00000
0020FF10C0E0400000004060F0A000
0020FF10A040FF800030F080204000
0020FF00000040E0E0F0A000000000
0020FF0000000080FFFF4000000000
0020FF000020C0F06080FF60000000
0020FF2080F0C020000060F0A01000
0020FF20C040000000000030C02000
000010000000000000000000000000
ENDCHAR
STARTCHAR  4F7E
ENCODING  20350
SWIDTH  1000 0
DWIDTH  16 0
BBX  15 14 1 -3
BITMAP
000000000000000000000000000000
000030E02060C0A0FFFFFFC0000000
0010E0C000E0A020303040FF400000
00C0FF1030FF3000000000C0C00000
A0FFFF00C0E0303030303060FF4000
6060FF40FFFFFFFFFFFFFFFFE0E000
0030FF6080FF2000000010FF408000
0030FF0000FFFFFFFFFFFFFF200000
0030FF0000FF4020202030FF300000
0030FF0000FF4030303030FF300000
0030FF0000FFFFFFFFFFFFFF300000
0030FF0000FF3000000000FF300000
0030FF0000FF300000FFFFE0100000
000030000020000000101000000000
ENDCHAR
STARTCHAR  4F7F
ENCODING  20351
SWIDTH  1000 0
DWIDTH  16 0
BBX  15 14 1 -3
BITMAP
000000000000000000000000000000
000030E02000000030FF0000000000
0020E0A0F0FFFFFFFFFFFFFFFFFF00
20E0FF102020202040FF2020306000
C0E0FF0030FFFFFFFFFFFFFFFFFF00
1030FF0030FF303040FF303040FF00
0030FF0030FF000030FF000030FF00
0030FF0030FFFFFFFFFFFFFFFFA000
0030FF0020403030C0C03030200000
0030FF00A0FFE0A0FF400000000000
0030FF000040F0FFFFE08020000000
0030FF1060E0E0403080E0FFC06010
0030FF10F08010000000003080E020
000030000000000000000000000000
ENDCHAR
STARTCHAR  4F83
ENCODING  20355
SWIDTH  1000 0
DWIDTH  16 0
BBX  15 13 1 -3
BITMAP
000020C02030303030303030601000
0010E0C000FFFFFFFFFFFFFFFF3000
10C0FF1000FF300000000000FF3000
A0E0FF0000FF300000000000FF2000
1030FF0000FFFFFFFFFFFFFFE01000
0030FF000030403030303030100000
0030FF000030FF0020E000FF300000
0030FF000030FF0030FF00FF300000
0030FF000040FF0030FF00FF300000
0030FF0000A0C00030FF00FF306010
0030FF0080FF300030FF00FF30FF20
0030FF10F060000020F000FFFFE000
000000001000000000000030200000
ENDCHAR
STARTCHAR  4F84
ENCODING  20356
SWIDTH  1000 0
DWIDTH  16 0
BBX  14 14 1 -3
BITMAP
0000003000000000000000000000
000060FF30FFFFFFFFFFFFFFFFE0
0040F080003040F0E03030303020
40F0FF000000C0E0100000A0A000
C0E0FF000080F030203040A0FF20
1030FF0000FFFFFFFFFFFFFFFFA0
0030FF0000808060608020004040
0030FF000000000030FF00000000
0030FF0000FFFFFFFFFFFFFFFF30
0030FF000030303040FF30303000
0030FF000000000030FF00000000
0030FF000000000030FF00000000
0030FF00C0FFFFFFFFFFFFFFFFFF
0010600030404040404040404040
ENDCHAR
STARTCHAR  4F88
ENCODING  20360
SWIDTH  1000 0
DWIDTH  16 0
BBX  14 14 1 -3
BITMAP
0000001000000000000000000000
000030F03000A0A0000000000000
0010E0A00080FFFFFFFFFFFFE020
10E0FF20A0FF604030303040FF30
A0F0FF10604040F0401080F0E010
3040FF10000010E0F0F0F0801000
0010FF10A0E0FFFFF08020000000
0010FF10A0A080E0F03030303080
0010FF100060F0FFFFFFFFFFFFFF
0010FF1060F080400000000080FF
0010FF10101060FF600040E0F040
0010FF10000000A0FFE0FFA01000
0010FF1080C0E0FFE08020000000
0010C010A0806020000000000000
ENDCHAR
STARTCHAR  4F89
ENCODING  20361
SWIDTH  1000 0
DWIDTH  16 0
BBX  15 14 1 -3
BITMAP
000000000000000000000000000000
000030E020000010E0600000000000
0010E0A060FFFFFFFFFFFFFFFFFF00
10E0FF101030E0F0403040F0803000
C0F0FF0020E0FF6020202080FF4000
3030FF20F0A0FFFFFFFFFFFF80E010
0030FF004000101010101010002000
0030FF00FFFFFFFFFFFFFFFFFFFF30
0030FF002060FFA020202020202000
0030FF0000A0FF4030303030600000
0030FF0000C0FFFFFFFFFFFFFF0000
0030FF000000000000000030FF0000
0030FF00000060FFFFFFFFFFC00000
000030000000103030303020000000
ENDCHAR
STARTCHAR  4F8B
ENCODING  20363
SWIDTH  1000 0
DWIDTH  16 0
BBX  15 13 1 -3
BITMAP
00006060A0E0E0E0E0E0000020FF10
0010E08040C0F0606060000020FF10
00A0FF1000C0C000000030FF20FF10
A0FFFF0010F0A030308030FF20FF10
6060FF0060FFFFFFFFFF30FF20FF10
0030FF00E0A0000030FF30FF20FF10
0030FF60F020300040F030FF20FF10
0030FF104040FF80A0A030FF20FF10
0030FF00000060FFF02030FF20FF10
0030FF00000060F0400020F020FF10
0030FF0030C0E0400000000020FF10
0030FF30FFA01000000040FFFFC000
000030003000000000000010100000
ENDCHAR
STARTCHAR  4F8D
ENCODING  20365
SWIDTH  1000 0
DWIDTH  16 0
BBX  15 14 1 -3
BITMAP
000000100000000000000000000000
000040F02000000020FF0000000000
0030F08000FFFFFFFFFFFFFFFF3000
20E0FF000030303040FF3030300000
C0E0FF002020202040FF2020202010
2030FF10FFFFFFFFFFFFFFFFFFFF60
0030FF0010101010101010C0201000
0030FF0020303030303030FF403000
0030FF00F0FFFFFFFFFFFFFFFFFF20
0030FF0000308010000000FF300000
0030FF000040E0F0801000FF300000
0030FF0000000040C02000FF200000
0030FF000000000000F0FFF0100000
000030000000000000404020000000
ENDCHAR
STARTCHAR  4F8F
ENCODING  20367
SWIDTH  1000 0
DWIDTH  16 0
BBX  15 14 1 -3
BITMAP
000000000000000000000000000000
000030E02030E02030FF0000000000
0010E0A000C0E01030FF1010101000
20E0FF1060FFFFFFFFFFFFFFFF8000
C0E0FF30F080202040FF2020201000
3040FF008000000030FF0000000000
0030FF002030303040FF3030303000
0030FF00C0FFFFFFFFFFFFFFFFFF00
0030FF000000E0A030FF0060100000
0030FF000060FF2030FF00C0A00000
0030FF0010E0A00030FF0040FF2000
0030FF00A0E0100030FF0000C0A000
0030FF40F030000030FF000040F010
001040002000000010300000001000
ENDCHAR
STARTCHAR  4F91
ENCODING  20369
SWIDTH  1000 0
DWIDTH  16 0
BBX  14 14 1 -3
BITMAP
0000000000000000000000000000
000060E00000F020000000000000
0010E080FFFFFFFFFFFFFFFFFFFF
10C0FF002060FF30303030303030
C0FFFF0000A0E02020202020A010
4040FF0030FFFFFFFFFFFFFFFF30
0030FF10E0F0FF1000000000FF30
0030FFA0F040FFFFFFFFFFFFFF30
0030FF603020FF3030303030FF30
0030FF000020FF3030303030FF30
0030FF000020FFFFFFFFFFFFFF30
0030FF000020FF1000000000FF20
0030FF000020FF10000080FFE010
0000300000002000000020401000
ENDCHAR
STARTCHAR  4F94
ENCODING  20372
SWIDTH  1000 0
DWIDTH  16 0
BBX  15 14 1 -3
BITMAP
000000000000000000000000000000
000020E0200020E040000000000000
0010E0C00010E0E010000040600000
10E0FF1010C0E02010203080F02000
C0E0FF0060FFFFFFFFFFF0E0F0A000
2030FF002060602010200000303000
0030FF0000A0E00030FF0000000000
0030FF0040FFFFFFFFFFFFFFFF3000
0030FF00E0A0303040FF3030300000
0030FF002000000030FF0000000000
0030FF10FFFFFFFFFFFFFFFFFFFF20
0030FF003030303040FF3030303000
0030FF000000000030FF0000000000
001040000000000010400000000000
ENDCHAR
STARTCHAR  4F97
ENCODING  20375
SWIDTH  1000 0
DWIDTH  16 0
BBX  15 14 1 -3
BITMAP
000000000000000000000000000000
000020E0203030303030303040A000
0010E0C030FFFFFFFFFFFFFFFFFF00
10E0FF1030FF10101010101020FF00
C0E0FF0030FFFFFFFFFFFFFF60FF00
2030FF0030FF20202020202030FF00
0030FF0030FF30FFFFFFFFF030FF00
0030FF0030FF30FF303040FF30FF00
0030FF0030FF30FF000020FF30FF00
0030FF0030FF30FF202040FF30FF00
0030FF0030FF30FFFFFFFFA020FF00
0030FF0030FF00101010201030FF00
0030FF0030FF000000C0FFFFFFC000
001040001030000000203030300000
ENDCHAR
STARTCHAR  4F9B
ENCODING  20379
SWIDTH  1000 0
DWIDTH  16 0
BBX  15 14 1 -3
BITMAP
000000000000000000000000000000
000030E02000E020000020E0000000
0010E0A01010FF30101030FF101000
20E0FF10A0FFFFFFFFFFFFFFFFFF00
C0E0FF001020FF40202040FF202000
2030FF000000FF30000030FF000000
0030FF000000FF30000030FF000000
0030FF001010FF30101030FF101000
0030FF00FFFFFFFFFFFFFFFFFFFF40
0030FF002020802020202080402000
0030FF0000A0E010000000A0C00000
0030FF0060FF400000000020F06000
0030FF10F06000000000000080E000
001040001000000000000000002000
ENDCHAR
STARTCHAR  4F9D
ENCODING  20381
SWIDTH  1000 0
DWIDTH  16 0
BBX  15 13 1 -3
BITMAP
000020800000000060400000000000
0000C0C030303030A0E03030303010
00C0FF10FFFFFFFFFFFFFFFFFFFF60
C0F0FF00000020F040000000000000
4040FF000000E0C040E00000808000
0030FF0000A0FF2010FF60E0F06000
0030FF00A0FFFF0000A0FFC0200000
0030FF60FFA0FF000020FF40000000
0030FF003030FF000000A0E0000000
0030FF000030FF00606010E0A00000
0030FF000030FFE0F0800040FF6000
0030FF0010E0F0801000000060F010
001060000030100000000000002000
ENDCHAR
STARTCHAR  4FA0
ENCODING  20384
SWIDTH  1000 0
DWIDTH  16 0
BBX  15 14 1 -3
BITMAP
000000200000000000300000000000
000040FF2000000030FF0000000000
0030F08000FFFFFFFFFFFFFFFFA000
30F0FF000030303040FF3030301000
C0E0FF0000C0800030FF0000E06000
2030FF000060FF3030FF0060F01000
0030FF000000E0A060E000E0800000
0030FF0030304030C0A03040303010
0030FF10FFFFFFFFFFFFFFFFFFFF40
0030FF00000020E0A000A0A0000000
0030FF000020E0E0100030F0A00000
0030FF0030E0E01000000030F08000
0030FF00E0A010000000000040E010
001060001000000000000000001000
ENDCHAR
STARTCHAR  4FA3
ENCODING  20387
SWIDTH  1000 0
DWIDTH  16 0
BBX  15 14 0 -3
BITMAP
000000000000000000000000000000
00000040E010202020202020206010
000040F08030FFFFFFFFFFFFFFFF30
0060F0FF0030FF000000000000FF30
00C0A0FF0030FF000000000000FF20
000030FF0030FFFFFFFFFFFFFFE010
000030FF0000303030303030200000
000030FF0030303030303030303060
000030FF00FFFFFFFFFFFFFFFFFFFF
000030FF00FF3000000000000030FF
000030FF00FF3000000000000030FF
000030FF00FF4010101010101040FF
000030FF00FFFFFFFFFFFFFFFFFFC0
000010400030303030303030302000
ENDCHAR
STARTCHAR  4FA5
ENCODING  20389
SWIDTH  1000 0
DWIDTH  16 0
BBX  15 13 0 -3
BITMAP
000000601030600000000000000000
000060FF3060F030406080A0C0C000
0060FF6080F0FFFFFFE0C0A0A0C000
60FFFF30306080FF40001060E0FF30
4060FF30000000A0F0A0F0F0A02000
0000FF302060A0F0FFFFF060108000
0000FF30C0F0C0602030A0F0FFE000
0000FF304030303030303030606000
0000FF30FFFFFFFFFFFFFFFFFFFF20
0000FF300010E0A0000030FF000000
0000FF3020C0E010000030FF0030F0
0000FF40FFA01000000030FFFFFFC0
000030002000000000001030303000
ENDCHAR
STARTCHAR  4FA6
ENCODING  20390
SWIDTH  1000 0
DWIDTH  16 0
BBX  14 14 1 -3
BITMAP
0000001000000000000000000000
000020F030000000C02010101000
0010E0C000000000FFFFFFFFFF80
10E0FF2000000000FF4020202010
E0FFFF2000303030FF403040FF00
6040FF2020FFFFFFFFFFFFFFFF00
0010FF2020FF000060200030FF00
0010FF2020FF0000E0400030FF00
0010FF2020FF0000F0400030FF00
0010FF2020FF0080E0402030FF00
0010FF20106080FF40A0F0606000
0010FF2030C0F040000060F0A010
0010FF20F0C0200000000020E060
0000200020000000000000000000
ENDCHAR
STARTCHAR  4FA7
ENCODING  20391
SWIDTH  1000 0
DWIDTH  16 0
BBX  15 14 0 -3
BITMAP
000000000000000000000000000000
000030F03030303030C0200000E020
0010E0A030FFFFFFFFFF304010FF30
10C0FF3030FF106000FF30FF30FF30
60E0FF3030FF20FF10FF30FF30FF30
0010FF3030FF20FF10FF30FF30FF30
0000FF3030FF20FF10FF30FF30FF30
0000FF3030FF30FF00FF30FF30FF30
0000FF3030FF60E000FF30FF30FF30
0000FF3030FFC0A060FF30FF30FF30
0000FF300040F060F03000FF30FF30
0000FF3020F08000A0E0000000FF20
0000FF3080A0000010E060FFFFE000
000030001000000000000020200000
ENDCHAR
STARTCHAR  4FA8
ENCODING  20392
SWIDTH  1000 0
DWIDTH  16 0
BBX  15 14 1 -3
BITMAP
000000000000000000000000000000
000030E02030303030303060800000
0010E0A040FFFFFFFFFFF0E0800000
30E0FF1000000010FF200000000000
A0A0FF00FFFFFFFFFFFFFFFFFFFF20
0030FF003030C0F040C0FFA0303000
0030FF0010C0F0400030C0FFC02000
0030FF30F0E0300000000060E0F030
0030FF006000FF30000030FF108000
0030FF000000FF20000030FF000000
0030FF000060F000000030FF000000
0030FF0040F08000000030FF000000
0030FF00A0A00000000030FF000000
000020000000000000000030000000
ENDCHAR
STARTCHAR  4FA9
ENCODING  20393
SWIDTH  1000 0
DWIDTH  16 0
BBX  15 14 0 -3
BITMAP
000000100000000000000000000000
000020F04060E0C0FFFFFFFFFF6000
0010E0C010F080203030303080E000
10C0FF30A0E010000000000010F040
80E0FF30C040101010101010108040
1010FF300060FFFFFFFFFFFFFF3000
0000FF300000202020202020200000
0000FF303030303030303030303010
0000FF30FFFFFFFFFFFFFFFFFFFF30
0000FF30000080F030000010200000
0000FF300030FF6000000080E00000
0000FF3010E0E030406080A0FF6000
0000FF3060FFFFFFF0E0C0A0A0E000
000080102040301000000000004000
ENDCHAR
STARTCHAR  4FAA
ENCODING  20394
SWIDTH  1000 0
DWIDTH  16 0
BBX  15 14 1 -3
BITMAP
000000200000000030000000000000
000040FF20000020FF600000000000
0030F080C0FFFFFFFFFFFFFFFFFF00
40F0FF0020604030303040E0C03000
C0C0FF0000E0F0A03060F0C0100000
1030FF00000060F0FFFFC000000000
0030FF0060A0E0FFA0A0FFE0601000
0030FF10F0C0802000001080F0E000
0030FF000000FF30000010FF203000
0030FF000010FF20000010FF100000
0030FF000080E000000010FF100000
0030FF0060FF4000000010FF100000
0030FF10F0600000000010FF100000
000030001000000000000040000000
ENDCHAR
STARTCHAR  4FAC
ENCODING  20396
SWIDTH  1000 0
DWIDTH  16 0
BBX  15 14 1 -3
BITMAP
000000000000000000000000000000
000060C00000000020C00000000000
0000E0A080808080A0FF808080E020
00A0FF30FFC0C0C0FFE0C0C0C0FF20
80FFFF30FF0000A0F010000010FF20
8080FF00000080FF40A04000001000
0030FF000080FF6000A0C030E0A000
0030FF20C0FFFF000020F0FFA01000
0030FF40E060FF00000080E0000000
0030FF000030FF00000010F0400000
0030FF000030FF0060800080E00000
0030FF000030FFE0FFA00010F06000
0030FF0000C0FFA02000000080C000
001080000040200000000000001000
ENDCHAR
STARTCHAR  4FAE
ENCODING  20398
SWIDTH  1000 0
DWIDTH  16 0
BBX  15 14 0 -3
BITMAP
000000200000100000000000000000
000030FF2030FF2000000000000000
0000E0A000C0FFFFFFFFFFFFFFFF60
00A0FF3080E0303030303030306010
60F0FF60F060FFFFFFFFFFFFFFFF00
0030FF301060FF3060A0303040FF00
0000FF300080F00040E0E03030FF00
0000FF30FFFFFFFFFFFFFFFFFFFFA0
0000FF3030C0C0304060303040FF10
0000FF3000C0A000A0FF600030FF00
0000FF3000E0A03040F0FF6040FF00
0000FF3000E0FFFFFFFFFFFFFFFF00
0000FF300000000000000060FFC000
000060100000000000000010401000
ENDCHAR
STARTCHAR  4FAF
ENCODING  20399
SWIDTH  1000 0
DWIDTH  16 0
BBX  15 14 1 -3
BITMAP
000000300000000000000000000000
000060FF20E0FFFFFFFFFFFFFF1000
0040FF600020303030303060F00000
20F0FF003030303030303080E03000
C0F0FF00FFFFFFFFFFFFFFFFFFFF20
2030FF0000C0800000000000000000
0030FF0060FFFFFFFFFFFFFFFFA000
0030FF20F060303040FF3030301000
0030FF004030303060FF3030303000
0030FF00FFFFFFFFFFFFFFFFFFFF20
0030FF00000060F0C020F0A0100000
0030FF0040C0F080000030E0E04000
0030FF10F0A020000000000060E000
000030001000000000000000000000
ENDCHAR
STARTCHAR  4FB5
ENCODING  20405
SWIDTH  1000 0
DWIDTH  16 0
BBX  15 13 1 -2
BITMAP
000000200000000000000000300000
000040FF60FFFFFFFFFFFFFFFF3000
0020F0A01030303030303030FF3000
20E0FF000040FFFFFFFFFFFFFF3000
C0F0FF001030404040404040FF2000
3030FF0040FFFFFFFFFFFFFFC00000
0030FF003030303030303030306010
0030FF00FFFFFFFFFFFFFFFFFFFF30
0030FF00FF40FFFFFFFFFFFFFFFF30
0030FF000060A060303080F0E00000
0030FF000040E0FFE0E0FFA0100000
0030FF2080A0E0FFE0C0F0FFC08000
0020FF30E0A0603000000040A0C000
ENDCHAR
STARTCHAR  4FBF
ENCODING  20415
SWIDTH  1000 0
DWIDTH  16 0
BBX  15 14 1 -3
BITMAP
000010100000000000000000000000
000080E0C0FFFFFFFFFFFFFFFFFF00
0040FF4020303030FF403030303000
20F0FF0000303030FF403030A02000
C0F0FF0030FFFFFFFFFFFFFFFF3000
3040FF0030FF3030FF403030FF3000
0030FF0030FFFFFFFFFFFFFFFF3000
0030FF0030FF3040FF303030FF2000
0030FF0030FFFFFFFFFFFFFFC00000
0030FF00306040F030000000000000
0030FF0060F0FFF080400000000000
0030FF0060F0C080C0FFF0C0803000
0030FF60F0800000001060A0E0FF10
001060001000000000000000002000
ENDCHAR
STARTCHAR  4FC3
ENCODING  20419
SWIDTH  1000 0
DWIDTH  16 0
BBX  15 13 0 -3
BITMAP
000020E02030303030303030304000
0010E0C000FFFFFFFFFFFFFFFFFF00
00A0FF3000FF30000000000030FF00
A0FFFF3000FF30000000000030FF00
4040FF3000FF40303030303040FF00
0000FF3000FFFFFFFFFFFFFFFF8000
0000FF300010600000FF3000000000
0000FF300060E00000FFFFFFFFFF10
0000FF3000C0800000FF4030303000
0000FF3030FF400000FF3000000000
0000FF30A0F0E03000FF3000000000
0000FF60F030A0FFFFFFFFFFFFFFC0
000080104000002040404040404030
ENDCHAR
STARTCHAR  4FC4
ENCODING  20420
SWIDTH  1000 0
DWIDTH  16 0
BBX  16 14 0 -3
BITMAP
00000000000000000000000000000000
000020E020001080C00020E010400000
0000C0C01060E0FF400030FF80F01000
00A0FF3060F0A0FF000030FF00E0A000
60F0FF20102040FF202040FF20406000
0020FF20A0FFFFFFFFFFFFFFFFFFFF00
0010FF20001030FF101030FF10201000
0010FF20000030FF60A010FF20C0A000
0010FF200030A0FFF0A000E0C0F02000
0010FF20C0FFE0FF000000A0FF400000
0010FF20403030FF000040F0FF302000
0010FF20000030FF0060FF80A0E0F010
0010FF2000C0FFC00060600000C08000
00004010002020000000000000001000
ENDCHAR
STARTCHAR  4FC5
ENCODING  20421
SWIDTH  1000 0
DWIDTH  16 0
BBX  15 13 0 -3
BITMAP
000000802000000020C00040300000
000080F02000000030FF0080F04000
0060FF603030303040FF3030A06010
80FFFF30FFFFFFFFFFFFFFFFFFFF60
3040FF301040000030FF0000001000
0000FF3080FF800030FF100040F030
0000FF300040E0C040FFC040F08000
0000FF3000001080F0FFE0FF600000
0000FF30000060F0A0FF30F0600000
0000FF3010A0FF8030FF0060FF4000
0000FF40E0E0400030FF000080F020
0000FF30601000E0FFC0000000A080
000060100000003030000000000000
ENDCHAR
STARTCHAR  4FCA
ENCODING  20426
SWIDTH  1000 0
DWIDTH  16 0
BBX  15 13 1 -3
BITMAP
000010A01000306000000000000000
0000A0E01030F0C0000000C0600000
0080FF3020E0E040606080E0F02000
A0FFFF00A0FFFFFFF0E0C0C0E0A000
6060FF003080600000000080400000
0030FF0020F0A060000000A0E02000
0030FF20E0C0C0F030303080C0E000
0030FF1080A0FFFFFFFFFFFF303000
0030FF00A0F08010000060FF200000
0030FF006040F0F0A0C0FF60000000
0030FF00001080F0FFFFF080300000
0030FF30E0FFF0A0301080E0FFC000
0020A0208040000000000000306000
ENDCHAR
STARTCHAR  4FCE
ENCODING  20430
SWIDTH  1000 0
DWIDTH  16 0
BBX  15 13 0 -3
BITMAP
000020FF000000003030303040E010
000030FF00000030FFFFFFFFFFFF10
000040F000000030FF00000020FF10
0000C0E080000030FF10101030FF10
0080F060F0800030FFFFFFFFFFFF10
10F0400040F01030FF10101030FF10
001020F000200030FF00000020FF10
000030FF00000030FF30303040FF10
000030FF00000030FFFFFFFFFFFF10
0000A0F060000030FF00000020FF10
0080FF80F0600030FF00000020FF10
20F0600040E0C0FFFFFFFFFFFFFFFF
001000000000203030303030303030
ENDCHAR
STARTCHAR  4FCF
ENCODING  20431
SWIDTH  1000 0
DWIDTH  16 0
BBX  15 13 0 -3
BITMAP
000010C03040100000E02000006000
0000A0E010E0C00000FF300060F020
00A0FF400020F06000FF3020F06000
80F0FF300030603030FF4030606010
2030FF3000FFFFFFFFFFFFFFFFFF30
0000FF3000FF30000000000000FF30
0000FF3000FFFFFFFFFFFFFFFFFF30
0000FF3000FF40303030303030FF30
0000FF3000FF40303030303030FF30
0000FF3000FFFFFFFFFFFFFFFFFF30
0000FF3000FF30000000000000FF20
0000FF3000FF3000000000E0FFE010
000030000020000000000030301000
ENDCHAR
STARTCHAR  4FD0
ENCODING  20432
SWIDTH  1000 0
DWIDTH  16 0
BBX  15 13 1 -3
BITMAP
00006080203030308030000000E020
0010E080E0FFFFFFE040104010FF20
00C0FF000000FF30000030FF10FF20
A0FFFF003030FF40302030FF10FF20
4060FF00FFFFFFFFFFE030FF10FF20
0030FF0060C0FF40400030FF10FF20
0030FF0080A0FF80FF2030FF10FF20
0030FF00A080FF60FF6030FF10FF20
0030FF00E040FF30FF8030FF10FF20
0030FF10FF20FF30E0A030FF10FF20
0030FF40F000FF30A0E0103010FF20
0030FF80C000FF3080E020FFFFE000
000030001000100000000020200000
ENDCHAR
STARTCHAR  4FD1
ENCODING  20433
SWIDTH  1000 0
DWIDTH  16 0
BBX  15 14 1 -3
BITMAP
000000600000000000000000000000
000060FF60FFFFFFFFFFFFFFFFFF00
0040F06000303040303060F0FFA000
40F0FF00000010F060A0FFE0300000
C0C0FF0000000080FFF06000004010
1030FF0030FFFFFFFFFFFFFFFFFF30
0030FF0030FF303040FF303030FF30
0030FF0030FF303040FF303030FF30
0030FF0030FFFFFFFFFFFFFFFFFF30
0030FF0030FF202040FF202020FF30
0030FF0030FFFFFFFFFFFFFFFFFF30
0030FF0030FF101030FF101010FF20
0030FF0030FF000020F00080FFE010
000020000020000000000020401000
ENDCHAR
STARTCHAR  4FD7
ENCODING  20439
SWIDTH  1000 0
DWIDTH  16 0
BBX  16 13 0 -3
BITMAP
00000010A02000108010001080100000
000000C0E00000C0E0100020E0C00000
0000A0FF2000A0F02000000020F0A000
00A0FFFF00C0F080202030303040F080
008060FF006040FF60F0FFFFFFC04010
000030FF0010E0C00000000010E0A000
000030FF10E0E010000000000040F080
000030FF10A040E0E0E0E0E0E0FF4040
000030FF000030FF6060606080FF0000
000030FF000030FF0000000030FF0000
000030FF000030FF0000000030FF0000
000030FF000030FFFFFFFFFFFFA00000
00000030000000101010101010000000
ENDCHAR
STARTCHAR  4FD8
ENCODING  20440
SWIDTH  1000 0
DWIDTH  16 0
BBX  15 13 1 -3
BITMAP
000010C02030303030303040808000
0000A0E000FFFFFFFFFFFFF0C06000
0080FF300020400040200000802000
80FFFF000060FF40A0E01060FF4000
6080FF000020804030A060FF802000
0030FF0010FFFFFFFFFFFFFFFFC000
0030FF00000000000040E0F0801000
0030FF000000000020FFA020000000
0030FF00FFFFFFFFFFFFFFFFFFFF30
0030FF003030303040FF3030303010
0030FF000000001030FF0000000000
0030FF00000020FFFFC00000000000
001060000000004040100000000000
ENDCHAR
STARTCHAR  4FDA
ENCODING  20442
SWIDTH  1000 0
DWIDTH  16 0
BBX  15 14 1 -3
BITMAP
000000000000000000000000000000
000020E02030303030303030601000
0010E0C030FFFFFFFFFFFFFFFF3000
20E0FF1030FF000030FF0000FF3000
A0C0FF0030FFFFFFFFFFFFFFFF3000
0030FF0030FF303040FF3030FF3000
0030FF0030FF303040FF3030FF2000
0030FF0030FFFFFFFFFFFFFFC00000
0030FF000000000030FF0000000000
0030FF0000FFFFFFFFFFFFFFFF6000
0030FF000030303040FF3030301000
0030FF000000000030FF0000000000
0030FF00FFFFFFFFFFFFFFFFFFFF40
000030002020202020202020202000
ENDCHAR
STARTCHAR  4FDC
ENCODING  20444
SWIDTH  1000 0
DWIDTH  16 0
BBX  14 13 1 -3
BITMAP
000010A02030303040E030306010
0000C0E030FFFFFFFFFFFFFFFF30
00A0FF2030FF303040FF3030FF30
A0FFFF0030FFFFFFFFFFFFFFFF30
4040FF0030FF303040FF3030FF20
0030FF0030FFFFFFFFFFFFFFC000
0030FF1030303030303030303030
0030FF80FFFFFFFFFFFFFFFFFFFF
0030FF0000A0A03030303040C000
0030FF0010F0FFFFFFFFFFFFFF00
0030FF000000000000000020FF00
0030FF0000000060FFFFFFFFC000
0000300000000010303030300000
ENDCHAR
STARTCHAR  4FDD
ENCODING  20445
SWIDTH  1000 0
DWIDTH  16 0
BBX  15 14 1 -3
BITMAP
000000400000000000000000401000
000060FF40FFFFFFFFFFFFFFFF3000
0040FF6020FF303030303030FF3000
60F0FF0020FF100000000000FF3000
A0C0FF0020FF100000000000FF2000
0030FF0020FFFFFFFFFFFFFFE00000
0030FF000030303040FF3020100000
0030FF003030303040FF3030303010
0030FF00FFFFFFFFFFFFFFFFFFFF80
0030FF000010F0A030FF00C0200000
0030FF000080F02030FF00A0E01000
0030FF0060FF600030FF0010E0A000
0030FF30FF80000030FF000040A010
000010004000000000000000000000
ENDCHAR
STARTCHAR  4FDE
ENCODING  20446
SWIDTH  1000 0
DWIDTH  16 0
BBX  16 14 0 -3
BITMAP
00000000000000000000000000000000
00006080FFFFFFFFFFFFFFFFFFA00000
0000E040203030303030303080FF3000
0080C030303030303030303000E0A000
10F030FFFFFFFFFFFFFFFFFF1040A000
00202020202020801000000010A00000
0000FFFFFFFFFFFF3030FF0030FF0000
0000FF40202020FF3030FF0030FF0000
0000FFFFFFFFFFFF3030FF0030FF0000
0000FF40202020FF3030FF0030FF0000
0000FFFFFFFFFFFF3030FF0030FF0000
0000FF40202020FF2000100030FF0000
0000FF3000A0FFE0000010FFFFC00000
00002000002020000000003020000000
ENDCHAR
STARTCHAR  4FDF
ENCODING  20447
SWIDTH  1000 0
DWIDTH  16 0
BBX  15 14 1 -3
BITMAP
000000200000001020000000000000
000040FF200020E0C0000000100000
0030F0800030F0C010000040F01000
30F0FF0020F0FFC0E0E0FFFFFF8000
C0C0FF0030C0A08080604030608000
1030FF0000A0A00000000000000000
0030FF0040FFFFFFFFFFFFFFFF6000
0030FF00E0A0303040FF3030301000
0030FF003010000040F00000000000
0030FF00FFFFFFFFFFFFFFFFFFFF10
0030FF003030A0FFA030E0C0403000
0030FF1060E0F060000040E0F06000
0030FF10E08010000000000080E000
000030000000000000000000000000
ENDCHAR
STARTCHAR  4FE1
ENCODING  20449
SWIDTH  1000 0
DWIDTH  16 0
BBX  14 14 1 -3
BITMAP
0000002000000000002000000000
000040FF2000000060F020000000
0030F080F0FFFFFFFFFFFFFFFFFF
30F0FF0020303030303030303030
C0C0FF0000FFFFFFFFFFFFFFFF80
1030FF0000303030303030303010
0030FF0000FFFFFFFFFFFFFFFF80
0030FF0000303030303030303010
0030FF00003030303030303040C0
0030FF0000FFFFFFFFFFFFFFFFFF
0030FF0000FF30000000000030FF
0030FF0000FF30000000000030FF
0030FF0000FFFFFFFFFFFFFFFFA0
0000300000202020202020202000
ENDCHAR
STARTCHAR  4FE3
ENCODING  20451
SWIDTH  1000 0
DWIDTH  16 0
BBX  15 14 1 -3
BITMAP
000000400000000000000000401000
000060FF20FFFFFFFFFFFFFFFF2000
0040FF6000FF403030303030FF2000
60F0FF1000FF300000000000FF2000
80A0FF1000FFFFFFFFFFFFFFE00000
0020FF100030303030303020000000
0020FF101030303030303030303000
0020FF1040FFFFFFFFFFFFFFFFFF00
0020FF100000000030FF0000000000
0020FF10E0FFFFFFFFFFFFFFFFFF00
0020FF10203060F0E040FFA0303000
0020FF1030A0FFC0100060E0E04000
0020FF10F0E060000000001080E000
000030001000000000000000001000
ENDCHAR
STARTCHAR  4FE6
ENCODING  20454
SWIDTH  1000 0
DWIDTH  16 0
BBX  15 13 1 -3
BITMAP
000030A010303040A0303030303000
0010E0A080FFFFFFFFFFFFFFFFFF20
10C0FF1000303040FF303030301000
C0FFFF0000FFFFFFFFFFFFFFFFA000
4040FF20303030A0E0303030303000
0030FFE0FFFFFFFFFFFFFFFFFFFF00
0030FF000020E0A0000000C0200000
0030FF0060F0FFFFFFFFFFFFFFFF00
0030FF60FFA0C060303030FF403000
0030FF003030E0FFC02000FF300000
0030FF0000000040A01000FF200000
0030FF000000000010FFFFE0000000
001060000000000000404010000000
ENDCHAR
STARTCHAR  4FE8
ENCODING  20456
SWIDTH  1000 0
DWIDTH  16 0
BBX  15 13 1 -3
BITMAP
000010A02030303030303030303000
0000C0E060FFFFFFFFFFFFFFFFFF00
10C0FF2000600030FF00FF30106000
A0E0FF0020E0A030FF00FF30C0E010
1030FF0000408030FF00FF40802000
0030FF0030FFFFFFFFFFFFFFFFFF00
0030FF0030FF303030303030303000
0030FF0030FF000000000000000000
0030FF0030F0000000000000000000
0030FF0080C0000000000000000000
0030FF10F060000000000000000000
0020FF40E000000000000000000000
000000000000000000000000000000
ENDCHAR
STARTCHAR  4FE9
ENCODING  20457
SWIDTH  1000 0
DWIDTH  16 0
BBX  15 14 1 -3
BITMAP
000000200000000000000000000000
000080F03030303030303030303000
0040FF60E0FFFFFFFFFFFFFFFFFF00
40F0FF00000000FF300030FF001000
A0A0FF0030FFFFFFFFFFFFFFFFFF30
0030FF0030FF30FF403040FF30FF30
0030FF0030FF10FF200030FF00FF30
0030FF0030FF40FF600060F010FF30
0030FF0030FF80F0F030E0FF80FF30
0030FF0030FFE060A0A0E060FFFF30
0030FF0030FFE00060FF400020FF30
0030FF0030FF60008080000000FF20
0030FF0030FF0000000000FFFFE000
000010001040000000000020200000
ENDCHAR
STARTCHAR  4FEA
ENCODING  20458
SWIDTH  1000 0
DWIDTH  16 0
BBX  15 14 0 -3
BITMAP
000000300000000000000000000000
000040FF2030303030303030303030
0020F08010FFFFFFFFFFFFFFFFFFFF
10E0FF3000303030C020303030C020
A0E0FF3030FFFFFFFF30FFFFFFFF30
1010FF3030FF0000FF30FF2000FF30
0000FF3030FFC040FF30FFE040FF30
0000FF3030FFC080FF30FFC080FF30
0000FF3030FF80C0FF30FFA0C0FF30
0000FF3030FF40F0FF30FF60F0FF30
0000FF3030FF1010FF30FF3010FF30
0000FF3030FF0000FF30FF2000FF20
0000FF3030FF20FFE010FF40FFE000
000010000010002000003010200000
ENDCHAR
STARTCHAR  4FED
ENCODING  20461
SWIDTH  1000 0
DWIDTH  16 0
BBX  15 14 1 -3
BITMAP
000000100000000000000000000000
000040F020C080FFFFFFFFFFFF2000
0020F0A060FF303030303030C08000
10E0FF20F08000000000000040F010
C0F0FF20A02030303030303030E040
3040FF0000E0FFFFFFFFFFFFFF1000
0030FF000000001060000000300000
0030FF0000A08030FF200040FF1000
0030FF000080E000E08000A0C00000
0030FF000010FF4080E010F0600000
0030FF000000A0A0208080E0000000
0030FF00101060801020F080101000
0030FF00FFFFFFFFFFFFFFFFFFFF40
001040003030303030303030303010
ENDCHAR
STARTCHAR  4FEE
ENCODING  20462
SWIDTH  1000 0
DWIDTH  16 0
BBX  15 14 1 -3
BITMAP
000000300000000000000000000000
000060F0100020E040303030601000
0020F0600000C0FFFFFFFFFFFF2000
20E0FF30FF80F0A0400030E0A00000
80E0FF30FF2030A0FFF0FFA0000000
1030FF30FF0040C0FFE0E0FFC06000
0030FF30FFA0FFA04040C080A0E010
0030FF30FF202060E0FFC080100000
0030FF30FF0060E08060C0FF400000
0030FF30FF002060E0FFA060E08000
0030FF30FF0060E08060C0FFA02000
0030FF30FF004080E0F0A020000000
0030FF104020FFC060100000000000
000020000000100000000000000000
ENDCHAR
STARTCHAR  4FEF
ENCODING  20463
SWIDTH  1000 0
DWIDTH  16 0
BBX  14 14 1 -3
BITMAP
0000000000000000001000000000
000080C00000000080C000000000
0040FF6030FFFFFFFFFFFFFFFFFF
30F0FF0030FF3060E0303030A040
A0A0FF0030FF10E080000000FF30
0030FF0030FFC0FFC0FFFFFFFFFF
0030FF0030FF80FF40303030FF40
0030FF0030FF10FF30A01000FF30
0030FF0030F010FF20E0A000FF30
0030FF0060E010FF2040FF30FF30
0030FF0080A010FF20004000FF30
0030FF00E06010FF20000000FF20
0020F010C02010FF200020FFE000
0000000000000000000000201000
ENDCHAR
STARTCHAR  4FF1
ENCODING  20465
SWIDTH  1000 0
DWIDTH  16 0
BBX  15 13 1 -3
BITMAP
000010A020FFFFFFFFFFFFF0A01000
0020E0A000FF403030303040FF1000
60F0FF0000FFFFFFFFFFFFFFFF1000
A0A0FF0000FF403030303040FF1000
0030FF0000FFFFFFFFFFFFFFFF1000
0030FF0000FF403030303040FF1000
0030FF0000FFFFFFFFFFFFFFFF1000
0030FF0000FF403030303040FF1000
0030FF0030FF403030303040FF4010
0030FF00FFFFFFFFFFFFFFFFFFFF80
0030FF0010E0C000000020F0A00000
0030FF00C0E0100000000040F0A000
0020C0004010000000000000403000
ENDCHAR
STARTCHAR  4FF3
ENCODING  20467
SWIDTH  1000 0
DWIDTH  16 0
BBX  15 14 1 -3
BITMAP
000000100000001000001000000000
000040F0200000FF3000FF30000000
0020E0A0303030FF3000FF40303010
20E0FF20FFFFFFFF3000FFFFFFFF40
A0E0FF00000000FF3000FF30000000
1030FF00000000FF3000FF30000000
0030FF00E0FFFFFF3000FFFFFFF000
0030FF00203030FF3000FF40302000
0030FF00000000FF3000FF30000000
0030FF00000000FF3000FF30000000
0030FF10FFFFFFFF3000FFFFFFFF40
0030FF00303030FF3000FF40303010
0030FF00000000FF3000FF30000000
000030000000006010006010000000
ENDCHAR
STARTCHAR  4FF8
ENCODING  20472
SWIDTH  1000 0
DWIDTH  16 0
BBX  15 13 1 -3
BITMAP
000020A03030303040C03030303000
0010E0A0FFFFFFFFFFFFFFFFFFFF00
00C0FF100030303040FF3030303000
A0FFFF0020FFFFFFFFFFFFFFFFFF00
4060FF2030303030E0A03030303000
0030FFA0FFFFFFFFFFFFFFFFFFFF00
0030FF001080E08010FF4080E04000
0030FF80FFC0FFFFFFFFFFFFFFE040
0030FF303000303030FF6030301000
0030FF001010101010FF4010101000
0030FF00E0FFFFFFFFFFFFFFFFE000
0030FF001020202020FF4020201000
000020000000000000200000000000
ENDCHAR
STARTCHAR  4FFA
ENCODING  20474
SWIDTH  1000 0
DWIDTH  16 0
BBX  15 13 1 -3
BITMAP
000010801000000000602000000000
0000A0E03030303080FF6030303000
00A0FF30F0FFFFFFFFFFFFFFFFFF00
A0F0FF000030E0F0603020C0E02000
3030FF20A0FFC04040FF3030E0F020
0030FF40C0FFFFFFFFFFFFFFFF4000
0030FF0000FF401040FF1040FF0000
0030FF0000FFFFFFFFFFFFFFFF0000
0030FF0000FF403040FF3040FF0000
0030FF0000FFFFFFFFFFFFFFC00000
0030FF000010101030FF101000FF20
0030FF000000000030FFFFFFFFE010
000030000000000000202020201000
ENDCHAR
STARTCHAR  4FFE
ENCODING  20478
SWIDTH  1000 0
DWIDTH  16 0
BBX  15 14 1 -3
BITMAP
000000400000002000000000000000
000080F0200040F010000000301000
0040FF6020FFFFFFFFFFFFFFFF3000
40F0FF0020FF3030FF403030FF3000
C0E0FF0020FF2020FF402020FF3000
2030FF0020FFFFFFFFFFFFFFFF3000
0030FF0020FF1010FF401010FF3000
0030FF0020FF3040FF803030FF2000
0030FF0020FFFFFFFFFFFFFFC00000
0030FF00000080FF6030FF00000000
0030FF0040E0FF804060FF40404020
0030FF00FFFFFFFFFFFFFFFFFFFF80
0030FF00000000000030FF00000000
001040000000000000104000000000
ENDCHAR
STARTCHAR  500C
ENCODING  20492
SWIDTH  1000 0
DWIDTH  16 0
BBX  15 14 1 -3
BITMAP
000010200000000000000000000000
000080E000000000E0600000002000
0040FF40E0E0E0E0F0F0E0E0E0FF10
20F0FF10FF6030303030303040FF10
A0F0FF101030303030303040C01000
2030FF1000FFFFFFFFFFFFFFFF0000
0020FF1000FF200000000030FF0000
0020FF1000FFFFFFFFFFFFFFC00000
0020FF1000FF403030303020401000
0020FF1000FFFFFFFFFFFFFFFF3000
0020FF1000FF403030303030FF3000
0020FF1000FF200000000000FF2000
0020FF1000FFFFFFFFFFFFFFE00000
000010000030303030303020000000
ENDCHAR
STARTCHAR  500D
ENCODING  20493
SWIDTH  1000 0
DWIDTH  16 0
BBX  15 14 1 -3
BITMAP
000000000000000000100000000000
000040E010000000A0C00000000000
0030F06040FFFFFFFFFFFFFFFFFF20
30E0FF001060C03030303060A03000
C0E0FF000030FF30000000C0A00000
2030FF000000C080000040FF300000
0030FF00FFFFFFFFFFFFFFFFFFFF60
0030FF002020202020202020403010
0030FF0000FFFFFFFFFFFFFFFF3000
0030FF0000FF403030303030FF3000
0030FF0000FF300000000000FF3000
0030FF0000FF300000000000FF2000
0030FF0000FFFFFFFFFFFFFFE00000
000010000030303030303020000000
ENDCHAR
STARTCHAR  500F
ENCODING  20495
SWIDTH  1000 0
DWIDTH  16 0
BBX  15 13 1 -3
BITMAP
000010C0200040A030303030304000
0010C0A00010E0FFFFFFFFFFFFFF00
20C0FF20E060E0A030000060F08000
C0E0FF30FF0020E0FFC0E0FF800000
3030FF30FF000060F0FFFFF0A02000
0030FF30FF40F0FFE06040A0F0FF40
0030FF30FF30803000C040A0306010
0030FF30FF10303030FF80F0FF8000
0030FF30FF40FFFFFFFFFFFFFFFF20
0030FF30FF000040F080A080100000
0030FF30FF30A0FF800040C0F08010
0030FF000060C0300000000040C010
000000000000000000000000000000
ENDCHAR
STARTCHAR  5012
ENCODING  20498
SWIDTH  1000 0
DWIDTH  16 0
BBX  15 13 0 -3
BITMAP
000010C02040404040403000001080
0000C0E040FFFFFFFFFFE020C030FF
00A0FF300010E08010300030FF30FF
80E0FF300080E00080FF2030FF30FF
1020FF3010FFE0E0FFFFA030FF30FF
0000FF30108060A030404030FF30FF
0000FF30000010FF20000030FF30FF
0000FF3000FFFFFFFFFFA030FF30FF
0000FF30003030FF40302030FF30FF
0000FF30000010FF20001030FF30FF
0000FF30003060FFE0F0FF200030FF
0000FF30A0FFE0C080603060FFFFC0
000040101000000000000010302000
ENDCHAR
STARTCHAR  5014
ENCODING  20500
SWIDTH  1000 0
DWIDTH  16 0
BBX  15 14 1 -3
BITMAP
000000100000000000000000000000
000040F040FFFFFFFFFFFFFFFFFF10
0020F0A030FF30303030303040FF10
20E0FF0030FF10101010101020FF10
C0E0FF0030FFFFFFFFFFFFFFFFC000
2030FF0030FF20202030A020200000
0030FF0030FF30FF0030FF0030FF00
0030FF0030FF30FF8080FF8080FF00
0030FF0040F020E0E0E0FFE0E0FF00
0030FF0060E000000030FF00103000
0030FF0080A0FF300030FF0000FF30
0030FF00E080FF806080FF6060FF30
0030FF10F030F0F0F0F0F0F0F0FF30
000030001000000000000000001000
ENDCHAR
STARTCHAR  5018
ENCODING  20504
SWIDTH  1000 0
DWIDTH  16 0
BBX  14 14 1 -3
BITMAP
0000000000000000000000000000
000020E02060100020C000004010
0010E0C020E0E01030FF0060F030
00C0FF100010E0A030FF00E06000
A0FFFF003030303040FF303040F0
4060FF00FFFFFFFFFFFFFFFFFFFF
0020FF00FF300030303060E030FF
0020FF00FF3030FFFFFFFFFF30FF
0020FF00FF3030FF000040FF30FF
0020FF00FF3030FF000040FF30FF
0020FF00FF3030FFFFFFFFC030FF
0020FF00FF3000303030200030FF
0020FF00FF300000000020FFFFA0
0000300010000000000000201000
ENDCHAR
STARTCHAR  5019
ENCODING  20505
SWIDTH  1000 0
DWIDTH  16 0
BBX  15 14 0 -3
BITMAP
000000200000000000000000000000
000040F0100040FFFFFFFFFFFFA000
0010E0800000103030303030FF6000
00A0FF306010303030303040FF8060
60FFFF30FF20FFFFFFFFFFFFFFFFC0
2040FF30FF2030C010000000000000
0000FF30FF20C0FFFFFFFFFFFFFF10
0000FF30FF60F0302040FF20202000
0000FF30FF2040303060F030303020
0000FF30FF20FFFFFFFFFFFFFFFFF0
0000FF30FF200000A0F030E0400000
0000FF30FF2040E0E0301080FFA010
0000FF300030FFA01000000030C0A0
000030000000200000000000000000
ENDCHAR
STARTCHAR  501A
ENCODING  20506
SWIDTH  1000 0
DWIDTH  16 0
BBX  15 14 1 -3
BITMAP
000000300000000000200000000000
000060FF20000000A0F01000000000
0040F080C0FFFFFFFFFFFFFFFFFF00
40F0FF002080F0E03040E0FFA03000
C0E0FF00C0FFA01000001080FFE020
2030FF006030000000000000306000
0030FF00FFFFFFFFFFFFFFFFFFFFA0
0030FF00303030303030E040FF4010
0030FF0030FFFFFFFFFFFF20FF3000
0030FF0030FF20202030FF20FF3000
0030FF0030FFFFFFFFFFE000FF3000
0030FF000030303030200000FF2000
0030FF0000000060FFFFFFFFE00000
000010000000001030303020000000
ENDCHAR
STARTCHAR  501C
ENCODING  20508
SWIDTH  1000 0
DWIDTH  16 0
BBX  15 14 1 -3
BITMAP
000000100000000000000000000000
000040F0303030303030303030FF30
0020E0A020FFFFFFFFFFFFFFFFFF30
10E0FF1020FF103030E0403010FF30
C0F0FF0020FF10FFFFFFFFFF80FF30
3040FF0020FF203030FF403030FF30
0030FF0020FF80FFFFFFFFFFFFFF30
0030FF0020FF1030303030C040FF30
0030FF0030FF30FFFFFFFFFF60FF30
0030FF0040E030FF000000F060FF30
0030FF0080C030FFFFFFFFF020FF30
0030FF00C08000303030301000FF20
0030FF00E0600000000000FFFFE000
000020000000000000000030200000
ENDCHAR
STARTCHAR  501F
ENCODING  20511
SWIDTH  1000 0
DWIDTH  16 0
BBX  15 14 1 -3
BITMAP
000000200000300000000030000000
000060F01000FF30000030FF000000
0020F08000FFFFFFFFFFFFFFFFA000
20E0FF000030FF40303040FF302000
C0E0FF000000FF30000030FF000000
2030FF20FFFFFFFFFFFFFFFFFFFF60
0030FF003030303030303030303010
0030FF000030303030303030F02000
0030FF0010FFFFFFFFFFFFFFFF3000
0030FF0010FF403030303030FF3000
0030FF0010FFFFFFFFFFFFFFFF3000
0030FF0010FF301010101010FF2000
0030FF0010FFFFFFFFFFFFFFE00000
001060000030303030303030100000
ENDCHAR
STARTCHAR  5021
ENCODING  20513
SWIDTH  1000 0
DWIDTH  16 0
BBX  15 13 0 -3
BITMAP
00000010A010303030303030306010
000000C0E020FFFFFFFFFFFFFFFF30
0000C0FF2020FF303030303030FF30
00C0F0FF0020FFFFFFFFFFFFFFFF20
001030FF0020FFFFFFFFFFFFFFE010
000030FF0000303030303030201000
000030FF00E0E0E0E0E0E0E0E0E0FF
000030FF00FFA0808080808080A0FF
000030FF00FF4030303030303040FF
000030FF00FFFFFFFFFFFFFFFFFFFF
000030FF00FF3010101010101030FF
000030FF00FFFFFFFFFFFFFFFFFFC0
000010600040404040404040403000
ENDCHAR
STARTCHAR  5025
ENCODING  20517
SWIDTH  1000 0
DWIDTH  16 0
BBX  15 14 1 -3
BITMAP
000000100000000000100000000000
000040F020000000A0A00000000000
0030F0A0E0E0E0E0E0FFE0E0E0FF30
30E0FF20FF8080808080808080FF30
C0E0FF20E010A080000010E040E020
1030FF0010A0F03000000080F03000
0030FF00C0E0300000000000A0E000
0030FF004020202020202020204000
0030FF000040FFFFFFFFFFFFFF0000
0030FF000000101030FF1010100000
0030FF000000000030FF0000000000
0030FF000000000030FF0000000000
0030FF00FFFFFFFFFFFFFFFFFFFF20
000030002020202020202020202000
ENDCHAR
STARTCHAR  5026
ENCODING  20518
SWIDTH  1000 0
DWIDTH  16 0
BBX  16 14 1 -3
BITMAP
00000010000000000000000000000000
000020E040A0400020FF0060C0100000
0020E0C010A0E01030FF10E080100000
30E0FF0040FFFFFFFFFFFFFFFFFF0000
A0C0FF0010202060F0A0202020200000
0030FF00FFFFFFFFFFFFFFFFFFFFA000
0030FF003060FFF0303040FF80302000
0030FF0010E0FF80303030E0FF400000
0030FF00C0FFFFFFFFFFFFFFFFF03000
0030FF40E0FF3000003030FF40E0C000
0030FF0020FF300030FFFFE010400000
0030FF0000FF30000000000030FF0000
0030FF0000FFFFFFFFFFFFFFFFC00000
00003000002020202020202020000000
ENDCHAR
STARTCHAR  5028
ENCODING  20520
SWIDTH  1000 0
DWIDTH  16 0
BBX  15 13 1 -3
BITMAP
000020C02030303030303030306010
0010E0C000FFFFFFFFFFFFFFFFFF30
20E0FF1000FF30000000000000FF20
C0E0FF0000FFFFFFFFFFFFFFFFE010
1030FF0000FF40303040FF30200000
0030FF0000FF40303040FF30303000
0030FF0000FFFFFFFFFFFFFFFFFF00
0030FF0010FF10101040FF10206000
0030FF0040F020FFFFFFFFFFFFFF00
0030FF0080C020FF2010101040FF00
0030FF00E08020FF1000000030FF00
0030FF20F02020FFFFFFFFFFFFC000
000020000000003030303030200000
ENDCHAR
STARTCHAR  5029
ENCODING  20521
SWIDTH  1000 0
DWIDTH  16 0
BBX  14 14 1 -3
BITMAP
0000000000000000003000000000
000040801030303040FF30303030
0020F08040FFFFFFFFFFFFFFFFFF
10E0FF000030303040FF30303000
A0F0FF0000FFFFFFFFFFFFFFFF20
1030FF00F0FFFFFFFFFFFFFFFFFF
0030FF0020404040404040408030
0030FF0030FFFFFFFFFFFFFFFF00
0030FF0030FF606060606080FF00
0030FF0030FFFFFFFFFFFFFFFF00
0030FF0030FFFFFFFFFFFFFFFF00
0030FF0030FF303030303040FF00
0030FF0030FF00000000FFFFC000
0000300000300000000030300000
ENDCHAR
STARTCHAR  502A
ENCODING  20522
SWIDTH  1000 0
DWIDTH  16 0
BBX  14 14 1 -3
BITMAP
0000001000000000000000000000
000040F020303060803040402000
0020F0A030FFFFC030C0F0F0FF30
10E0FF0030FF000000000000FF30
C0FFFF0030FF303010203030FF30
4040FF0030FFFFFFA0E0FFFFFF30
0030FF0030FF000000000000FF30
0030FF0030FF303030303030FF20
0030FF0030FFFFFFFFFFFFFFC000
0030FF00000030FF0000FF300000
0030FF000010C0A00000FF301060
0030FF0060E0E0100000FF3030FF
0030FF10F08010000000FFFFFFC0
0000300000000000000030302000
ENDCHAR
STARTCHAR  502C
ENCODING  20524
SWIDTH  1000 0
DWIDTH  16 0
BBX  15 14 1 -3
BITMAP
000000400000000000000000000000
000080F020000030F0303030301000
0040FF6000000030FFFFFFFFFF8000
40F0FF0000101030F0101010C02000
C0E0FF0030FFFFFFFFFFFFFFFF3000
1030FF0030FF202020202020FF3000
0030FF0030FFFFFFFFFFFFFFFF3000
0030FF0030FF303030303030FF2000
0030FF0030FFFFFFFFFFFFFFE00000
0030FF0000303030FF403020000000
0030FF0030303030FF403030303010
0030FF20FFFFFFFFFFFFFFFFFFFF30
0030FF0000000000FF300000000000
000010000000000010000000000000
ENDCHAR
STARTCHAR  502D
ENCODING  20525
SWIDTH  1000 0
DWIDTH  16 0
BBX  15 13 1 -3
BITMAP
000030A01030303030303040800000
0010E0A060FFFFFFFFFFFFE0C02000
10E0FF1030303030FF403030302000
C0E0FF00FFFFFFFFFFFFFFFFFFC000
2030FF0030F06000FF3000C0F03000
0030FF20F0801000FF300000A0E000
0030FF006030C0A080303030304000
0030FF30FFFFFFFFFFFFFFFFFFFF20
0030FF0000E0A000000020A0FF0000
0030FF0020C0FFE0A0E0FFC0400000
0030FF002060C0FFF0FFFFC0601000
0030FF20FFE0A040001060A0F0E000
001060002000000000000000002000
ENDCHAR
STARTCHAR  502E
ENCODING  20526
SWIDTH  1000 0
DWIDTH  16 0
BBX  15 13 1 -3
BITMAP
000020C02030303030303030601000
0010E0C030FFFFFFFFFFFFFFFF3000
10C0FF1030FF202040FF2020FF3000
C0E0FF0030FFFFFFFFFFFFFFFF3000
1030FF0030FF101030FF1010FF2000
0030FF0030FFFFFFFFFFFFFFE01000
0030FF000030303040FF3020100000
0030FF00FFFFFFFFFFFFFFFFFFFF10
0030FF003040FFA040FF30FF403000
0030FF0000A0F02030FF00C0C00000
0030FF0080FF600030FF0030FF6000
0030FF20FFA0000030FF0000A0F010
001080004000000010800000202000
ENDCHAR
STARTCHAR  503A
ENCODING  20538
SWIDTH  1000 0
DWIDTH  16 0
BBX  14 14 1 -3
BITMAP
0000000000000000103000000000
000010801030303040FF30303030
0000A0E040FFFFFFFFFFFFFFFFFF
0080FF300030303040FF30303000
A0FFFF0000FFFFFFFFFFFFFFFF30
1030FF00E0FFFFFFFFFFFFFFFFFF
0030FF0020303030303030306030
0030FF0000FFFFFFFFFFFFFFFF20
0030FF0000FF403040C03030FF20
0030FF0000FF300060E00000FF20
0030FF0000FF3060F0A0A030E020
0030FF001080E0F06030C0FFA020
0030FF00E0F0A02000000040C0E0
0010400030100000000000000010
ENDCHAR
STARTCHAR  503C
ENCODING  20540
SWIDTH  1000 0
DWIDTH  16 0
BBX  15 14 1 -3
BITMAP
000000200000000010300000000000
000040FF2000000030FF0000000000
0030F08060FFFFFFFFFFFFFFFFFF00
40F0FF001030303040FF3030603000
A0C0FF0000FFFFFFFFFFFFFFFF3000
0030FF0000FF403030303030FF3000
0030FF0000FFFFFFFFFFFFFFFF3000
0030FF0000FF403030303030FF3000
0030FF0000FFFFFFFFFFFFFFFF3000
0030FF0000FF403030303030FF3000
0030FF0000FFFFFFFFFFFFFFFF3000
0030FF0000FF403030303030FF3000
0030FF00FFFFFFFFFFFFFFFFFFFFE0
000030003030303030303030303020
ENDCHAR
STARTCHAR  503E
ENCODING  20542
SWIDTH  1000 0
DWIDTH  16 0
BBX  16 14 0 -3
BITMAP
00000000100000000010101010101010
00000080E030FF0000FFFFFFFFFFFFC0
000060FF4030FF0000303030F0603020
0080FFFF0030FFFFE0E0E0E0FFE0FF00
00A060FF0030FF3020FF60404060FF00
000030FF0030FF0000FF3020E030FF00
000030FF0030FF0000FF3030FF30FF00
000030FF0030FF0000FF3030FF30FF00
000030FF0030FF0000FF30A0C030FF00
000030FF0030FF0020FFA0FF8080FF00
000030FF0030FFC0E0C0FFA060FFA000
000030FF0080FFC080FFA00000A0E020
000030FF00A08000A08000000000C040
00000020000000000000000000000000
ENDCHAR
STARTCHAR  5043
ENCODING  20547
SWIDTH  1000 0
DWIDTH  16 0
BBX  15 14 0 -3
BITMAP
000000100000000000000000000000
000030F060FFFFFFFFFFFFFFFFFF00
0030F0C030FF304040404040408000
40F0FF3030FF30FFFFFFFFFFFFFF00
2040FF3030FF30FFFFFFFFFFFFFF00
0000FF3030FF30FF6060606080FF00
0000FF3030FF30FFFFFFFFFFFF8000
0000FF3030FF2030E0403030302000
0000FF3030FFFFFFFFFFFFFFFFE000
0000FF3030FF00C0F0A060A0FF2000
0000FF3030FF60A0F0FFFFFFFF6000
0000FF3030FFA0A08040104080C000
0000FF3030FFFFFFFFFFFFFFFFFF20
000030000030303030303030303000
ENDCHAR
STARTCHAR  5047
ENCODING  20551
SWIDTH  1000 0
DWIDTH  16 0
BBX  15 14 1 -3
BITMAP
000000000000000000000000000000
000060C010303030FF30303030FF20
0060FF6030FFFFFFFFA0FFFFFFFF20
80FFFF0030FF0000FF30101020FF20
3040FF0030FFFFFFE080FFFFFFC000
0030FF0030FF302010102020204000
0030FF0030FF00000080FFFFFFFF20
0030FF0030FFFFFFFF30303030FF20
0030FF0030FF30303060E01060F000
0030FF0030FF00000010E0E0E08000
0030FF0030FFFFFFF00030FFFF1000
0030FF0030FF20202040E0E0E0C000
0030FF0030FF000000F0A01020E040
001060001060000000100000001000
ENDCHAR
STARTCHAR  5048
ENCODING  20552
SWIDTH  1000 0
DWIDTH  16 0
BBX  14 14 1 -3
BITMAP
0000000000000000000000001040
000040E010FFFFFFFFFFFFFFFFFF
0060F08000FF40303030303040FF
80FFFF0000FFFFFFFFFFFFFFFFFF
8080FF0000FF60606060606060FF
0030FF0000FFFFFFFFFFFFFFFF80
0030FF000060A000000000001060
0030FF0000E0FFFFFFFFFFFFFFFF
0030FF0080E0303080FF403040FF
0030FF40FFE00020E0FF400030FF
0030FF0080FF20E0F0A0FFA030FF
0030FF0020FF60F0403060A030FF
0030FF0020FFFFFFFFFF80FFFFC0
0000200000000000000000404010
ENDCHAR
STARTCHAR  504C
ENCODING  20556
SWIDTH  1000 0
DWIDTH  16 0
BBX  15 14 0 -3
BITMAP
000000100000000000000000000000
000020F04000FF30000000FF300000
0020E0A0E0F0FFF0F0F0F0FFF0F000
40F0FF304060FF60606060FF606000
60A0FF300000306000000030000000
0000FF30303040FF30303030303010
0000FF30FFFFFFFFFFFFFFFFFFFF80
0000FF300040FF2000000000002000
0000FF3000E0FFFFFFFFFFFFFFFF00
0000FF30A0F0FF403030303040FF00
0000FF60F040FF300000000030FF00
0000FF301000FF300000000030FF00
0000FF300000FFFFFFFFFFFFFFC000
000030000000202020202020200000
ENDCHAR
STARTCHAR  504E
ENCODING  20558
SWIDTH  1000 0
DWIDTH  16 0
BBX  15 13 0 -3
BITMAP
000000801030303030303030308000
0000A0E020FFFFFFFFFFFFFFFFFF00
10C0FF4000FF403030FF403040FF00
60E0FF3000FFFFFFFFFFFFFFFFFF00
0000FF3000FF403030FF403040FF00
0000FF3000FFFFFFFFFFFFFFFFA000
0000FF30FFFFFFFFFFFFFFFFFFFF60
0000FF303040FF303060FF60306020
0000FF300020FF000000A0E0A0FF40
0000FF300020FF20400010E0FF4000
0000FF301060FFFFA0000020E0E010
0000F02030F0A0300000000010A010
000000000000000000000000000000
ENDCHAR
STARTCHAR  504F
ENCODING  20559
SWIDTH  1000 0
DWIDTH  16 0
BBX  15 14 1 -3
BITMAP
000000100000000000000000000000
000060E00000000080600000000000
0040FF6030FFFFFFFFFFFFFFFFE010
40F0FF0030FF30303030303040FF10
A0E0FF0030FF30303030303040FF10
1030FF0030FFFFFFFFFFFFFFFFA000
0030FF0030FF30303030303030E010
0030FF0030FFFFFFFFFFFFFFFFFF10
0030FF0030FFFF30FF3030FF10FF10
0030FF0040F0FF40FF4040FF40FF10
0030FF00A0C0FFFFFFFFFFFFFFFF10
0030FF10F080FF30FF3030FF10FF10
0030FF60F010FF30FF3030FFF0C000
000030001000200000000000200000
ENDCHAR
STARTCHAR  5055
ENCODING  20565
SWIDTH  1000 0
DWIDTH  16 0
BBX  15 14 0 -3
BITMAP
000000100020000000002000000000
000030F030FF30201020FF00208000
0030F0A000FFFFFFC020FFE0FFC010
60F0FF3000FF30101020FF60100000
4080FF3000FF60808020FF0020E000
0000FF3080FFF0C06030FFFFFFC000
0000FF3030401010C0403030303000
0000FF3020FFFFFFFFFFFFFFFFFF00
0000FF3020FF30303030303040FF00
0000FF3020FF30303030303040FF00
0000FF3020FFFFFFFFFFFFFFFFFF00
0000FF3020FF10000000000030FF00
0000FF3020FFFFFFFFFFFFFFFFC000
000020000030303030303030200000
ENDCHAR
STARTCHAR  505A
ENCODING  20570
SWIDTH  1000 0
DWIDTH  16 0
BBX  15 14 0 -3
BITMAP
000000100000000000000000000000
000040FF2000F02000008080000000
0030F0800000FF300000E0A0303020
30E0FF40FFFFFFFFFF60FFFFFFFFF0
4080FF303030FF403080E00000FF30
0000FF300000FF300010401020FF10
0000FF301010FF304000C08060E000
0000FF30FFFFFFFFFF1060F0C0A000
0000FF30FF402040FF1000E0FF4000
0000FF30FF300020FF1000A0FF2000
0000FF30FF300020FF1030FFE0C000
0000FF30FF300020FF10E0A040FF40
0000FF30FFFFFFFFC040E01000A0A0
000030103030302000001000000000
ENDCHAR
STARTCHAR  505C
ENCODING  20572
SWIDTH  1000 0
DWIDTH  16 0
BBX  15 14 1 -3
BITMAP
000000100000000000000000000000
000060E020202020A0802020202000
0040FF80C0FFFFFFFFFFFFFFFFFF00
60FFFF001040404040404040FF2000
60A0FF0000FFFFFFFFFFFFFFFF1000
0030FF0000FFFFFFFFFFFFFFC00000
0030FF000030303030303020004010
0030FF10FFFFFFFFFFFFFFFFFFFF30
0030FF10E03030303030303030E020
0030FF000030303030303030303000
0030FF0000FFFFFFFFFFFFFFFFFF00
0030FF000000000020FF0000000000
0030FF00000060FFFFE00000000000
000030000000103030000000000000
ENDCHAR
STARTCHAR  5065
ENCODING  20581
SWIDTH  1000 0
DWIDTH  16 0
BBX  15 13 0 -3
BITMAP
000040A020202010303040FF303000
0020F080E0FFFF80FFFFFFFFFFFF30
30E0FF300030FF20303040FF30FF40
20A0FF3000A0C0C0FFFFFFFFFFFFFF
0000FF3010F06010303040FF30FF20
0000FF3080F03060FFFFFFFFFFE000
0000FF30A0FFFF00303040FF303020
0000FF3040A0F000FFFFFFFFFFFFE0
0000FF3000A0C010303040FF303030
0000FF3010F080A0FFFFFFFFFFFFFF
0000FF30A0FF8000000020C0000000
0000FF80F080F0FFFFFFFFFFFFFFF0
000030001000002030303030303020
ENDCHAR
STARTCHAR  506C
ENCODING  20588
SWIDTH  1000 0
DWIDTH  16 0
BBX  15 14 0 -3
BITMAP
000000200000100000000000000000
000060FF3060E00000000000108010
0060FF8020F0FFFFFFFFFFFFFFFF10
60FFFF30E0C040A0F04060FF60FF10
2030FF60E040FFFFA030F0A020FF10
0000FF300080FFA0F0FFFF4020FF10
0000FF3080F04020E0E0A08020FF10
0000FF30202010E0C0100040FFC000
0000FF300000004020100010200000
0000FF303010A010C0E06000206000
0000FF30E080FF3030A0FF2040F000
0000FF40FF30FF300000200000F040
0000FF80E000FFFFFFFFFFFFC0A080
000030001000303030303030200000
ENDCHAR
STARTCHAR  5076
ENCODING  20598
SWIDTH  1000 0
DWIDTH  16 0
BBX  16 13 0 -3
BITMAP
00000020A01030303030303030601000
000030E0C020FFFFFFFFFFFFFFFF3000
0060F0FF0020FF303040FF3030FF3000
00A080FF0020FFFFFFFFFFFFFFFF3000
000030FF0020FF303040FF3030FF2000
000030FF0020FFFFFFFFFFFFFFE00000
000030FF003030303040FF303030E020
000030FF00FFFFFFFFFFFFFFFFFFFF20
000030FF00FF30000030FF308010FF20
000030FF00FF40A0C0E0FFFFF010FF20
000030FF00FF4080606040308020FF20
000030FF00FF300000000000E0FFE000
00000010001000000000000020200000
ENDCHAR
STARTCHAR  5077
ENCODING  20599
SWIDTH  1000 0
DWIDTH  16 0
BBX  15 14 1 -3
BITMAP
000000400000000000000000000000
0000A0F010A0A0FFFFFFFFFFFF2000
00A0FF4040FF203030303030E0A000
A0F0FF10E080FFFFFFFFFFFFFFF010
3040FF006000303030303030206000
0030FF0030FFFFFFFF200000FF3000
0030FF0030FF3030FF30FF30FF3000
0030FF0030FF3030FF30FF30FF3000
0030FF0030FFFFFFFF30FF30FF3000
0030FF0030FF3030FF30FF30FF3000
0030FF0030FFFFFFFF30FF30FF3000
0030FF0030FF0000FF20E020FF2000
0030FF0030FF00F0E000FFFFE00000
000010000010002000002020000000
ENDCHAR
STARTCHAR  507B
ENCODING  20603
SWIDTH  1000 0
DWIDTH  16 0
BBX  15 14 1 -3
BITMAP
000000000000000000000000000000
000010A01080600030FF0000A06000
0010E0E01080FF8030FF00A0FF6000
30E0FF100030A0A040FF30E0803000
A0C0FF0000FFFFFFFFFFFFFFFFFF00
0030FF000060F0A030FF00A0E02000
0030FF00C0F0600030FF000080E000
0030FF002010606010600000002000
0030FF00FFFFFFFFFFFFFFFFFFFF00
0030FF003060FF60303030A0FF2000
0030FF000040E0FFC080E0F0600000
0030FF00103060E0FFFFFFA0300000
0030FF00A0FFE0A0601060C0FFC000
001060001010000000000000204000
ENDCHAR
STARTCHAR  507E
ENCODING  20606
SWIDTH  1000 0
DWIDTH  16 0
BBX  15 14 0 -3
BITMAP
000000000000000000000000000000
000030E03000000020E00000000000
0020E0A000FFFFFFFFFFFFFFFFFF00
30E0FF300030303040FF3030303000
60C0FF303030F04030303040F03000
0000FF30FFFFFFFFFFFFFFFFFFFF20
0000FF300000E02000000020E04000
0000FF3000FFFFFFFFFFFFFFFFFF00
0000FF3000FF604040A0404060FF00
0000FF3000FF300040FF000030FF00
0000FF3000FF2060F0A0C04020FF00
0000FF301060E0FF8010A0FFA02000
0000FF30F0F0A02000000020A0F010
000060103010000000000000003000
ENDCHAR
STARTCHAR  507F
ENCODING  20607
SWIDTH  1000 0
DWIDTH  16 0
BBX  15 14 0 -3
BITMAP
000000100000000010400000000000
000040F040E0600030FF0020C04000
0040F0A01080FFA030FF10F0C01000
60FFFF30C0C0F0E0E0FFC0F0C0FF30
3060FF30FFA080808080808080FF30
0000FF308030202020202020208010
0000FF3000FFFFFFFFFFFFFFFF2000
0000FF300010101010101010100000
0000FF30F0FFFFFFFFFFFFFFFFFF00
0000FF30203040F0E0403040303000
0000FF300040F0C0100010E0600000
0000FF3060FFF0A0A0C0E0F0F01000
0000FF3080E0E0C0A0808060A06000
000020000000000000000000000000
ENDCHAR
STARTCHAR  5080
ENCODING  20608
SWIDTH  1000 0
DWIDTH  16 0
BBX  14 13 1 -3
BITMAP
0000108000000060400000000000
0010E0E0103030F0803030306010
30E0FF1030FFFFFFFFFFFFFFFF30
80C0FF0030FF2020FF402020FF30
0030FF0030FFFFFFFFFFFFFFFF30
0030FF0030FF1010FF301010FF30
0030FF0030FF3030FF403030FF20
0030FF0030FFFFFFFFFFFFFFC000
0030FF0000000080E08020E06080
0030FF00000080F040FFA0FFFFFF
0030FF0030C0F04000FF40303030
0030FF20FFA0100000FFFFFFFFFF
0010600020000000004040404040
ENDCHAR
STARTCHAR  5085
ENCODING  20613
SWIDTH  1000 0
DWIDTH  16 0
BBX  15 14 0 -3
BITMAP
000000000000000000000000000000
000020E03000000030FF0040A00000
0020E0A0E0FFFFFFFFFFFFFFFFFF00
20E0FF302060606060FF6060E04000
60C0FF3000FFFFFFFFFFFFFFFF3000
0000FF3000FFFFFFFFFFFFFFFF3000
0000FF3000FF403040FF3030FF3000
0000FF3000FFFFFFFFFFFFFFFF3000
0000FF3000FF403040F03030FF3000
0000FF303030303030303040F03010
0000FF30FFFFFFFFFFFFFFFFFFFF80
0000FF300020E06010000030FF0000
0000FF30000060E06080FFFFC00000
000030000000000000103020000000
ENDCHAR
STARTCHAR  5088
ENCODING  20616
SWIDTH  1000 0
DWIDTH  16 0
BBX  15 14 1 -3
BITMAP
000000000000000000000000000000
000060C02030303030303030303000
0040FF60C0FFFFFFFFFFFFFFFFFF00
40F0FF00003030FF4040FF4040E000
80C0FF0030FFFFFFFFFFFFFFFFFF00
0030FF0030FF00FF3010FF1030FF00
0030FF0030FFFFFFFFFFFFFFFFA000
0030FF000030303030303030200000
0030FF003030303040FF3030303010
0030FF00FFFFFFFFFFFFFFFFFFFF40
0030FF000040E00030FF00C0E00000
0030FF0030F0600030FF0030F08000
0030FF30FF80000030FF000040F010
0020A0004000000020A00000004000
ENDCHAR
STARTCHAR  508D
ENCODING  20621
SWIDTH  1000 0
DWIDTH  16 0
BBX  15 14 1 -3
BITMAP
000000100000000010100000000000
000060F010000000E0800000000000
0060FF6060FFFFFFFFFFFFFFFFFF00
80FFFF001030E080303040F0603000
4060FF00C0C0E0F0C0C0E0FFC0FF00
0030FF00FFA0A0A0A0A0A0A0A0FF00
0030FF0040100000C0A00000106000
0030FF10FFFFFFFFFFFFFFFFFFFF60
0030FF003040FF3030303030303010
0030FF000030FF3030303030600000
0030FF000060FFFFFFFFFFFFFF1000
0030FF0010E0800000000020FF0000
0030FF00E0E010000000A0FFC00000
000030006010000000001010000000
ENDCHAR
STARTCHAR  50A3
ENCODING  20643
SWIDTH  1000 0
DWIDTH  16 0
BBX  15 14 1 -3
BITMAP
000000100000000000000000000000
000060E020101010F0301010100000
0060FF60FFFFFFFFFFFFFFFFFF6000
60FFFF0030404040FF604040401000
6080FF00C0FFFFFFFFFFFFFFFF0000
0030FF10303030A0E0303030303000
0030FF40FFFFFFFFFFFFFFFFFFFF20
0030FF0040C0E060C01030E0E04000
0030FF80FFFF8020FF3080E0F0FF40
0030FF101060E040FF40E080102000
0030FF0000006020FF208020000000
0030FF0060E0E040FF40E0FFA04000
0030FF40E06020FFC0000040A0E010
000030000000002000000000000000
ENDCHAR
STARTCHAR  50A5
ENCODING  20645
SWIDTH  1000 0
DWIDTH  16 0
BBX  15 14 0 -3
BITMAP
000000100000000010400000000000
000030F040E0800030FF0010C02000
0030F0A00080FF8030FF20E0C00000
40F0FF30A0A0E0E0C0FFC0FFC0FF30
60A0FF30FFE0E0E0E0E0E0E0E0FF30
0000FF30F03030303030303060FF30
0000FF300030FFFFFFFFFFFFFF0000
0000FF300030FF0000000030FF0000
0000FF300030FF3030303040FF0000
0000FF300030FFFFFFFFFFFF800000
0000FF30000060FF4000FF30002000
0000FF3020A0FF600000FF3000FF20
0000FF30E0C030000000FFFFFFE000
000030001000000000003030201000
ENDCHAR
STARTCHAR  50A7
ENCODING  20647
SWIDTH  1000 0
DWIDTH  16 0
BBX  15 14 0 -3
BITMAP
000000000000000000000000000000
000020C03000000060C00000002000
0010E0C0F0E0E0E0F0FFE0E0E0FF30
30E0FF30FF8060606060606060FF30
60E0FF301010303030303060A00000
1010FF300030FFFFFFFFFFE0800000
0000FF300030FF3030303030302000
0000FF300030FFFFFFFFFFFFFFE000
0000FF300030FF00000020FF000000
0000FF303040FF30303040FF303020
0000FF30FFFFFFFFFFFFFFFFFFFFA0
0000FF300030C0E0000040F0600000
0000FF30C0FFC03000000080FFA000
0000A0206030000000000000303000
ENDCHAR
STARTCHAR  50A8
ENCODING  20648
SWIDTH  1000 0
DWIDTH  16 0
BBX  15 14 0 -3
BITMAP
000000200000000000000000000000
000080E0606000000020F000003000
0060FF6060FF4060FFFFFFFFFFFF30
60FFFF3000E080103040FF60FFA000
2080FF40606000303040FFF0E03030
0000FF60E0FF10FFFFFFFFFFFFFFFF
0000FF3030FF0020C0FF8000104000
0000FF3030FF80FFFFFFFFFFFFFF00
0000FF3030FF3060FF30303040FF00
0000FF3030FF0030FFFFFFFFFFFF00
0000FF3030FF8040FF30303040FF00
0000FF3060FFFF60FF00000030FF00
0000FF30E0A02030FFFFFFFFFFA000
000030001000000020202020100000
ENDCHAR
ENDFONT
